G04 EAGLE Gerber RS-274X export*
G75*
%MOMM*%
%FSLAX34Y34*%
%LPD*%
%INTop Copper*%
%IPPOS*%
%AMOC8*
5,1,8,0,0,1.08239X$1,22.5*%
G01*
%ADD10R,1.651000X1.651000*%
%ADD11C,1.651000*%
%ADD12P,1.319650X8X112.500000*%
%ADD13C,1.143000*%
%ADD14R,1.300000X0.450000*%
%ADD15C,1.275000*%
%ADD16C,0.900000*%
%ADD17C,1.524000*%
%ADD18P,1.319650X8X22.500000*%
%ADD19C,1.879600*%
%ADD20R,1.200000X1.200000*%
%ADD21C,1.200000*%
%ADD22R,2.235200X1.219200*%
%ADD23R,2.200000X3.600000*%
%ADD24C,0.406400*%
%ADD25C,0.152400*%

G36*
X6232Y439914D02*
X6232Y439914D01*
X6113Y439907D01*
X6075Y439894D01*
X6034Y439889D01*
X5924Y439846D01*
X5811Y439809D01*
X5776Y439787D01*
X5739Y439772D01*
X5643Y439703D01*
X5542Y439639D01*
X5514Y439609D01*
X5481Y439586D01*
X5405Y439494D01*
X5324Y439407D01*
X5304Y439372D01*
X5279Y439341D01*
X5228Y439233D01*
X5170Y439129D01*
X5160Y439089D01*
X5143Y439053D01*
X5121Y438936D01*
X5091Y438821D01*
X5087Y438761D01*
X5083Y438741D01*
X5085Y438720D01*
X5081Y438660D01*
X5081Y324352D01*
X5098Y324214D01*
X5111Y324076D01*
X5118Y324057D01*
X5121Y324037D01*
X5172Y323907D01*
X5219Y323776D01*
X5230Y323760D01*
X5238Y323741D01*
X5319Y323628D01*
X5397Y323513D01*
X5413Y323500D01*
X5424Y323483D01*
X5532Y323394D01*
X5636Y323303D01*
X5654Y323294D01*
X5669Y323281D01*
X5795Y323221D01*
X5919Y323158D01*
X5939Y323154D01*
X5957Y323145D01*
X6094Y323119D01*
X6229Y323089D01*
X6250Y323089D01*
X6269Y323085D01*
X6408Y323094D01*
X6547Y323098D01*
X6567Y323104D01*
X6587Y323105D01*
X6719Y323148D01*
X6853Y323187D01*
X6870Y323197D01*
X6889Y323203D01*
X7007Y323278D01*
X7127Y323348D01*
X7148Y323367D01*
X7158Y323373D01*
X7172Y323388D01*
X7248Y323455D01*
X7412Y323619D01*
X8565Y324389D01*
X9846Y324920D01*
X10661Y325082D01*
X11346Y325191D01*
X11956Y325191D01*
X11956Y318150D01*
X11956Y311109D01*
X11346Y311109D01*
X10661Y311218D01*
X9846Y311380D01*
X8565Y311911D01*
X7412Y312681D01*
X7248Y312845D01*
X7138Y312930D01*
X7031Y313019D01*
X7012Y313028D01*
X6996Y313040D01*
X6869Y313096D01*
X6743Y313155D01*
X6723Y313159D01*
X6704Y313167D01*
X6567Y313189D01*
X6430Y313215D01*
X6410Y313213D01*
X6390Y313217D01*
X6252Y313204D01*
X6113Y313195D01*
X6094Y313189D01*
X6074Y313187D01*
X5943Y313140D01*
X5811Y313097D01*
X5793Y313086D01*
X5774Y313079D01*
X5659Y313001D01*
X5542Y312927D01*
X5528Y312912D01*
X5511Y312901D01*
X5419Y312796D01*
X5324Y312695D01*
X5314Y312677D01*
X5301Y312662D01*
X5238Y312538D01*
X5170Y312417D01*
X5165Y312397D01*
X5156Y312379D01*
X5126Y312243D01*
X5091Y312109D01*
X5089Y312081D01*
X5086Y312069D01*
X5087Y312048D01*
X5081Y311948D01*
X5081Y246852D01*
X5098Y246714D01*
X5111Y246576D01*
X5118Y246557D01*
X5121Y246537D01*
X5172Y246407D01*
X5219Y246276D01*
X5230Y246260D01*
X5238Y246241D01*
X5319Y246128D01*
X5397Y246013D01*
X5413Y246000D01*
X5424Y245983D01*
X5532Y245894D01*
X5636Y245803D01*
X5654Y245794D01*
X5669Y245781D01*
X5795Y245721D01*
X5919Y245658D01*
X5939Y245654D01*
X5957Y245645D01*
X6094Y245619D01*
X6229Y245589D01*
X6250Y245589D01*
X6269Y245585D01*
X6408Y245594D01*
X6547Y245598D01*
X6567Y245604D01*
X6587Y245605D01*
X6719Y245648D01*
X6853Y245687D01*
X6870Y245697D01*
X6889Y245703D01*
X7007Y245778D01*
X7127Y245848D01*
X7148Y245867D01*
X7158Y245873D01*
X7172Y245888D01*
X7248Y245955D01*
X7412Y246119D01*
X8565Y246889D01*
X9846Y247420D01*
X10661Y247582D01*
X11346Y247691D01*
X11956Y247691D01*
X11956Y240650D01*
X11956Y233609D01*
X11346Y233609D01*
X10661Y233718D01*
X9846Y233880D01*
X8565Y234411D01*
X7412Y235181D01*
X7248Y235345D01*
X7138Y235430D01*
X7031Y235519D01*
X7012Y235528D01*
X6996Y235540D01*
X6869Y235596D01*
X6743Y235655D01*
X6723Y235659D01*
X6704Y235667D01*
X6567Y235689D01*
X6430Y235715D01*
X6410Y235713D01*
X6390Y235717D01*
X6252Y235704D01*
X6113Y235695D01*
X6094Y235689D01*
X6074Y235687D01*
X5943Y235640D01*
X5811Y235597D01*
X5793Y235586D01*
X5774Y235579D01*
X5659Y235501D01*
X5542Y235427D01*
X5528Y235412D01*
X5511Y235401D01*
X5419Y235296D01*
X5324Y235195D01*
X5314Y235177D01*
X5301Y235162D01*
X5238Y235038D01*
X5170Y234917D01*
X5165Y234897D01*
X5156Y234879D01*
X5126Y234743D01*
X5091Y234609D01*
X5089Y234581D01*
X5086Y234569D01*
X5087Y234548D01*
X5081Y234448D01*
X5081Y120650D01*
X5096Y120532D01*
X5103Y120413D01*
X5116Y120375D01*
X5121Y120334D01*
X5164Y120224D01*
X5201Y120111D01*
X5223Y120076D01*
X5238Y120039D01*
X5307Y119943D01*
X5371Y119842D01*
X5401Y119814D01*
X5424Y119781D01*
X5516Y119705D01*
X5603Y119624D01*
X5638Y119604D01*
X5669Y119579D01*
X5777Y119528D01*
X5881Y119470D01*
X5921Y119460D01*
X5957Y119443D01*
X6074Y119421D01*
X6189Y119391D01*
X6249Y119387D01*
X6269Y119383D01*
X6290Y119385D01*
X6350Y119381D01*
X412550Y119381D01*
X412668Y119396D01*
X412787Y119403D01*
X412825Y119416D01*
X412866Y119421D01*
X412976Y119464D01*
X413089Y119501D01*
X413124Y119523D01*
X413161Y119538D01*
X413257Y119607D01*
X413358Y119671D01*
X413386Y119701D01*
X413419Y119724D01*
X413495Y119816D01*
X413576Y119903D01*
X413596Y119938D01*
X413621Y119969D01*
X413672Y120077D01*
X413730Y120181D01*
X413740Y120221D01*
X413757Y120257D01*
X413779Y120374D01*
X413809Y120489D01*
X413813Y120549D01*
X413817Y120569D01*
X413815Y120590D01*
X413819Y120650D01*
X413819Y438660D01*
X413804Y438778D01*
X413797Y438897D01*
X413784Y438935D01*
X413779Y438976D01*
X413736Y439086D01*
X413699Y439199D01*
X413677Y439234D01*
X413662Y439271D01*
X413593Y439367D01*
X413529Y439468D01*
X413499Y439496D01*
X413476Y439529D01*
X413384Y439605D01*
X413297Y439686D01*
X413262Y439706D01*
X413231Y439731D01*
X413123Y439782D01*
X413019Y439840D01*
X412979Y439850D01*
X412943Y439867D01*
X412826Y439889D01*
X412711Y439919D01*
X412651Y439923D01*
X412631Y439927D01*
X412610Y439925D01*
X412550Y439929D01*
X6350Y439929D01*
X6232Y439914D01*
G37*
%LPC*%
G36*
X157819Y122173D02*
X157819Y122173D01*
X157808Y122184D01*
X157755Y122213D01*
X157707Y122250D01*
X157616Y122290D01*
X157529Y122338D01*
X157470Y122353D01*
X157415Y122377D01*
X157317Y122392D01*
X157221Y122417D01*
X157121Y122423D01*
X157101Y122427D01*
X157088Y122425D01*
X157060Y122427D01*
X150506Y122427D01*
X148675Y124258D01*
X148664Y124340D01*
X148637Y124593D01*
X148627Y124636D01*
X148621Y124679D01*
X148556Y124925D01*
X148495Y125172D01*
X148479Y125213D01*
X148468Y125255D01*
X148370Y125490D01*
X148277Y125726D01*
X148255Y125765D01*
X148239Y125805D01*
X148111Y126024D01*
X147986Y126247D01*
X147960Y126282D01*
X147938Y126320D01*
X147871Y126401D01*
X147629Y126723D01*
X147475Y126880D01*
X147402Y126968D01*
X138310Y136060D01*
X136685Y137685D01*
X136143Y138993D01*
X136143Y140407D01*
X136685Y141715D01*
X168878Y173908D01*
X168964Y174007D01*
X169058Y174099D01*
X169160Y174231D01*
X169270Y174356D01*
X169342Y174466D01*
X169423Y174570D01*
X169507Y174715D01*
X169598Y174853D01*
X169656Y174972D01*
X169722Y175086D01*
X169785Y175240D01*
X169858Y175390D01*
X169898Y175515D01*
X169949Y175637D01*
X169991Y175798D01*
X170043Y175957D01*
X170066Y176086D01*
X170100Y176214D01*
X170111Y176327D01*
X170150Y176543D01*
X170169Y176944D01*
X170179Y177050D01*
X170179Y178550D01*
X170170Y178681D01*
X170171Y178813D01*
X170150Y178978D01*
X170139Y179144D01*
X170113Y179274D01*
X170096Y179404D01*
X170053Y179565D01*
X170020Y179728D01*
X169977Y179853D01*
X169943Y179980D01*
X169879Y180134D01*
X169824Y180291D01*
X169764Y180408D01*
X169714Y180530D01*
X169630Y180674D01*
X169554Y180822D01*
X169479Y180931D01*
X169413Y181045D01*
X169340Y181132D01*
X169216Y181313D01*
X168945Y181611D01*
X168878Y181692D01*
X164928Y185642D01*
X164829Y185728D01*
X164737Y185822D01*
X164605Y185924D01*
X164480Y186034D01*
X164370Y186106D01*
X164266Y186187D01*
X164121Y186271D01*
X163983Y186362D01*
X163864Y186420D01*
X163750Y186486D01*
X163596Y186549D01*
X163446Y186622D01*
X163320Y186663D01*
X163199Y186713D01*
X163038Y186755D01*
X162879Y186807D01*
X162750Y186830D01*
X162622Y186864D01*
X162509Y186875D01*
X162293Y186914D01*
X161892Y186933D01*
X161786Y186943D01*
X151765Y186943D01*
X151677Y186937D01*
X151589Y186940D01*
X151380Y186917D01*
X151170Y186903D01*
X151084Y186886D01*
X150997Y186876D01*
X150793Y186826D01*
X150586Y186784D01*
X150503Y186755D01*
X150418Y186734D01*
X150222Y186657D01*
X150024Y186588D01*
X149945Y186548D01*
X149864Y186516D01*
X149680Y186414D01*
X149492Y186318D01*
X149420Y186268D01*
X149343Y186226D01*
X149175Y186099D01*
X149002Y185980D01*
X148944Y185927D01*
X146851Y185927D01*
X146714Y185910D01*
X146575Y185897D01*
X146556Y185890D01*
X146536Y185887D01*
X146407Y185836D01*
X146275Y185789D01*
X146259Y185778D01*
X146240Y185770D01*
X146127Y185689D01*
X146012Y185611D01*
X145999Y185595D01*
X145983Y185584D01*
X145894Y185476D01*
X145802Y185372D01*
X145793Y185354D01*
X145780Y185339D01*
X145720Y185213D01*
X145657Y185089D01*
X145653Y185069D01*
X145644Y185051D01*
X145618Y184915D01*
X145588Y184779D01*
X145588Y184758D01*
X145584Y184739D01*
X145593Y184600D01*
X145597Y184461D01*
X145603Y184441D01*
X145604Y184421D01*
X145647Y184289D01*
X145686Y184155D01*
X145696Y184138D01*
X145702Y184119D01*
X145777Y184001D01*
X145847Y183881D01*
X145866Y183860D01*
X145872Y183850D01*
X145887Y183836D01*
X145954Y183761D01*
X147321Y182393D01*
X147321Y174643D01*
X144558Y171881D01*
X144472Y171782D01*
X144378Y171689D01*
X144276Y171558D01*
X144166Y171432D01*
X144094Y171322D01*
X144013Y171218D01*
X143929Y171074D01*
X143838Y170935D01*
X143780Y170817D01*
X143714Y170703D01*
X143651Y170549D01*
X143578Y170399D01*
X143537Y170273D01*
X143487Y170152D01*
X143445Y169991D01*
X143393Y169832D01*
X143370Y169703D01*
X143336Y169575D01*
X143325Y169462D01*
X143286Y169246D01*
X143267Y168844D01*
X143257Y168739D01*
X143257Y164393D01*
X142715Y163085D01*
X141090Y161460D01*
X129015Y149385D01*
X127707Y148843D01*
X104914Y148843D01*
X104783Y148834D01*
X104651Y148835D01*
X104486Y148814D01*
X104320Y148803D01*
X104190Y148777D01*
X104060Y148760D01*
X103899Y148717D01*
X103736Y148684D01*
X103611Y148641D01*
X103484Y148607D01*
X103330Y148543D01*
X103173Y148488D01*
X103056Y148428D01*
X102934Y148378D01*
X102790Y148294D01*
X102641Y148218D01*
X102533Y148143D01*
X102419Y148077D01*
X102332Y148004D01*
X102151Y147880D01*
X101853Y147609D01*
X101772Y147542D01*
X100833Y146603D01*
X100761Y146520D01*
X100682Y146444D01*
X100565Y146296D01*
X100441Y146154D01*
X100380Y146063D01*
X100312Y145976D01*
X100216Y145814D01*
X100112Y145657D01*
X100064Y145558D01*
X100008Y145464D01*
X99935Y145290D01*
X99853Y145120D01*
X99819Y145016D01*
X99776Y144915D01*
X99726Y144733D01*
X99668Y144554D01*
X99648Y144446D01*
X99619Y144340D01*
X99594Y144153D01*
X99560Y143968D01*
X99555Y143858D01*
X99541Y143749D01*
X99541Y143561D01*
X99532Y143373D01*
X99542Y143263D01*
X99542Y143153D01*
X99567Y142966D01*
X99584Y142779D01*
X99608Y142672D01*
X99623Y142563D01*
X99658Y142447D01*
X99714Y142197D01*
X99823Y141906D01*
X99823Y137527D01*
X98160Y133513D01*
X95087Y130440D01*
X91073Y128777D01*
X86727Y128777D01*
X82713Y130440D01*
X79640Y133513D01*
X77977Y137527D01*
X77977Y141873D01*
X79640Y145887D01*
X81359Y147606D01*
X81388Y147640D01*
X81421Y147669D01*
X81585Y147864D01*
X81752Y148055D01*
X81776Y148092D01*
X81804Y148126D01*
X81940Y148341D01*
X82080Y148552D01*
X82099Y148592D01*
X82123Y148629D01*
X82229Y148860D01*
X82339Y149089D01*
X82353Y149131D01*
X82371Y149171D01*
X82445Y149413D01*
X82524Y149655D01*
X82532Y149699D01*
X82545Y149741D01*
X82586Y149991D01*
X82589Y150008D01*
X86525Y151639D01*
X91275Y151639D01*
X92681Y151056D01*
X92710Y151048D01*
X92736Y151035D01*
X92863Y151006D01*
X92988Y150972D01*
X93018Y150972D01*
X93046Y150965D01*
X93176Y150969D01*
X93306Y150967D01*
X93335Y150974D01*
X93364Y150975D01*
X93489Y151011D01*
X93615Y151041D01*
X93641Y151055D01*
X93670Y151063D01*
X93782Y151129D01*
X93896Y151190D01*
X93918Y151210D01*
X93944Y151225D01*
X94064Y151331D01*
X94744Y152011D01*
X94829Y152120D01*
X94918Y152227D01*
X94926Y152246D01*
X94939Y152262D01*
X94994Y152390D01*
X95053Y152515D01*
X95057Y152535D01*
X95065Y152554D01*
X95087Y152692D01*
X95113Y152828D01*
X95112Y152848D01*
X95115Y152868D01*
X95102Y153007D01*
X95093Y153145D01*
X95087Y153164D01*
X95085Y153184D01*
X95038Y153316D01*
X94995Y153447D01*
X94984Y153465D01*
X94977Y153484D01*
X94899Y153599D01*
X94825Y153716D01*
X94810Y153730D01*
X94799Y153747D01*
X94695Y153839D01*
X94593Y153934D01*
X94576Y153944D01*
X94560Y153957D01*
X94437Y154020D01*
X94315Y154088D01*
X94295Y154093D01*
X94277Y154102D01*
X94141Y154132D01*
X94007Y154167D01*
X93979Y154169D01*
X93967Y154172D01*
X93946Y154171D01*
X93846Y154177D01*
X81032Y154177D01*
X80966Y154228D01*
X80769Y154387D01*
X80731Y154410D01*
X80697Y154437D01*
X80476Y154565D01*
X80259Y154696D01*
X80219Y154714D01*
X80181Y154736D01*
X79946Y154832D01*
X79713Y154934D01*
X79670Y154946D01*
X79630Y154963D01*
X79384Y155027D01*
X79139Y155096D01*
X79096Y155103D01*
X79053Y155114D01*
X78947Y155124D01*
X78550Y155181D01*
X78330Y155183D01*
X78217Y155193D01*
X65038Y155193D01*
X64906Y155184D01*
X64774Y155185D01*
X64609Y155164D01*
X64443Y155153D01*
X64314Y155127D01*
X64183Y155110D01*
X64022Y155067D01*
X63859Y155034D01*
X63735Y154991D01*
X63607Y154957D01*
X63454Y154893D01*
X63296Y154838D01*
X63179Y154778D01*
X63057Y154728D01*
X62913Y154644D01*
X62765Y154568D01*
X62657Y154493D01*
X62543Y154427D01*
X62455Y154354D01*
X62275Y154230D01*
X61977Y153959D01*
X61895Y153892D01*
X60616Y152612D01*
X57955Y151510D01*
X43645Y151510D01*
X40984Y152612D01*
X38947Y154649D01*
X37845Y157310D01*
X37845Y160190D01*
X39175Y163399D01*
X39217Y163524D01*
X39268Y163645D01*
X39312Y163807D01*
X39365Y163964D01*
X39390Y164093D01*
X39425Y164220D01*
X39447Y164386D01*
X39479Y164549D01*
X39486Y164680D01*
X39503Y164811D01*
X39503Y164978D01*
X39513Y165144D01*
X39503Y165275D01*
X39502Y165407D01*
X39480Y165572D01*
X39467Y165738D01*
X39439Y165867D01*
X39421Y165997D01*
X39388Y166106D01*
X39342Y166321D01*
X39206Y166700D01*
X39175Y166801D01*
X37845Y170010D01*
X37845Y172890D01*
X38787Y175163D01*
X38806Y175219D01*
X38830Y175272D01*
X38901Y175501D01*
X38977Y175728D01*
X38989Y175785D01*
X39006Y175842D01*
X39045Y176078D01*
X39091Y176313D01*
X39094Y176371D01*
X39104Y176430D01*
X39111Y176669D01*
X39125Y176908D01*
X39120Y176966D01*
X39122Y177025D01*
X39099Y177250D01*
X39104Y177263D01*
X39159Y177369D01*
X39167Y177409D01*
X39183Y177446D01*
X39202Y177563D01*
X39228Y177679D01*
X39227Y177720D01*
X39233Y177760D01*
X39222Y177879D01*
X39218Y177997D01*
X39207Y178036D01*
X39203Y178076D01*
X39163Y178189D01*
X39130Y178303D01*
X39110Y178338D01*
X39096Y178376D01*
X39029Y178474D01*
X38968Y178577D01*
X38929Y178622D01*
X38917Y178639D01*
X38902Y178652D01*
X38862Y178698D01*
X38672Y178887D01*
X38126Y179706D01*
X50800Y179706D01*
X63474Y179706D01*
X63262Y179387D01*
X63256Y179380D01*
X63249Y179368D01*
X62928Y178887D01*
X62738Y178698D01*
X62665Y178603D01*
X62586Y178514D01*
X62568Y178478D01*
X62543Y178446D01*
X62496Y178337D01*
X62442Y178231D01*
X62433Y178192D01*
X62417Y178154D01*
X62398Y178037D01*
X62372Y177921D01*
X62373Y177880D01*
X62367Y177840D01*
X62378Y177722D01*
X62382Y177603D01*
X62393Y177564D01*
X62397Y177524D01*
X62437Y177412D01*
X62470Y177297D01*
X62490Y177263D01*
X62493Y177255D01*
X62492Y177211D01*
X62484Y177153D01*
X62485Y176914D01*
X62479Y176674D01*
X62485Y176616D01*
X62486Y176557D01*
X62518Y176320D01*
X62544Y176082D01*
X62559Y176025D01*
X62567Y175966D01*
X62601Y175854D01*
X62688Y175504D01*
X62778Y175277D01*
X62813Y175163D01*
X63755Y172890D01*
X63755Y170010D01*
X63109Y168452D01*
X63088Y168389D01*
X63061Y168329D01*
X62993Y168107D01*
X62919Y167887D01*
X62906Y167822D01*
X62887Y167759D01*
X62849Y167530D01*
X62805Y167302D01*
X62802Y167236D01*
X62791Y167171D01*
X62784Y166939D01*
X62771Y166707D01*
X62776Y166641D01*
X62774Y166575D01*
X62799Y166345D01*
X62817Y166113D01*
X62823Y166083D01*
X62738Y165998D01*
X62665Y165904D01*
X62586Y165814D01*
X62568Y165778D01*
X62543Y165746D01*
X62496Y165637D01*
X62442Y165531D01*
X62433Y165492D01*
X62417Y165454D01*
X62398Y165337D01*
X62372Y165221D01*
X62373Y165180D01*
X62367Y165140D01*
X62378Y165022D01*
X62382Y164903D01*
X62393Y164864D01*
X62397Y164824D01*
X62437Y164711D01*
X62470Y164597D01*
X62490Y164563D01*
X62504Y164524D01*
X62571Y164426D01*
X62631Y164323D01*
X62671Y164278D01*
X62683Y164261D01*
X62698Y164248D01*
X62738Y164203D01*
X63246Y163694D01*
X63324Y163634D01*
X63396Y163566D01*
X63449Y163537D01*
X63497Y163500D01*
X63588Y163460D01*
X63675Y163412D01*
X63733Y163397D01*
X63789Y163373D01*
X63887Y163358D01*
X63983Y163333D01*
X64083Y163327D01*
X64103Y163323D01*
X64115Y163325D01*
X64143Y163323D01*
X64400Y163323D01*
X64448Y163285D01*
X64627Y163138D01*
X64683Y163103D01*
X64735Y163063D01*
X64937Y162946D01*
X65134Y162824D01*
X65194Y162797D01*
X65251Y162764D01*
X65466Y162676D01*
X65678Y162581D01*
X65741Y162562D01*
X65802Y162537D01*
X66027Y162479D01*
X66250Y162413D01*
X66315Y162403D01*
X66379Y162386D01*
X66499Y162375D01*
X66839Y162323D01*
X67095Y162318D01*
X67215Y162307D01*
X108287Y162307D01*
X108331Y162310D01*
X108374Y162308D01*
X108628Y162330D01*
X108881Y162347D01*
X108924Y162355D01*
X108968Y162359D01*
X109216Y162415D01*
X109465Y162466D01*
X109507Y162480D01*
X109550Y162490D01*
X109788Y162578D01*
X110028Y162662D01*
X110067Y162682D01*
X110108Y162697D01*
X110332Y162817D01*
X110559Y162932D01*
X110596Y162957D01*
X110634Y162977D01*
X110840Y163126D01*
X111050Y163270D01*
X111082Y163300D01*
X111114Y163323D01*
X118230Y163323D01*
X118328Y163335D01*
X118427Y163338D01*
X118486Y163355D01*
X118546Y163363D01*
X118638Y163399D01*
X118733Y163427D01*
X118785Y163457D01*
X118841Y163480D01*
X118921Y163538D01*
X119007Y163588D01*
X119082Y163654D01*
X119099Y163666D01*
X119107Y163676D01*
X119128Y163694D01*
X122056Y166622D01*
X122116Y166701D01*
X122184Y166773D01*
X122213Y166826D01*
X122250Y166874D01*
X122290Y166965D01*
X122338Y167051D01*
X122353Y167110D01*
X122377Y167165D01*
X122392Y167263D01*
X122417Y167359D01*
X122423Y167459D01*
X122427Y167480D01*
X122425Y167492D01*
X122427Y167520D01*
X122427Y170649D01*
X122410Y170786D01*
X122397Y170925D01*
X122390Y170944D01*
X122387Y170964D01*
X122336Y171093D01*
X122289Y171225D01*
X122278Y171241D01*
X122270Y171260D01*
X122189Y171373D01*
X122111Y171488D01*
X122095Y171501D01*
X122084Y171517D01*
X121976Y171606D01*
X121872Y171698D01*
X121854Y171707D01*
X121839Y171720D01*
X121713Y171780D01*
X121589Y171843D01*
X121569Y171847D01*
X121551Y171856D01*
X121415Y171882D01*
X121279Y171912D01*
X121258Y171912D01*
X121239Y171916D01*
X121100Y171907D01*
X120961Y171903D01*
X120941Y171897D01*
X120921Y171896D01*
X120789Y171853D01*
X120655Y171814D01*
X120638Y171804D01*
X120619Y171798D01*
X120501Y171723D01*
X120381Y171653D01*
X120360Y171634D01*
X120350Y171628D01*
X120336Y171613D01*
X120261Y171546D01*
X117877Y169163D01*
X112018Y169163D01*
X112013Y169173D01*
X111987Y169208D01*
X111964Y169246D01*
X111897Y169327D01*
X111656Y169649D01*
X111502Y169806D01*
X111429Y169894D01*
X106679Y174643D01*
X106679Y178550D01*
X106670Y178681D01*
X106671Y178813D01*
X106650Y178978D01*
X106639Y179144D01*
X106613Y179274D01*
X106596Y179404D01*
X106553Y179565D01*
X106520Y179728D01*
X106477Y179853D01*
X106443Y179980D01*
X106379Y180134D01*
X106324Y180291D01*
X106264Y180408D01*
X106214Y180530D01*
X106130Y180674D01*
X106054Y180822D01*
X105979Y180931D01*
X105913Y181045D01*
X105840Y181132D01*
X105716Y181313D01*
X105445Y181611D01*
X105378Y181692D01*
X95078Y191992D01*
X94979Y192078D01*
X94887Y192172D01*
X94755Y192274D01*
X94630Y192384D01*
X94520Y192456D01*
X94416Y192537D01*
X94271Y192621D01*
X94133Y192712D01*
X94014Y192770D01*
X93900Y192836D01*
X93746Y192899D01*
X93596Y192972D01*
X93470Y193013D01*
X93349Y193063D01*
X93188Y193105D01*
X93029Y193157D01*
X92900Y193180D01*
X92772Y193214D01*
X92659Y193225D01*
X92443Y193264D01*
X92042Y193283D01*
X91936Y193293D01*
X68342Y193293D01*
X68153Y193281D01*
X67963Y193277D01*
X67856Y193261D01*
X67747Y193253D01*
X67561Y193215D01*
X67374Y193187D01*
X67270Y193156D01*
X67163Y193134D01*
X66984Y193072D01*
X66802Y193018D01*
X66703Y192974D01*
X66601Y192938D01*
X66432Y192852D01*
X66259Y192775D01*
X66166Y192718D01*
X66069Y192668D01*
X65913Y192561D01*
X65752Y192461D01*
X65668Y192392D01*
X65579Y192330D01*
X65521Y192277D01*
X64143Y192277D01*
X64045Y192265D01*
X63946Y192262D01*
X63888Y192245D01*
X63828Y192237D01*
X63736Y192201D01*
X63641Y192173D01*
X63588Y192143D01*
X63532Y192120D01*
X63452Y192062D01*
X63367Y192012D01*
X63291Y191946D01*
X63275Y191934D01*
X63267Y191924D01*
X63246Y191905D01*
X62738Y191397D01*
X62665Y191303D01*
X62586Y191214D01*
X62568Y191178D01*
X62543Y191146D01*
X62496Y191037D01*
X62441Y190931D01*
X62433Y190891D01*
X62417Y190854D01*
X62398Y190737D01*
X62372Y190621D01*
X62373Y190580D01*
X62367Y190540D01*
X62378Y190421D01*
X62382Y190303D01*
X62393Y190264D01*
X62397Y190224D01*
X62437Y190112D01*
X62470Y189997D01*
X62490Y189962D01*
X62504Y189924D01*
X62571Y189826D01*
X62632Y189723D01*
X62671Y189678D01*
X62683Y189661D01*
X62698Y189648D01*
X62738Y189602D01*
X62928Y189413D01*
X63474Y188594D01*
X50800Y188594D01*
X38126Y188594D01*
X38338Y188913D01*
X38344Y188920D01*
X38351Y188932D01*
X38672Y189413D01*
X38862Y189602D01*
X38935Y189697D01*
X39014Y189786D01*
X39032Y189822D01*
X39057Y189854D01*
X39104Y189963D01*
X39158Y190069D01*
X39167Y190108D01*
X39183Y190146D01*
X39202Y190263D01*
X39228Y190379D01*
X39227Y190420D01*
X39233Y190460D01*
X39222Y190578D01*
X39218Y190697D01*
X39207Y190736D01*
X39203Y190776D01*
X39163Y190888D01*
X39130Y191003D01*
X39110Y191037D01*
X39107Y191045D01*
X39108Y191089D01*
X39116Y191147D01*
X39115Y191386D01*
X39121Y191626D01*
X39115Y191684D01*
X39114Y191743D01*
X39082Y191980D01*
X39056Y192218D01*
X39041Y192275D01*
X39033Y192334D01*
X38999Y192446D01*
X38912Y192796D01*
X38822Y193023D01*
X38787Y193137D01*
X37845Y195410D01*
X37845Y198290D01*
X38947Y200951D01*
X40984Y202988D01*
X44218Y204327D01*
X44342Y204376D01*
X44540Y204445D01*
X44619Y204485D01*
X44700Y204517D01*
X44884Y204619D01*
X45072Y204715D01*
X45144Y204765D01*
X45221Y204807D01*
X45389Y204934D01*
X45562Y205053D01*
X45627Y205112D01*
X45698Y205165D01*
X45848Y205313D01*
X46003Y205454D01*
X46060Y205521D01*
X46122Y205583D01*
X46251Y205749D01*
X46386Y205910D01*
X46433Y205985D01*
X46487Y206054D01*
X46592Y206236D01*
X46705Y206414D01*
X46742Y206494D01*
X46786Y206570D01*
X46866Y206764D01*
X46954Y206956D01*
X46979Y207040D01*
X47013Y207121D01*
X47066Y207324D01*
X47127Y207526D01*
X47141Y207612D01*
X47164Y207697D01*
X47176Y207821D01*
X47223Y208114D01*
X47232Y208411D01*
X47243Y208534D01*
X47243Y221014D01*
X47234Y221146D01*
X47235Y221278D01*
X47214Y221443D01*
X47203Y221609D01*
X47177Y221738D01*
X47160Y221869D01*
X47117Y222030D01*
X47084Y222193D01*
X47041Y222317D01*
X47007Y222445D01*
X46943Y222598D01*
X46888Y222756D01*
X46828Y222873D01*
X46778Y222995D01*
X46694Y223139D01*
X46618Y223287D01*
X46543Y223395D01*
X46477Y223509D01*
X46404Y223597D01*
X46280Y223778D01*
X46009Y224075D01*
X45942Y224157D01*
X33217Y236881D01*
X33113Y236973D01*
X33015Y237071D01*
X32889Y237168D01*
X32769Y237273D01*
X32653Y237350D01*
X32543Y237435D01*
X32405Y237514D01*
X32272Y237602D01*
X32146Y237662D01*
X32026Y237732D01*
X31879Y237792D01*
X31735Y237861D01*
X31603Y237904D01*
X31474Y237957D01*
X31320Y237997D01*
X31168Y238046D01*
X31032Y238071D01*
X30898Y238106D01*
X30739Y238125D01*
X30582Y238154D01*
X30504Y238157D01*
X29715Y238947D01*
X29676Y238977D01*
X29642Y239014D01*
X29550Y239074D01*
X29464Y239142D01*
X29418Y239161D01*
X29377Y239189D01*
X29273Y239224D01*
X29172Y239268D01*
X29123Y239276D01*
X29076Y239292D01*
X28966Y239301D01*
X28858Y239318D01*
X28808Y239313D01*
X28759Y239317D01*
X28650Y239298D01*
X28541Y239288D01*
X28494Y239271D01*
X28445Y239263D01*
X28345Y239218D01*
X28242Y239181D01*
X28201Y239153D01*
X28155Y239132D01*
X28070Y239064D01*
X27979Y239002D01*
X27946Y238965D01*
X27907Y238934D01*
X27841Y238846D01*
X27768Y238763D01*
X27746Y238719D01*
X27716Y238680D01*
X27645Y238535D01*
X27139Y237315D01*
X26545Y236426D01*
X26544Y236424D01*
X26479Y236351D01*
X26270Y236063D01*
X25487Y235280D01*
X24927Y234873D01*
X24466Y234565D01*
X23850Y234251D01*
X23340Y234040D01*
X22681Y233825D01*
X22138Y233718D01*
X21454Y233609D01*
X20844Y233609D01*
X20844Y240650D01*
X20844Y247691D01*
X21593Y247691D01*
X21618Y247686D01*
X21703Y247680D01*
X21786Y247664D01*
X21860Y247669D01*
X21935Y247663D01*
X22019Y247678D01*
X22103Y247684D01*
X22174Y247707D01*
X22248Y247720D01*
X22325Y247756D01*
X22405Y247782D01*
X22469Y247822D01*
X22537Y247853D01*
X22603Y247907D01*
X22674Y247952D01*
X22726Y248007D01*
X22784Y248054D01*
X22834Y248122D01*
X22892Y248183D01*
X22928Y248249D01*
X22973Y248310D01*
X23005Y248388D01*
X23046Y248462D01*
X23064Y248535D01*
X23093Y248604D01*
X23104Y248688D01*
X23125Y248770D01*
X23134Y248910D01*
X23135Y248919D01*
X23135Y248923D01*
X23135Y248931D01*
X23135Y249320D01*
X23159Y249350D01*
X23294Y249511D01*
X23341Y249586D01*
X23395Y249655D01*
X23500Y249837D01*
X23613Y250015D01*
X23650Y250095D01*
X23694Y250171D01*
X23774Y250365D01*
X23862Y250557D01*
X23887Y250641D01*
X23921Y250722D01*
X23974Y250925D01*
X24035Y251127D01*
X24049Y251213D01*
X24072Y251298D01*
X24084Y251422D01*
X24131Y251715D01*
X24140Y252012D01*
X24151Y252135D01*
X24151Y306665D01*
X24145Y306753D01*
X24148Y306841D01*
X24125Y307050D01*
X24111Y307260D01*
X24094Y307346D01*
X24084Y307433D01*
X24034Y307637D01*
X23992Y307844D01*
X23963Y307927D01*
X23942Y308012D01*
X23865Y308208D01*
X23796Y308406D01*
X23756Y308485D01*
X23724Y308566D01*
X23622Y308750D01*
X23526Y308938D01*
X23476Y309010D01*
X23434Y309087D01*
X23307Y309255D01*
X23188Y309428D01*
X23135Y309486D01*
X23135Y309869D01*
X23125Y309953D01*
X23124Y310038D01*
X23105Y310110D01*
X23095Y310185D01*
X23064Y310263D01*
X23043Y310345D01*
X23006Y310411D01*
X22978Y310481D01*
X22929Y310549D01*
X22888Y310623D01*
X22836Y310677D01*
X22792Y310738D01*
X22726Y310792D01*
X22668Y310853D01*
X22605Y310893D01*
X22547Y310941D01*
X22470Y310977D01*
X22399Y311021D01*
X22327Y311044D01*
X22259Y311076D01*
X22176Y311092D01*
X22096Y311118D01*
X22020Y311122D01*
X21947Y311136D01*
X21862Y311131D01*
X21778Y311136D01*
X21638Y311117D01*
X21629Y311116D01*
X21626Y311115D01*
X21618Y311114D01*
X21593Y311109D01*
X20844Y311109D01*
X20844Y318150D01*
X20844Y325191D01*
X21454Y325191D01*
X21840Y325130D01*
X21951Y325120D01*
X22954Y324920D01*
X24208Y324400D01*
X24256Y324387D01*
X24301Y324366D01*
X24409Y324346D01*
X24515Y324317D01*
X24565Y324316D01*
X24614Y324306D01*
X24723Y324313D01*
X24833Y324311D01*
X24881Y324323D01*
X24931Y324326D01*
X25035Y324360D01*
X25142Y324386D01*
X25186Y324409D01*
X25233Y324424D01*
X25326Y324483D01*
X25423Y324534D01*
X25460Y324568D01*
X25502Y324594D01*
X25577Y324674D01*
X25659Y324748D01*
X25686Y324790D01*
X25720Y324826D01*
X25773Y324922D01*
X25833Y325014D01*
X25850Y325061D01*
X25874Y325104D01*
X25901Y325211D01*
X25937Y325315D01*
X25941Y325364D01*
X25953Y325412D01*
X25963Y325573D01*
X25963Y326703D01*
X26061Y326814D01*
X26138Y326930D01*
X26223Y327039D01*
X26303Y327177D01*
X26391Y327310D01*
X26452Y327435D01*
X26522Y327555D01*
X26582Y327703D01*
X26652Y327846D01*
X26696Y327978D01*
X26749Y328106D01*
X26789Y328260D01*
X26839Y328412D01*
X26865Y328548D01*
X26900Y328683D01*
X26910Y328793D01*
X26949Y328998D01*
X26970Y329421D01*
X26979Y329519D01*
X26979Y389271D01*
X27521Y390579D01*
X28521Y391579D01*
X29614Y392032D01*
X29752Y392100D01*
X29894Y392159D01*
X30019Y392232D01*
X30148Y392296D01*
X30276Y392382D01*
X30408Y392460D01*
X30488Y392526D01*
X30642Y392630D01*
X31000Y392949D01*
X31056Y392995D01*
X36544Y398483D01*
X36630Y398582D01*
X36724Y398674D01*
X36826Y398806D01*
X36936Y398932D01*
X37008Y399041D01*
X37089Y399146D01*
X37173Y399290D01*
X37264Y399429D01*
X37322Y399547D01*
X37388Y399661D01*
X37451Y399815D01*
X37524Y399965D01*
X37565Y400091D01*
X37615Y400212D01*
X37657Y400373D01*
X37709Y400532D01*
X37732Y400661D01*
X37766Y400789D01*
X37777Y400902D01*
X37816Y401118D01*
X37832Y401459D01*
X38947Y404151D01*
X40984Y406188D01*
X43645Y407290D01*
X57955Y407290D01*
X60616Y406188D01*
X62653Y404151D01*
X63755Y401490D01*
X63755Y398610D01*
X62813Y396337D01*
X62794Y396281D01*
X62770Y396228D01*
X62699Y395999D01*
X62623Y395772D01*
X62611Y395715D01*
X62594Y395658D01*
X62555Y395422D01*
X62509Y395187D01*
X62506Y395129D01*
X62496Y395070D01*
X62489Y394831D01*
X62475Y394592D01*
X62480Y394534D01*
X62478Y394475D01*
X62501Y394250D01*
X62496Y394237D01*
X62442Y394131D01*
X62433Y394092D01*
X62417Y394054D01*
X62398Y393937D01*
X62372Y393821D01*
X62373Y393780D01*
X62367Y393740D01*
X62378Y393622D01*
X62382Y393503D01*
X62393Y393464D01*
X62397Y393424D01*
X62437Y393311D01*
X62470Y393197D01*
X62490Y393163D01*
X62504Y393124D01*
X62571Y393026D01*
X62631Y392923D01*
X62671Y392878D01*
X62683Y392861D01*
X62698Y392848D01*
X62738Y392803D01*
X62928Y392613D01*
X63474Y391794D01*
X50800Y391794D01*
X50713Y391788D01*
X50625Y391791D01*
X50415Y391769D01*
X50206Y391754D01*
X50120Y391737D01*
X50032Y391728D01*
X49828Y391677D01*
X49622Y391635D01*
X49539Y391606D01*
X49453Y391585D01*
X49258Y391508D01*
X49059Y391439D01*
X48981Y391399D01*
X48899Y391367D01*
X48715Y391265D01*
X48528Y391169D01*
X48455Y391119D01*
X48379Y391077D01*
X48210Y390950D01*
X48037Y390831D01*
X47972Y390772D01*
X47902Y390719D01*
X47752Y390571D01*
X47596Y390430D01*
X47540Y390363D01*
X47477Y390301D01*
X47348Y390135D01*
X47213Y389974D01*
X47166Y389899D01*
X47112Y389830D01*
X47007Y389648D01*
X46894Y389470D01*
X46858Y389390D01*
X46814Y389314D01*
X46734Y389120D01*
X46646Y388928D01*
X46620Y388844D01*
X46587Y388763D01*
X46533Y388560D01*
X46472Y388358D01*
X46458Y388272D01*
X46436Y388187D01*
X46424Y388063D01*
X46376Y387770D01*
X46368Y387474D01*
X46356Y387350D01*
X46362Y387262D01*
X46360Y387175D01*
X46360Y387174D01*
X46382Y386965D01*
X46396Y386755D01*
X46414Y386669D01*
X46423Y386582D01*
X46473Y386377D01*
X46515Y386171D01*
X46544Y386088D01*
X46565Y386003D01*
X46642Y385807D01*
X46711Y385609D01*
X46751Y385530D01*
X46783Y385448D01*
X46886Y385265D01*
X46981Y385077D01*
X47031Y385005D01*
X47074Y384928D01*
X47200Y384760D01*
X47319Y384587D01*
X47378Y384522D01*
X47431Y384451D01*
X47579Y384301D01*
X47720Y384146D01*
X47788Y384089D01*
X47849Y384027D01*
X48016Y383898D01*
X48177Y383763D01*
X48251Y383716D01*
X48321Y383662D01*
X48502Y383556D01*
X48680Y383444D01*
X48760Y383407D01*
X48836Y383363D01*
X49031Y383283D01*
X49222Y383195D01*
X49306Y383170D01*
X49387Y383136D01*
X49591Y383083D01*
X49792Y383021D01*
X49879Y383007D01*
X49964Y382985D01*
X50087Y382973D01*
X50380Y382925D01*
X50677Y382917D01*
X50800Y382906D01*
X63474Y382906D01*
X63262Y382587D01*
X63256Y382580D01*
X63249Y382568D01*
X62928Y382087D01*
X62738Y381897D01*
X62665Y381803D01*
X62586Y381714D01*
X62568Y381678D01*
X62543Y381646D01*
X62496Y381537D01*
X62442Y381431D01*
X62433Y381392D01*
X62417Y381354D01*
X62398Y381237D01*
X62372Y381121D01*
X62373Y381080D01*
X62367Y381040D01*
X62378Y380922D01*
X62382Y380803D01*
X62393Y380764D01*
X62397Y380724D01*
X62437Y380612D01*
X62470Y380497D01*
X62490Y380462D01*
X62493Y380455D01*
X62492Y380411D01*
X62484Y380353D01*
X62485Y380114D01*
X62479Y379874D01*
X62485Y379816D01*
X62486Y379757D01*
X62518Y379520D01*
X62544Y379282D01*
X62559Y379225D01*
X62567Y379166D01*
X62601Y379054D01*
X62688Y378704D01*
X62778Y378477D01*
X62813Y378363D01*
X63755Y376090D01*
X63755Y373210D01*
X62425Y370001D01*
X62383Y369876D01*
X62332Y369755D01*
X62288Y369594D01*
X62235Y369436D01*
X62210Y369307D01*
X62175Y369180D01*
X62153Y369014D01*
X62121Y368851D01*
X62114Y368720D01*
X62097Y368589D01*
X62097Y368422D01*
X62087Y368256D01*
X62097Y368125D01*
X62098Y367993D01*
X62120Y367828D01*
X62133Y367662D01*
X62161Y367533D01*
X62179Y367403D01*
X62212Y367294D01*
X62258Y367079D01*
X62302Y366956D01*
X62313Y366912D01*
X62372Y366763D01*
X62394Y366700D01*
X62425Y366599D01*
X63755Y363390D01*
X63755Y360510D01*
X62653Y357849D01*
X60616Y355812D01*
X57955Y354710D01*
X43645Y354710D01*
X40238Y356122D01*
X40175Y356143D01*
X40115Y356170D01*
X39893Y356238D01*
X39673Y356312D01*
X39608Y356325D01*
X39545Y356344D01*
X39316Y356381D01*
X39088Y356426D01*
X39022Y356429D01*
X38957Y356440D01*
X38919Y356441D01*
X38086Y357273D01*
X37551Y358566D01*
X37516Y358627D01*
X37490Y358692D01*
X37438Y358765D01*
X37393Y358843D01*
X37345Y358893D01*
X37304Y358949D01*
X37234Y359007D01*
X37172Y359071D01*
X37112Y359107D01*
X37059Y359152D01*
X36977Y359190D01*
X36901Y359237D01*
X36834Y359258D01*
X36771Y359288D01*
X36683Y359304D01*
X36597Y359331D01*
X36527Y359334D01*
X36458Y359347D01*
X36369Y359342D01*
X36279Y359346D01*
X36211Y359332D01*
X36141Y359328D01*
X36056Y359300D01*
X35968Y359282D01*
X35905Y359251D01*
X35839Y359230D01*
X35763Y359182D01*
X35682Y359142D01*
X35629Y359097D01*
X35570Y359059D01*
X35508Y358994D01*
X35440Y358936D01*
X35400Y358879D01*
X35352Y358828D01*
X35309Y358749D01*
X35257Y358676D01*
X35232Y358610D01*
X35198Y358549D01*
X35176Y358462D01*
X35144Y358378D01*
X35136Y358309D01*
X35119Y358241D01*
X35109Y358081D01*
X35109Y354831D01*
X35072Y354783D01*
X34924Y354604D01*
X34889Y354548D01*
X34849Y354495D01*
X34732Y354294D01*
X34610Y354097D01*
X34583Y354037D01*
X34550Y353980D01*
X34462Y353765D01*
X34367Y353553D01*
X34348Y353490D01*
X34323Y353429D01*
X34264Y353204D01*
X34199Y352981D01*
X34189Y352916D01*
X34172Y352852D01*
X34161Y352732D01*
X34109Y352392D01*
X34104Y352136D01*
X34093Y352016D01*
X34093Y326056D01*
X34096Y326012D01*
X34094Y325968D01*
X34116Y325714D01*
X34133Y325461D01*
X34141Y325418D01*
X34145Y325374D01*
X34201Y325126D01*
X34252Y324877D01*
X34266Y324836D01*
X34276Y324793D01*
X34364Y324555D01*
X34448Y324315D01*
X34468Y324275D01*
X34483Y324234D01*
X34603Y324010D01*
X34718Y323783D01*
X34743Y323747D01*
X34763Y323708D01*
X34912Y323502D01*
X35056Y323293D01*
X35086Y323260D01*
X35109Y323228D01*
X35109Y312041D01*
X32652Y309585D01*
X32592Y309506D01*
X32524Y309434D01*
X32495Y309381D01*
X32458Y309333D01*
X32418Y309242D01*
X32370Y309156D01*
X32355Y309097D01*
X32331Y309042D01*
X32316Y308944D01*
X32291Y308848D01*
X32285Y308748D01*
X32281Y308727D01*
X32283Y308715D01*
X32281Y308687D01*
X32281Y249840D01*
X32293Y249742D01*
X32296Y249643D01*
X32313Y249585D01*
X32321Y249525D01*
X32357Y249433D01*
X32385Y249338D01*
X32415Y249285D01*
X32438Y249229D01*
X32496Y249149D01*
X32546Y249064D01*
X32612Y248988D01*
X32624Y248972D01*
X32634Y248964D01*
X32652Y248943D01*
X37345Y244250D01*
X37384Y244220D01*
X37418Y244183D01*
X37509Y244123D01*
X37596Y244055D01*
X37642Y244036D01*
X37683Y244008D01*
X37787Y243973D01*
X37888Y243929D01*
X37937Y243921D01*
X37984Y243905D01*
X38094Y243896D01*
X38202Y243879D01*
X38252Y243884D01*
X38301Y243880D01*
X38409Y243899D01*
X38519Y243909D01*
X38566Y243926D01*
X38615Y243934D01*
X38715Y243979D01*
X38818Y244017D01*
X38859Y244044D01*
X38905Y244065D01*
X38990Y244133D01*
X39081Y244195D01*
X39114Y244232D01*
X39153Y244263D01*
X39219Y244351D01*
X39292Y244434D01*
X39314Y244478D01*
X39344Y244518D01*
X39415Y244662D01*
X39554Y244997D01*
X39586Y245112D01*
X39624Y245225D01*
X39627Y245265D01*
X39638Y245304D01*
X39640Y245423D01*
X39649Y245542D01*
X39642Y245582D01*
X39643Y245622D01*
X39615Y245738D01*
X39595Y245855D01*
X39578Y245892D01*
X39569Y245931D01*
X39513Y246037D01*
X39464Y246145D01*
X39439Y246177D01*
X39420Y246213D01*
X39340Y246301D01*
X39266Y246394D01*
X39233Y246418D01*
X39206Y246448D01*
X39107Y246513D01*
X39012Y246585D01*
X38958Y246611D01*
X38941Y246623D01*
X38921Y246629D01*
X38867Y246656D01*
X38756Y246702D01*
X36202Y249256D01*
X34819Y252594D01*
X34819Y256206D01*
X36202Y259544D01*
X38756Y262098D01*
X42094Y263481D01*
X44090Y263481D01*
X44208Y263496D01*
X44327Y263503D01*
X44365Y263516D01*
X44406Y263521D01*
X44516Y263564D01*
X44629Y263601D01*
X44664Y263623D01*
X44701Y263638D01*
X44797Y263707D01*
X44898Y263771D01*
X44926Y263801D01*
X44959Y263824D01*
X45035Y263916D01*
X45116Y264003D01*
X45136Y264038D01*
X45161Y264069D01*
X45212Y264177D01*
X45270Y264281D01*
X45280Y264321D01*
X45297Y264357D01*
X45319Y264474D01*
X45349Y264589D01*
X45353Y264649D01*
X45357Y264669D01*
X45355Y264690D01*
X45359Y264750D01*
X45359Y265131D01*
X53131Y265131D01*
X53131Y261609D01*
X52597Y261609D01*
X52459Y261592D01*
X52320Y261579D01*
X52301Y261572D01*
X52282Y261569D01*
X52152Y261518D01*
X52021Y261471D01*
X52005Y261460D01*
X51986Y261452D01*
X51873Y261371D01*
X51758Y261292D01*
X51745Y261277D01*
X51728Y261266D01*
X51640Y261158D01*
X51548Y261054D01*
X51539Y261036D01*
X51526Y261021D01*
X51466Y260895D01*
X51403Y260771D01*
X51399Y260751D01*
X51390Y260733D01*
X51364Y260597D01*
X51334Y260460D01*
X51334Y260440D01*
X51330Y260421D01*
X51339Y260282D01*
X51343Y260143D01*
X51349Y260123D01*
X51350Y260103D01*
X51393Y259971D01*
X51432Y259837D01*
X51442Y259820D01*
X51448Y259801D01*
X51523Y259683D01*
X51583Y259580D01*
X52981Y256206D01*
X52981Y252594D01*
X52372Y251125D01*
X52370Y251116D01*
X52365Y251108D01*
X52328Y250963D01*
X52288Y250818D01*
X52288Y250809D01*
X52286Y250800D01*
X52276Y250639D01*
X52276Y246044D01*
X52128Y245969D01*
X52055Y245919D01*
X51979Y245877D01*
X51810Y245750D01*
X51637Y245631D01*
X51572Y245572D01*
X51502Y245519D01*
X51352Y245371D01*
X51196Y245230D01*
X51140Y245163D01*
X51077Y245101D01*
X50948Y244935D01*
X50813Y244774D01*
X50766Y244699D01*
X50712Y244630D01*
X50607Y244448D01*
X50494Y244270D01*
X50458Y244190D01*
X50414Y244114D01*
X50334Y243920D01*
X50246Y243728D01*
X50220Y243644D01*
X50187Y243563D01*
X50133Y243360D01*
X50072Y243158D01*
X50058Y243072D01*
X50036Y242987D01*
X50024Y242863D01*
X49976Y242570D01*
X49968Y242274D01*
X49956Y242150D01*
X49962Y242062D01*
X49960Y241975D01*
X49960Y241974D01*
X49982Y241765D01*
X49996Y241555D01*
X50014Y241469D01*
X50023Y241382D01*
X50073Y241177D01*
X50115Y240971D01*
X50144Y240888D01*
X50165Y240803D01*
X50242Y240607D01*
X50311Y240409D01*
X50351Y240330D01*
X50383Y240248D01*
X50486Y240065D01*
X50581Y239877D01*
X50631Y239805D01*
X50674Y239728D01*
X50800Y239560D01*
X50919Y239387D01*
X50978Y239322D01*
X51031Y239251D01*
X51179Y239101D01*
X51320Y238946D01*
X51388Y238889D01*
X51449Y238827D01*
X51616Y238698D01*
X51777Y238563D01*
X51851Y238516D01*
X51921Y238462D01*
X52102Y238356D01*
X52276Y238247D01*
X52276Y233234D01*
X51425Y233234D01*
X51288Y233217D01*
X51149Y233204D01*
X51130Y233197D01*
X51110Y233194D01*
X50981Y233143D01*
X50850Y233096D01*
X50833Y233085D01*
X50814Y233077D01*
X50702Y232996D01*
X50586Y232918D01*
X50573Y232902D01*
X50557Y232891D01*
X50468Y232783D01*
X50376Y232679D01*
X50367Y232661D01*
X50354Y232646D01*
X50295Y232520D01*
X50231Y232396D01*
X50227Y232376D01*
X50218Y232358D01*
X50192Y232222D01*
X50162Y232086D01*
X50162Y232065D01*
X50159Y232046D01*
X50167Y231907D01*
X50171Y231768D01*
X50177Y231748D01*
X50178Y231728D01*
X50221Y231596D01*
X50260Y231462D01*
X50270Y231445D01*
X50276Y231426D01*
X50351Y231308D01*
X50421Y231188D01*
X50440Y231167D01*
X50447Y231157D01*
X50462Y231143D01*
X50528Y231068D01*
X53189Y228406D01*
X53210Y228253D01*
X53235Y228022D01*
X53251Y227958D01*
X53259Y227893D01*
X53295Y227778D01*
X53377Y227443D01*
X53471Y227205D01*
X53506Y227089D01*
X54357Y225036D01*
X54357Y208534D01*
X54363Y208446D01*
X54360Y208358D01*
X54383Y208149D01*
X54397Y207939D01*
X54414Y207853D01*
X54424Y207766D01*
X54474Y207562D01*
X54516Y207355D01*
X54545Y207272D01*
X54566Y207187D01*
X54643Y206991D01*
X54712Y206793D01*
X54752Y206714D01*
X54784Y206633D01*
X54886Y206449D01*
X54982Y206261D01*
X55032Y206189D01*
X55074Y206112D01*
X55201Y205944D01*
X55320Y205771D01*
X55379Y205706D01*
X55432Y205635D01*
X55580Y205485D01*
X55721Y205330D01*
X55788Y205273D01*
X55850Y205211D01*
X56016Y205082D01*
X56177Y204947D01*
X56252Y204900D01*
X56321Y204846D01*
X56503Y204741D01*
X56681Y204628D01*
X56761Y204591D01*
X56837Y204547D01*
X57031Y204467D01*
X57223Y204379D01*
X57307Y204354D01*
X57388Y204320D01*
X57416Y204313D01*
X60616Y202988D01*
X61895Y201708D01*
X61994Y201622D01*
X62087Y201528D01*
X62218Y201426D01*
X62344Y201316D01*
X62454Y201244D01*
X62558Y201163D01*
X62702Y201079D01*
X62841Y200988D01*
X62959Y200930D01*
X63074Y200864D01*
X63228Y200801D01*
X63378Y200728D01*
X63503Y200688D01*
X63625Y200637D01*
X63785Y200595D01*
X63944Y200543D01*
X64074Y200520D01*
X64201Y200486D01*
X64314Y200475D01*
X64530Y200436D01*
X64932Y200417D01*
X65038Y200407D01*
X95957Y200407D01*
X97265Y199865D01*
X110408Y186722D01*
X110507Y186636D01*
X110599Y186542D01*
X110731Y186440D01*
X110856Y186330D01*
X110966Y186258D01*
X111070Y186177D01*
X111215Y186093D01*
X111353Y186002D01*
X111472Y185944D01*
X111586Y185878D01*
X111740Y185815D01*
X111890Y185742D01*
X112016Y185701D01*
X112137Y185651D01*
X112298Y185609D01*
X112457Y185557D01*
X112586Y185534D01*
X112714Y185500D01*
X112827Y185489D01*
X113043Y185450D01*
X113444Y185431D01*
X113550Y185421D01*
X116923Y185421D01*
X116967Y185424D01*
X117010Y185422D01*
X117264Y185444D01*
X117517Y185461D01*
X117560Y185469D01*
X117604Y185473D01*
X117852Y185529D01*
X118101Y185580D01*
X118143Y185594D01*
X118186Y185604D01*
X118424Y185693D01*
X118571Y185744D01*
X121792Y182522D01*
X121886Y182449D01*
X121975Y182370D01*
X122011Y182352D01*
X122043Y182327D01*
X122153Y182280D01*
X122259Y182226D01*
X122298Y182217D01*
X122335Y182201D01*
X122453Y182182D01*
X122569Y182156D01*
X122609Y182157D01*
X122649Y182151D01*
X122768Y182162D01*
X122887Y182166D01*
X122926Y182177D01*
X122966Y182181D01*
X123078Y182221D01*
X123192Y182254D01*
X123227Y182275D01*
X123265Y182288D01*
X123364Y182355D01*
X123466Y182416D01*
X123511Y182456D01*
X123528Y182467D01*
X123542Y182482D01*
X123587Y182522D01*
X125478Y184413D01*
X127111Y186047D01*
X127197Y186156D01*
X127285Y186263D01*
X127294Y186282D01*
X127306Y186298D01*
X127362Y186426D01*
X127421Y186551D01*
X127424Y186571D01*
X127433Y186590D01*
X127454Y186728D01*
X127480Y186864D01*
X127479Y186884D01*
X127482Y186904D01*
X127469Y187043D01*
X127461Y187181D01*
X127455Y187200D01*
X127453Y187220D01*
X127405Y187352D01*
X127363Y187483D01*
X127352Y187501D01*
X127345Y187520D01*
X127267Y187635D01*
X127193Y187752D01*
X127178Y187766D01*
X127166Y187783D01*
X127062Y187875D01*
X126961Y187970D01*
X126943Y187980D01*
X126928Y187993D01*
X126804Y188057D01*
X126682Y188124D01*
X126663Y188129D01*
X126645Y188138D01*
X126509Y188168D01*
X126374Y188203D01*
X126346Y188205D01*
X126334Y188208D01*
X126314Y188207D01*
X126214Y188213D01*
X123423Y188213D01*
X121337Y190298D01*
X121327Y190380D01*
X121300Y190633D01*
X121289Y190676D01*
X121284Y190719D01*
X121218Y190965D01*
X121158Y191212D01*
X121142Y191253D01*
X121130Y191295D01*
X121032Y191530D01*
X120940Y191766D01*
X120918Y191805D01*
X120901Y191845D01*
X120773Y192065D01*
X120649Y192287D01*
X120623Y192322D01*
X120600Y192360D01*
X120533Y192441D01*
X120292Y192763D01*
X120138Y192920D01*
X120065Y193008D01*
X119379Y193693D01*
X119379Y200007D01*
X123843Y204471D01*
X130157Y204471D01*
X134621Y200007D01*
X134621Y198501D01*
X134627Y198413D01*
X134624Y198325D01*
X134647Y198116D01*
X134661Y197906D01*
X134678Y197820D01*
X134688Y197733D01*
X134738Y197529D01*
X134780Y197322D01*
X134809Y197239D01*
X134830Y197154D01*
X134907Y196958D01*
X134976Y196760D01*
X135016Y196681D01*
X135048Y196600D01*
X135150Y196416D01*
X135246Y196228D01*
X135296Y196156D01*
X135338Y196079D01*
X135465Y195911D01*
X135584Y195738D01*
X135643Y195673D01*
X135696Y195602D01*
X135844Y195452D01*
X135985Y195297D01*
X136052Y195240D01*
X136114Y195178D01*
X136280Y195049D01*
X136441Y194914D01*
X136516Y194867D01*
X136585Y194813D01*
X136767Y194708D01*
X136945Y194595D01*
X137025Y194558D01*
X137101Y194514D01*
X137295Y194434D01*
X137487Y194346D01*
X137571Y194321D01*
X137652Y194287D01*
X137855Y194234D01*
X138057Y194173D01*
X138143Y194159D01*
X138228Y194136D01*
X138352Y194124D01*
X138645Y194077D01*
X138942Y194068D01*
X139065Y194057D01*
X165807Y194057D01*
X167115Y193515D01*
X173908Y186722D01*
X174007Y186636D01*
X174099Y186542D01*
X174231Y186440D01*
X174356Y186330D01*
X174466Y186258D01*
X174570Y186177D01*
X174715Y186093D01*
X174853Y186002D01*
X174972Y185944D01*
X175086Y185878D01*
X175240Y185815D01*
X175390Y185742D01*
X175516Y185701D01*
X175637Y185651D01*
X175798Y185609D01*
X175957Y185557D01*
X176086Y185534D01*
X176214Y185500D01*
X176327Y185489D01*
X176543Y185450D01*
X176944Y185431D01*
X177050Y185421D01*
X180423Y185421D01*
X180467Y185424D01*
X180510Y185422D01*
X180764Y185444D01*
X181017Y185461D01*
X181060Y185469D01*
X181104Y185473D01*
X181352Y185529D01*
X181601Y185580D01*
X181643Y185594D01*
X181686Y185604D01*
X181924Y185693D01*
X182071Y185744D01*
X186437Y181377D01*
X186437Y174223D01*
X181377Y169163D01*
X176156Y169163D01*
X176058Y169151D01*
X175959Y169148D01*
X175900Y169131D01*
X175840Y169123D01*
X175748Y169087D01*
X175653Y169059D01*
X175601Y169029D01*
X175545Y169006D01*
X175465Y168948D01*
X175379Y168898D01*
X175304Y168832D01*
X175287Y168820D01*
X175279Y168810D01*
X175258Y168792D01*
X159351Y152884D01*
X159308Y152829D01*
X159258Y152780D01*
X159211Y152704D01*
X159156Y152633D01*
X159128Y152569D01*
X159092Y152509D01*
X159065Y152424D01*
X159030Y152341D01*
X159019Y152272D01*
X158998Y152205D01*
X158994Y152116D01*
X158980Y152027D01*
X158986Y151957D01*
X158983Y151888D01*
X159001Y151800D01*
X159010Y151710D01*
X159033Y151644D01*
X159047Y151576D01*
X159087Y151496D01*
X159117Y151411D01*
X159156Y151353D01*
X159187Y151291D01*
X159245Y151222D01*
X159296Y151148D01*
X159348Y151102D01*
X159393Y151049D01*
X159467Y150997D01*
X159534Y150937D01*
X159596Y150906D01*
X159653Y150865D01*
X159737Y150834D01*
X159817Y150793D01*
X159886Y150777D01*
X159951Y150753D01*
X160040Y150743D01*
X160128Y150723D01*
X160197Y150725D01*
X160267Y150717D01*
X160356Y150730D01*
X160446Y150733D01*
X160513Y150752D01*
X160582Y150762D01*
X160734Y150814D01*
X162725Y151639D01*
X167475Y151639D01*
X171863Y149821D01*
X175221Y146463D01*
X176627Y143068D01*
X176696Y142947D01*
X176761Y142824D01*
X176775Y142809D01*
X176785Y142792D01*
X176882Y142692D01*
X176975Y142589D01*
X176992Y142578D01*
X177006Y142563D01*
X177124Y142491D01*
X177241Y142414D01*
X177260Y142408D01*
X177277Y142397D01*
X177410Y142356D01*
X177542Y142311D01*
X177562Y142309D01*
X177581Y142303D01*
X177720Y142297D01*
X177859Y142286D01*
X177879Y142289D01*
X177899Y142288D01*
X178035Y142316D01*
X178172Y142340D01*
X178191Y142348D01*
X178210Y142353D01*
X178335Y142414D01*
X178462Y142471D01*
X178478Y142483D01*
X178496Y142492D01*
X178602Y142583D01*
X178710Y142669D01*
X178723Y142685D01*
X178738Y142699D01*
X178818Y142812D01*
X178902Y142923D01*
X178914Y142949D01*
X178921Y142959D01*
X178928Y142978D01*
X178973Y143068D01*
X180379Y146463D01*
X183737Y149821D01*
X185144Y150404D01*
X185169Y150418D01*
X185197Y150427D01*
X185307Y150497D01*
X185420Y150561D01*
X185441Y150582D01*
X185466Y150598D01*
X185555Y150692D01*
X185648Y150783D01*
X185664Y150808D01*
X185684Y150829D01*
X185747Y150943D01*
X185815Y151054D01*
X185823Y151082D01*
X185838Y151108D01*
X185870Y151234D01*
X185908Y151358D01*
X185910Y151387D01*
X185917Y151416D01*
X185927Y151576D01*
X185927Y166994D01*
X188977Y170044D01*
X188978Y170044D01*
X194192Y175258D01*
X194252Y175337D01*
X194320Y175409D01*
X194349Y175462D01*
X194386Y175510D01*
X194426Y175601D01*
X194474Y175687D01*
X194489Y175746D01*
X194513Y175801D01*
X194528Y175899D01*
X194553Y175995D01*
X194559Y176095D01*
X194563Y176116D01*
X194561Y176128D01*
X194563Y176156D01*
X194563Y181377D01*
X199623Y186437D01*
X206777Y186437D01*
X211837Y181377D01*
X211837Y174223D01*
X206777Y169163D01*
X201556Y169163D01*
X201458Y169151D01*
X201359Y169148D01*
X201300Y169131D01*
X201240Y169123D01*
X201148Y169087D01*
X201053Y169059D01*
X201001Y169029D01*
X200945Y169006D01*
X200865Y168948D01*
X200779Y168898D01*
X200704Y168832D01*
X200687Y168820D01*
X200679Y168810D01*
X200658Y168792D01*
X195444Y163578D01*
X195384Y163499D01*
X195316Y163427D01*
X195287Y163374D01*
X195250Y163326D01*
X195210Y163235D01*
X195162Y163149D01*
X195147Y163090D01*
X195123Y163035D01*
X195108Y162937D01*
X195083Y162841D01*
X195077Y162741D01*
X195073Y162720D01*
X195075Y162708D01*
X195073Y162680D01*
X195073Y151576D01*
X195076Y151547D01*
X195074Y151518D01*
X195096Y151390D01*
X195113Y151261D01*
X195123Y151233D01*
X195128Y151204D01*
X195182Y151086D01*
X195230Y150965D01*
X195247Y150941D01*
X195259Y150914D01*
X195340Y150813D01*
X195416Y150708D01*
X195439Y150689D01*
X195458Y150666D01*
X195561Y150588D01*
X195661Y150505D01*
X195688Y150492D01*
X195712Y150475D01*
X195856Y150404D01*
X197263Y149821D01*
X200621Y146463D01*
X202439Y142075D01*
X202439Y137325D01*
X200678Y133074D01*
X200665Y133026D01*
X200643Y132981D01*
X200623Y132873D01*
X200594Y132767D01*
X200593Y132717D01*
X200584Y132668D01*
X200590Y132559D01*
X200589Y132449D01*
X200600Y132401D01*
X200603Y132351D01*
X200637Y132247D01*
X200663Y132140D01*
X200686Y132096D01*
X200701Y132049D01*
X200760Y131956D01*
X200812Y131859D01*
X200845Y131822D01*
X200872Y131780D01*
X200952Y131705D01*
X201026Y131623D01*
X201067Y131596D01*
X201103Y131562D01*
X201199Y131509D01*
X201291Y131449D01*
X201338Y131432D01*
X201382Y131408D01*
X201488Y131381D01*
X201592Y131345D01*
X201642Y131341D01*
X201690Y131329D01*
X201850Y131319D01*
X255350Y131319D01*
X255399Y131325D01*
X255449Y131323D01*
X255556Y131345D01*
X255665Y131359D01*
X255711Y131377D01*
X255760Y131387D01*
X255859Y131435D01*
X255961Y131476D01*
X256001Y131505D01*
X256046Y131527D01*
X256129Y131598D01*
X256218Y131662D01*
X256250Y131701D01*
X256288Y131733D01*
X256351Y131823D01*
X256421Y131907D01*
X256442Y131952D01*
X256471Y131993D01*
X256510Y132096D01*
X256557Y132195D01*
X256566Y132244D01*
X256584Y132290D01*
X256596Y132400D01*
X256616Y132507D01*
X256613Y132557D01*
X256619Y132606D01*
X256603Y132715D01*
X256597Y132825D01*
X256581Y132872D01*
X256574Y132921D01*
X256522Y133074D01*
X254761Y137325D01*
X254761Y142075D01*
X256579Y146463D01*
X259937Y149821D01*
X264325Y151639D01*
X269075Y151639D01*
X273463Y149821D01*
X276821Y146463D01*
X278227Y143068D01*
X278296Y142947D01*
X278361Y142824D01*
X278375Y142809D01*
X278385Y142792D01*
X278482Y142692D01*
X278575Y142589D01*
X278592Y142578D01*
X278606Y142563D01*
X278724Y142491D01*
X278841Y142414D01*
X278860Y142408D01*
X278877Y142397D01*
X279010Y142356D01*
X279142Y142311D01*
X279162Y142309D01*
X279181Y142303D01*
X279320Y142297D01*
X279459Y142286D01*
X279479Y142289D01*
X279499Y142288D01*
X279635Y142316D01*
X279772Y142340D01*
X279791Y142348D01*
X279810Y142353D01*
X279935Y142414D01*
X280062Y142471D01*
X280078Y142483D01*
X280096Y142492D01*
X280202Y142583D01*
X280310Y142669D01*
X280323Y142685D01*
X280338Y142699D01*
X280418Y142812D01*
X280502Y142923D01*
X280514Y142949D01*
X280521Y142959D01*
X280528Y142978D01*
X280573Y143068D01*
X281979Y146463D01*
X285337Y149821D01*
X285615Y149936D01*
X285658Y149961D01*
X285705Y149978D01*
X285737Y149999D01*
X285737Y150000D01*
X285740Y150001D01*
X285796Y150039D01*
X285891Y150094D01*
X285927Y150128D01*
X285968Y150156D01*
X285995Y150186D01*
X285996Y150188D01*
X286041Y150238D01*
X286120Y150315D01*
X286146Y150358D01*
X286179Y150395D01*
X286197Y150431D01*
X286198Y150431D01*
X286201Y150439D01*
X286229Y150493D01*
X286286Y150586D01*
X286301Y150634D01*
X286323Y150678D01*
X286332Y150716D01*
X286333Y150719D01*
X286337Y150741D01*
X286347Y150785D01*
X286380Y150890D01*
X286382Y150940D01*
X286393Y150988D01*
X286392Y151025D01*
X286393Y151031D01*
X286390Y151076D01*
X286389Y151098D01*
X286395Y151208D01*
X286385Y151256D01*
X286383Y151306D01*
X286374Y151338D01*
X286373Y151349D01*
X286352Y151413D01*
X286330Y151519D01*
X286309Y151564D01*
X286295Y151612D01*
X286280Y151637D01*
X286275Y151651D01*
X286234Y151716D01*
X286191Y151805D01*
X286158Y151843D01*
X286133Y151886D01*
X286111Y151911D01*
X286105Y151920D01*
X286092Y151932D01*
X286027Y152006D01*
X269242Y168792D01*
X269163Y168852D01*
X269091Y168920D01*
X269038Y168949D01*
X268990Y168986D01*
X268899Y169026D01*
X268813Y169074D01*
X268754Y169089D01*
X268699Y169113D01*
X268601Y169128D01*
X268505Y169153D01*
X268405Y169159D01*
X268384Y169163D01*
X268372Y169161D01*
X268344Y169163D01*
X263123Y169163D01*
X258063Y174223D01*
X258063Y180848D01*
X258048Y180966D01*
X258041Y181085D01*
X258028Y181123D01*
X258023Y181164D01*
X257980Y181274D01*
X257943Y181387D01*
X257921Y181422D01*
X257906Y181459D01*
X257837Y181555D01*
X257773Y181656D01*
X257743Y181684D01*
X257720Y181717D01*
X257628Y181793D01*
X257541Y181874D01*
X257506Y181894D01*
X257475Y181919D01*
X257367Y181970D01*
X257263Y182028D01*
X257223Y182038D01*
X257187Y182055D01*
X257070Y182077D01*
X256955Y182107D01*
X256895Y182111D01*
X256875Y182115D01*
X256854Y182113D01*
X256794Y182117D01*
X252610Y182117D01*
X252512Y182105D01*
X252413Y182102D01*
X252354Y182085D01*
X252294Y182077D01*
X252202Y182041D01*
X252107Y182013D01*
X252055Y181983D01*
X251999Y181960D01*
X251919Y181902D01*
X251833Y181852D01*
X251758Y181786D01*
X251741Y181774D01*
X251733Y181764D01*
X251712Y181746D01*
X250308Y180342D01*
X250248Y180263D01*
X250180Y180191D01*
X250151Y180138D01*
X250114Y180090D01*
X250074Y180000D01*
X250026Y179913D01*
X250011Y179854D01*
X249987Y179799D01*
X249972Y179701D01*
X249947Y179605D01*
X249941Y179505D01*
X249937Y179484D01*
X249939Y179472D01*
X249937Y179444D01*
X249937Y174223D01*
X244877Y169163D01*
X237723Y169163D01*
X232663Y174223D01*
X232663Y181377D01*
X237723Y186437D01*
X242944Y186437D01*
X243042Y186449D01*
X243141Y186452D01*
X243200Y186469D01*
X243260Y186477D01*
X243352Y186513D01*
X243447Y186541D01*
X243499Y186571D01*
X243555Y186594D01*
X243635Y186652D01*
X243721Y186702D01*
X243796Y186768D01*
X243813Y186780D01*
X243821Y186790D01*
X243842Y186808D01*
X246937Y189904D01*
X247010Y189998D01*
X247089Y190087D01*
X247107Y190123D01*
X247132Y190155D01*
X247179Y190265D01*
X247233Y190370D01*
X247242Y190410D01*
X247258Y190447D01*
X247277Y190565D01*
X247303Y190681D01*
X247302Y190721D01*
X247308Y190761D01*
X247297Y190880D01*
X247293Y190999D01*
X247282Y191037D01*
X247278Y191078D01*
X247238Y191190D01*
X247205Y191304D01*
X247184Y191339D01*
X247171Y191377D01*
X247104Y191476D01*
X247043Y191578D01*
X247004Y191623D01*
X246992Y191640D01*
X246977Y191654D01*
X246937Y191699D01*
X245363Y193273D01*
X245363Y198494D01*
X245351Y198592D01*
X245348Y198691D01*
X245331Y198750D01*
X245323Y198810D01*
X245287Y198902D01*
X245259Y198997D01*
X245229Y199049D01*
X245206Y199105D01*
X245148Y199186D01*
X245098Y199271D01*
X245032Y199346D01*
X245020Y199363D01*
X245010Y199371D01*
X244992Y199392D01*
X233428Y210956D01*
X233349Y211016D01*
X233277Y211084D01*
X233224Y211113D01*
X233176Y211150D01*
X233085Y211190D01*
X232999Y211238D01*
X232940Y211253D01*
X232885Y211277D01*
X232787Y211292D01*
X232691Y211317D01*
X232591Y211323D01*
X232570Y211327D01*
X232558Y211325D01*
X232530Y211327D01*
X202376Y211327D01*
X202347Y211324D01*
X202318Y211326D01*
X202190Y211304D01*
X202061Y211287D01*
X202033Y211277D01*
X202004Y211272D01*
X201886Y211218D01*
X201765Y211170D01*
X201741Y211153D01*
X201714Y211141D01*
X201613Y211060D01*
X201508Y210984D01*
X201489Y210961D01*
X201466Y210942D01*
X201388Y210839D01*
X201305Y210739D01*
X201292Y210712D01*
X201275Y210688D01*
X201204Y210544D01*
X200621Y209137D01*
X197263Y205779D01*
X196559Y205487D01*
X196516Y205463D01*
X196469Y205446D01*
X196378Y205384D01*
X196283Y205330D01*
X196247Y205295D01*
X196206Y205267D01*
X196133Y205185D01*
X196054Y205108D01*
X196028Y205066D01*
X195995Y205029D01*
X195945Y204931D01*
X195888Y204837D01*
X195873Y204790D01*
X195851Y204746D01*
X195827Y204638D01*
X195794Y204533D01*
X195792Y204484D01*
X195781Y204435D01*
X195784Y204326D01*
X195779Y204216D01*
X195789Y204167D01*
X195791Y204117D01*
X195821Y204012D01*
X195843Y203904D01*
X195865Y203860D01*
X195879Y203812D01*
X195935Y203717D01*
X195983Y203619D01*
X196015Y203581D01*
X196041Y203538D01*
X196147Y203417D01*
X199137Y200427D01*
X199137Y193273D01*
X194077Y188213D01*
X186923Y188213D01*
X184837Y190298D01*
X184827Y190380D01*
X184800Y190633D01*
X184789Y190676D01*
X184784Y190719D01*
X184718Y190965D01*
X184658Y191212D01*
X184642Y191253D01*
X184630Y191295D01*
X184532Y191530D01*
X184440Y191766D01*
X184418Y191805D01*
X184401Y191845D01*
X184273Y192065D01*
X184149Y192287D01*
X184123Y192322D01*
X184100Y192360D01*
X184033Y192441D01*
X183792Y192763D01*
X183638Y192920D01*
X183565Y193008D01*
X182879Y193693D01*
X182879Y200007D01*
X183770Y200898D01*
X183828Y200964D01*
X183892Y201024D01*
X184024Y201188D01*
X184162Y201346D01*
X184211Y201419D01*
X184266Y201488D01*
X184375Y201668D01*
X184491Y201843D01*
X184529Y201923D01*
X184575Y201998D01*
X184659Y202190D01*
X184750Y202380D01*
X184777Y202463D01*
X184813Y202544D01*
X184870Y202747D01*
X184935Y202946D01*
X184951Y203033D01*
X184975Y203117D01*
X185005Y203326D01*
X185043Y203533D01*
X185047Y203620D01*
X185057Y203689D01*
X185068Y203714D01*
X185095Y203756D01*
X185131Y203859D01*
X185174Y203960D01*
X185182Y204009D01*
X185198Y204056D01*
X185207Y204166D01*
X185224Y204274D01*
X185219Y204324D01*
X185223Y204373D01*
X185205Y204481D01*
X185194Y204591D01*
X185177Y204638D01*
X185169Y204687D01*
X185124Y204787D01*
X185087Y204890D01*
X185059Y204931D01*
X185038Y204977D01*
X184970Y205063D01*
X184929Y205122D01*
X184889Y205303D01*
X184858Y205385D01*
X184835Y205470D01*
X184755Y205664D01*
X184681Y205862D01*
X184640Y205939D01*
X184606Y206020D01*
X184500Y206202D01*
X184401Y206388D01*
X184350Y206459D01*
X184306Y206535D01*
X184227Y206631D01*
X184053Y206871D01*
X183849Y207087D01*
X183770Y207183D01*
X181240Y209713D01*
X179577Y213727D01*
X179577Y218073D01*
X181240Y222087D01*
X184610Y225457D01*
X184668Y225524D01*
X184732Y225584D01*
X184864Y225748D01*
X185003Y225906D01*
X185051Y225980D01*
X185106Y226048D01*
X185215Y226228D01*
X185331Y226403D01*
X185369Y226482D01*
X185415Y226558D01*
X185499Y226751D01*
X187132Y227427D01*
X187253Y227496D01*
X187376Y227561D01*
X187391Y227575D01*
X187408Y227585D01*
X187508Y227682D01*
X187611Y227775D01*
X187622Y227792D01*
X187637Y227806D01*
X187709Y227925D01*
X187786Y228041D01*
X187792Y228060D01*
X187803Y228077D01*
X187844Y228210D01*
X187889Y228342D01*
X187891Y228362D01*
X187897Y228381D01*
X187903Y228520D01*
X187914Y228659D01*
X187911Y228679D01*
X187912Y228699D01*
X187884Y228835D01*
X187860Y228972D01*
X187852Y228991D01*
X187848Y229010D01*
X187786Y229136D01*
X187729Y229262D01*
X187717Y229278D01*
X187708Y229296D01*
X187617Y229402D01*
X187531Y229510D01*
X187515Y229523D01*
X187501Y229538D01*
X187388Y229618D01*
X187277Y229702D01*
X187251Y229714D01*
X187241Y229721D01*
X187222Y229728D01*
X187132Y229773D01*
X185509Y230445D01*
X185480Y230499D01*
X185446Y230580D01*
X185340Y230762D01*
X185241Y230948D01*
X185190Y231019D01*
X185146Y231095D01*
X185067Y231190D01*
X184893Y231431D01*
X184689Y231647D01*
X184610Y231743D01*
X181240Y235113D01*
X179577Y239127D01*
X179577Y243473D01*
X181240Y247487D01*
X184610Y250857D01*
X184668Y250924D01*
X184732Y250984D01*
X184864Y251148D01*
X185003Y251306D01*
X185051Y251379D01*
X185106Y251448D01*
X185215Y251628D01*
X185331Y251803D01*
X185369Y251882D01*
X185415Y251958D01*
X185499Y252150D01*
X185499Y252151D01*
X187132Y252827D01*
X187253Y252896D01*
X187376Y252961D01*
X187391Y252975D01*
X187408Y252985D01*
X187508Y253082D01*
X187611Y253175D01*
X187622Y253192D01*
X187637Y253206D01*
X187709Y253324D01*
X187786Y253441D01*
X187792Y253460D01*
X187803Y253477D01*
X187844Y253610D01*
X187889Y253742D01*
X187891Y253762D01*
X187897Y253781D01*
X187903Y253920D01*
X187914Y254059D01*
X187911Y254079D01*
X187912Y254099D01*
X187884Y254235D01*
X187860Y254372D01*
X187852Y254391D01*
X187848Y254410D01*
X187786Y254535D01*
X187729Y254662D01*
X187717Y254678D01*
X187708Y254696D01*
X187617Y254802D01*
X187531Y254910D01*
X187515Y254923D01*
X187501Y254938D01*
X187388Y255018D01*
X187277Y255102D01*
X187251Y255114D01*
X187241Y255121D01*
X187222Y255128D01*
X187132Y255173D01*
X185509Y255845D01*
X185480Y255899D01*
X185446Y255980D01*
X185340Y256162D01*
X185241Y256348D01*
X185190Y256419D01*
X185146Y256495D01*
X185067Y256591D01*
X184893Y256831D01*
X184689Y257047D01*
X184610Y257143D01*
X181240Y260513D01*
X179577Y264527D01*
X179577Y268873D01*
X181240Y272887D01*
X184610Y276257D01*
X184629Y276279D01*
X184646Y276294D01*
X184680Y276334D01*
X184732Y276384D01*
X184864Y276548D01*
X185003Y276706D01*
X185051Y276779D01*
X185106Y276848D01*
X185215Y277028D01*
X185331Y277203D01*
X185369Y277282D01*
X185415Y277358D01*
X185499Y277550D01*
X185499Y277551D01*
X187132Y278227D01*
X187253Y278296D01*
X187376Y278361D01*
X187391Y278375D01*
X187408Y278385D01*
X187508Y278482D01*
X187611Y278575D01*
X187622Y278592D01*
X187637Y278606D01*
X187709Y278724D01*
X187786Y278841D01*
X187792Y278860D01*
X187803Y278877D01*
X187844Y279010D01*
X187889Y279142D01*
X187891Y279162D01*
X187897Y279181D01*
X187903Y279320D01*
X187914Y279459D01*
X187911Y279479D01*
X187912Y279499D01*
X187884Y279635D01*
X187860Y279772D01*
X187852Y279791D01*
X187847Y279810D01*
X187786Y279935D01*
X187729Y280062D01*
X187717Y280078D01*
X187708Y280096D01*
X187617Y280202D01*
X187531Y280310D01*
X187515Y280323D01*
X187501Y280338D01*
X187388Y280418D01*
X187277Y280502D01*
X187251Y280514D01*
X187241Y280521D01*
X187222Y280528D01*
X187132Y280573D01*
X185509Y281245D01*
X185480Y281299D01*
X185446Y281380D01*
X185340Y281562D01*
X185241Y281748D01*
X185190Y281819D01*
X185146Y281895D01*
X185067Y281991D01*
X184893Y282231D01*
X184689Y282447D01*
X184610Y282543D01*
X181240Y285913D01*
X179577Y289927D01*
X179577Y294273D01*
X181240Y298287D01*
X184610Y301657D01*
X184668Y301724D01*
X184732Y301784D01*
X184864Y301948D01*
X185003Y302106D01*
X185051Y302180D01*
X185106Y302248D01*
X185215Y302428D01*
X185331Y302603D01*
X185369Y302682D01*
X185415Y302758D01*
X185499Y302951D01*
X187132Y303627D01*
X187253Y303696D01*
X187376Y303761D01*
X187391Y303775D01*
X187408Y303785D01*
X187508Y303882D01*
X187611Y303975D01*
X187622Y303992D01*
X187637Y304006D01*
X187710Y304125D01*
X187786Y304241D01*
X187792Y304260D01*
X187803Y304277D01*
X187844Y304410D01*
X187889Y304542D01*
X187891Y304562D01*
X187897Y304581D01*
X187903Y304720D01*
X187914Y304859D01*
X187911Y304879D01*
X187912Y304899D01*
X187884Y305035D01*
X187860Y305172D01*
X187852Y305191D01*
X187847Y305210D01*
X187786Y305336D01*
X187729Y305462D01*
X187717Y305478D01*
X187708Y305496D01*
X187617Y305602D01*
X187531Y305710D01*
X187515Y305723D01*
X187501Y305738D01*
X187388Y305818D01*
X187277Y305902D01*
X187251Y305914D01*
X187241Y305921D01*
X187222Y305928D01*
X187132Y305973D01*
X185509Y306645D01*
X185480Y306699D01*
X185446Y306780D01*
X185340Y306962D01*
X185241Y307148D01*
X185190Y307219D01*
X185146Y307295D01*
X185067Y307390D01*
X184893Y307631D01*
X184689Y307847D01*
X184610Y307943D01*
X181240Y311313D01*
X179577Y315327D01*
X179577Y319673D01*
X181240Y323687D01*
X184610Y327057D01*
X184668Y327124D01*
X184732Y327184D01*
X184864Y327348D01*
X185003Y327506D01*
X185051Y327579D01*
X185106Y327648D01*
X185215Y327828D01*
X185331Y328003D01*
X185369Y328082D01*
X185415Y328158D01*
X185499Y328350D01*
X185499Y328351D01*
X187132Y329027D01*
X187253Y329096D01*
X187376Y329161D01*
X187391Y329175D01*
X187408Y329185D01*
X187508Y329282D01*
X187611Y329375D01*
X187622Y329392D01*
X187637Y329406D01*
X187709Y329524D01*
X187786Y329641D01*
X187792Y329660D01*
X187803Y329677D01*
X187844Y329810D01*
X187889Y329942D01*
X187891Y329962D01*
X187897Y329981D01*
X187903Y330120D01*
X187914Y330259D01*
X187911Y330279D01*
X187912Y330299D01*
X187884Y330435D01*
X187860Y330572D01*
X187852Y330591D01*
X187847Y330610D01*
X187786Y330735D01*
X187729Y330862D01*
X187717Y330878D01*
X187708Y330896D01*
X187618Y331002D01*
X187531Y331110D01*
X187515Y331123D01*
X187501Y331138D01*
X187388Y331218D01*
X187277Y331302D01*
X187251Y331314D01*
X187241Y331321D01*
X187222Y331328D01*
X187132Y331373D01*
X185509Y332045D01*
X185480Y332099D01*
X185446Y332180D01*
X185340Y332362D01*
X185241Y332548D01*
X185190Y332619D01*
X185146Y332695D01*
X185067Y332791D01*
X184893Y333031D01*
X184689Y333247D01*
X184610Y333343D01*
X181240Y336713D01*
X179577Y340727D01*
X179577Y341618D01*
X179574Y341662D01*
X179576Y341706D01*
X179573Y341744D01*
X179574Y341769D01*
X179558Y341914D01*
X179554Y341959D01*
X179537Y342213D01*
X179529Y342256D01*
X179525Y342299D01*
X179469Y342547D01*
X179418Y342796D01*
X179404Y342838D01*
X179394Y342881D01*
X179306Y343119D01*
X179222Y343359D01*
X179202Y343398D01*
X179187Y343440D01*
X179067Y343664D01*
X178952Y343891D01*
X178927Y343927D01*
X178907Y343966D01*
X178758Y344172D01*
X178614Y344381D01*
X178584Y344414D01*
X178561Y344446D01*
X178561Y345275D01*
X179386Y347266D01*
X179404Y347333D01*
X179432Y347397D01*
X179446Y347486D01*
X179470Y347573D01*
X179471Y347642D01*
X179482Y347711D01*
X179474Y347801D01*
X179475Y347891D01*
X179459Y347958D01*
X179452Y348028D01*
X179422Y348113D01*
X179401Y348200D01*
X179368Y348261D01*
X179345Y348327D01*
X179294Y348402D01*
X179252Y348481D01*
X179205Y348532D01*
X179166Y348590D01*
X179099Y348650D01*
X179038Y348716D01*
X178980Y348755D01*
X178928Y348801D01*
X178848Y348842D01*
X178772Y348891D01*
X178706Y348914D01*
X178644Y348945D01*
X178557Y348965D01*
X178472Y348994D01*
X178402Y349000D01*
X178334Y349015D01*
X178244Y349012D01*
X178155Y349019D01*
X178086Y349008D01*
X178016Y349005D01*
X177930Y348980D01*
X177841Y348965D01*
X177778Y348936D01*
X177711Y348917D01*
X177633Y348871D01*
X177551Y348834D01*
X177497Y348791D01*
X177437Y348755D01*
X177316Y348649D01*
X174700Y346033D01*
X174618Y346022D01*
X174365Y345995D01*
X174322Y345985D01*
X174279Y345979D01*
X174033Y345914D01*
X173786Y345853D01*
X173745Y345837D01*
X173703Y345826D01*
X173468Y345728D01*
X173232Y345635D01*
X173193Y345614D01*
X173153Y345597D01*
X172933Y345468D01*
X172711Y345344D01*
X172676Y345318D01*
X172638Y345296D01*
X172557Y345229D01*
X172415Y345122D01*
X172345Y345074D01*
X172319Y345050D01*
X172235Y344987D01*
X172078Y344833D01*
X171990Y344760D01*
X117940Y290710D01*
X116315Y289085D01*
X115007Y288543D01*
X66869Y288543D01*
X66781Y288537D01*
X66693Y288540D01*
X66484Y288517D01*
X66274Y288503D01*
X66188Y288486D01*
X66101Y288476D01*
X65897Y288426D01*
X65690Y288384D01*
X65607Y288355D01*
X65522Y288334D01*
X65326Y288257D01*
X65128Y288188D01*
X65049Y288148D01*
X64968Y288116D01*
X64784Y288014D01*
X64596Y287918D01*
X64524Y287868D01*
X64447Y287826D01*
X64279Y287699D01*
X64106Y287580D01*
X64041Y287521D01*
X63970Y287468D01*
X63820Y287320D01*
X63665Y287179D01*
X63608Y287112D01*
X63546Y287050D01*
X63417Y286884D01*
X63282Y286723D01*
X63235Y286648D01*
X63181Y286579D01*
X63076Y286397D01*
X62963Y286219D01*
X62926Y286139D01*
X62882Y286063D01*
X62802Y285869D01*
X62714Y285677D01*
X62689Y285593D01*
X62655Y285512D01*
X62602Y285309D01*
X62541Y285107D01*
X62527Y285021D01*
X62504Y284936D01*
X62492Y284812D01*
X62445Y284519D01*
X62436Y284222D01*
X62425Y284099D01*
X62425Y272289D01*
X62444Y271996D01*
X62463Y271707D01*
X62464Y271701D01*
X62465Y271695D01*
X62524Y271405D01*
X62580Y271123D01*
X62583Y271117D01*
X62584Y271111D01*
X62680Y270834D01*
X62775Y270560D01*
X62778Y270555D01*
X62780Y270548D01*
X62921Y270271D01*
X62819Y270219D01*
X62798Y270205D01*
X62774Y270193D01*
X62710Y270144D01*
X62328Y269881D01*
X62186Y269752D01*
X62102Y269689D01*
X62102Y269688D01*
X61998Y269580D01*
X61888Y269480D01*
X61887Y269480D01*
X61792Y269366D01*
X61689Y269259D01*
X61600Y269138D01*
X61504Y269023D01*
X61424Y268898D01*
X61337Y268778D01*
X61265Y268646D01*
X61185Y268520D01*
X61123Y268385D01*
X61052Y268254D01*
X60999Y268114D01*
X60937Y267978D01*
X60893Y267836D01*
X60841Y267697D01*
X60834Y267669D01*
X54400Y267669D01*
X45359Y267669D01*
X45359Y294050D01*
X45344Y294168D01*
X45337Y294287D01*
X45324Y294325D01*
X45319Y294366D01*
X45276Y294476D01*
X45239Y294589D01*
X45217Y294624D01*
X45202Y294661D01*
X45133Y294757D01*
X45069Y294858D01*
X45039Y294886D01*
X45016Y294919D01*
X44924Y294995D01*
X44837Y295076D01*
X44802Y295096D01*
X44771Y295121D01*
X44663Y295172D01*
X44559Y295230D01*
X44519Y295240D01*
X44483Y295257D01*
X44366Y295279D01*
X44251Y295309D01*
X44191Y295313D01*
X44171Y295317D01*
X44150Y295315D01*
X44090Y295319D01*
X42094Y295319D01*
X38756Y296702D01*
X36202Y299256D01*
X34819Y302594D01*
X34819Y306206D01*
X36202Y309544D01*
X38756Y312098D01*
X38867Y312144D01*
X38971Y312203D01*
X39078Y312256D01*
X39108Y312282D01*
X39143Y312302D01*
X39229Y312384D01*
X39320Y312462D01*
X39343Y312495D01*
X39372Y312523D01*
X39434Y312625D01*
X39503Y312722D01*
X39517Y312760D01*
X39538Y312794D01*
X39573Y312908D01*
X39615Y313019D01*
X39620Y313059D01*
X39632Y313098D01*
X39637Y313217D01*
X39651Y313335D01*
X39645Y313375D01*
X39647Y313416D01*
X39623Y313532D01*
X39606Y313650D01*
X39587Y313707D01*
X39583Y313727D01*
X39574Y313746D01*
X39554Y313803D01*
X39452Y314049D01*
X39357Y314526D01*
X50505Y314526D01*
X50581Y314378D01*
X50630Y314305D01*
X50673Y314229D01*
X50800Y314060D01*
X50919Y313887D01*
X50978Y313822D01*
X51031Y313752D01*
X51179Y313602D01*
X51320Y313446D01*
X51388Y313389D01*
X51449Y313327D01*
X51616Y313198D01*
X51777Y313063D01*
X51851Y313016D01*
X51921Y312962D01*
X52102Y312856D01*
X52276Y312747D01*
X52276Y308161D01*
X52277Y308152D01*
X52276Y308142D01*
X52297Y307994D01*
X52316Y307845D01*
X52319Y307837D01*
X52320Y307827D01*
X52372Y307675D01*
X52981Y306206D01*
X52981Y302594D01*
X52867Y302320D01*
X52867Y302319D01*
X51575Y299200D01*
X51526Y299141D01*
X51517Y299122D01*
X51505Y299106D01*
X51449Y298978D01*
X51390Y298853D01*
X51386Y298833D01*
X51378Y298815D01*
X51356Y298677D01*
X51330Y298540D01*
X51332Y298520D01*
X51328Y298501D01*
X51341Y298362D01*
X51350Y298223D01*
X51356Y298204D01*
X51358Y298184D01*
X51405Y298053D01*
X51448Y297921D01*
X51459Y297904D01*
X51466Y297885D01*
X51544Y297769D01*
X51618Y297652D01*
X51633Y297638D01*
X51644Y297621D01*
X51748Y297530D01*
X51850Y297434D01*
X51868Y297424D01*
X51883Y297411D01*
X52006Y297348D01*
X52128Y297280D01*
X52148Y297275D01*
X52166Y297266D01*
X52301Y297236D01*
X52436Y297201D01*
X52464Y297199D01*
X52476Y297197D01*
X52496Y297197D01*
X52597Y297191D01*
X53637Y297191D01*
X53664Y297194D01*
X53692Y297192D01*
X53822Y297214D01*
X53952Y297231D01*
X53978Y297241D01*
X54005Y297245D01*
X54061Y297266D01*
X54206Y297154D01*
X54385Y297006D01*
X54441Y296971D01*
X54493Y296931D01*
X54694Y296815D01*
X54892Y296692D01*
X54952Y296665D01*
X55009Y296632D01*
X55223Y296544D01*
X55436Y296449D01*
X55499Y296430D01*
X55560Y296405D01*
X55784Y296347D01*
X56008Y296281D01*
X56073Y296271D01*
X56137Y296254D01*
X56256Y296243D01*
X56597Y296191D01*
X56853Y296186D01*
X56973Y296175D01*
X61822Y296175D01*
X61926Y296114D01*
X62080Y296051D01*
X62230Y295978D01*
X62356Y295938D01*
X62477Y295887D01*
X62638Y295845D01*
X62797Y295793D01*
X62926Y295770D01*
X63054Y295736D01*
X63167Y295725D01*
X63383Y295686D01*
X63785Y295667D01*
X63890Y295657D01*
X110986Y295657D01*
X111117Y295666D01*
X111249Y295665D01*
X111414Y295686D01*
X111580Y295697D01*
X111710Y295723D01*
X111840Y295740D01*
X112001Y295783D01*
X112164Y295816D01*
X112289Y295859D01*
X112416Y295893D01*
X112570Y295957D01*
X112727Y296012D01*
X112844Y296072D01*
X112966Y296122D01*
X113110Y296206D01*
X113258Y296282D01*
X113367Y296357D01*
X113481Y296423D01*
X113568Y296496D01*
X113749Y296620D01*
X114047Y296891D01*
X114128Y296958D01*
X172245Y355075D01*
X172289Y355125D01*
X172337Y355170D01*
X172484Y355349D01*
X172637Y355524D01*
X172674Y355579D01*
X172716Y355630D01*
X172838Y355827D01*
X172966Y356021D01*
X172994Y356080D01*
X173029Y356137D01*
X173124Y356349D01*
X173225Y356557D01*
X173246Y356620D01*
X173272Y356681D01*
X173338Y356903D01*
X173410Y357124D01*
X173422Y357189D01*
X173441Y357252D01*
X173476Y357482D01*
X173518Y357710D01*
X173521Y357776D01*
X173523Y357790D01*
X175516Y359783D01*
X175601Y359892D01*
X175690Y359999D01*
X175698Y360018D01*
X175711Y360034D01*
X175766Y360162D01*
X175825Y360287D01*
X175829Y360307D01*
X175837Y360326D01*
X175859Y360464D01*
X175885Y360600D01*
X175884Y360620D01*
X175887Y360640D01*
X175874Y360779D01*
X175865Y360917D01*
X175859Y360936D01*
X175857Y360956D01*
X175810Y361088D01*
X175767Y361219D01*
X175756Y361237D01*
X175749Y361256D01*
X175671Y361371D01*
X175597Y361488D01*
X175582Y361502D01*
X175571Y361519D01*
X175467Y361611D01*
X175365Y361706D01*
X175348Y361716D01*
X175332Y361729D01*
X175209Y361792D01*
X175087Y361860D01*
X175067Y361865D01*
X175049Y361874D01*
X174913Y361904D01*
X174779Y361939D01*
X174751Y361941D01*
X174739Y361944D01*
X174718Y361943D01*
X174618Y361949D01*
X171878Y361949D01*
X171231Y362122D01*
X170870Y362331D01*
X170592Y362516D01*
X170238Y362870D01*
X170053Y363148D01*
X169928Y363364D01*
X169801Y363672D01*
X169736Y363913D01*
X169671Y364240D01*
X169671Y366142D01*
X183388Y366142D01*
X197105Y366142D01*
X197105Y364156D01*
X196932Y363509D01*
X196597Y362930D01*
X196261Y362594D01*
X196175Y362484D01*
X196087Y362377D01*
X196078Y362358D01*
X196066Y362342D01*
X196010Y362215D01*
X195951Y362089D01*
X195947Y362069D01*
X195939Y362050D01*
X195917Y361913D01*
X195891Y361776D01*
X195893Y361756D01*
X195889Y361736D01*
X195903Y361597D01*
X195911Y361459D01*
X195917Y361440D01*
X195919Y361420D01*
X195966Y361288D01*
X196009Y361157D01*
X196020Y361140D01*
X196027Y361120D01*
X196105Y361005D01*
X196179Y360888D01*
X196194Y360874D01*
X196205Y360857D01*
X196309Y360765D01*
X196411Y360670D01*
X196429Y360660D01*
X196444Y360647D01*
X196568Y360583D01*
X196689Y360516D01*
X196709Y360511D01*
X196727Y360502D01*
X196863Y360472D01*
X196997Y360437D01*
X197025Y360435D01*
X197037Y360432D01*
X197058Y360433D01*
X197158Y360427D01*
X201034Y360427D01*
X201132Y360439D01*
X201231Y360442D01*
X201290Y360459D01*
X201350Y360467D01*
X201442Y360503D01*
X201537Y360531D01*
X201589Y360561D01*
X201645Y360584D01*
X201725Y360642D01*
X201811Y360692D01*
X201886Y360758D01*
X201903Y360770D01*
X201911Y360780D01*
X201932Y360798D01*
X201982Y360849D01*
X202064Y360860D01*
X202317Y360887D01*
X202360Y360897D01*
X202403Y360903D01*
X202649Y360968D01*
X202896Y361029D01*
X202937Y361045D01*
X202979Y361056D01*
X203214Y361154D01*
X203450Y361247D01*
X203489Y361269D01*
X203529Y361285D01*
X203749Y361414D01*
X203971Y361538D01*
X204006Y361564D01*
X204044Y361586D01*
X204125Y361654D01*
X204447Y361895D01*
X204604Y362049D01*
X204692Y362122D01*
X206978Y364408D01*
X207064Y364507D01*
X207158Y364599D01*
X207260Y364731D01*
X207370Y364856D01*
X207443Y364966D01*
X207523Y365070D01*
X207606Y365214D01*
X207698Y365353D01*
X207756Y365472D01*
X207822Y365586D01*
X207885Y365740D01*
X207958Y365890D01*
X207998Y366015D01*
X208049Y366137D01*
X208091Y366298D01*
X208143Y366457D01*
X208166Y366586D01*
X208200Y366714D01*
X208211Y366827D01*
X208250Y367043D01*
X208269Y367444D01*
X208279Y367550D01*
X208279Y371457D01*
X211042Y374219D01*
X211128Y374318D01*
X211222Y374411D01*
X211324Y374542D01*
X211434Y374668D01*
X211506Y374777D01*
X211587Y374882D01*
X211671Y375026D01*
X211762Y375165D01*
X211820Y375283D01*
X211886Y375397D01*
X211949Y375552D01*
X212022Y375701D01*
X212062Y375827D01*
X212113Y375948D01*
X212155Y376109D01*
X212207Y376268D01*
X212230Y376397D01*
X212264Y376525D01*
X212275Y376638D01*
X212314Y376854D01*
X212333Y377256D01*
X212343Y377361D01*
X212343Y380988D01*
X212334Y381119D01*
X212335Y381251D01*
X212314Y381416D01*
X212303Y381582D01*
X212277Y381712D01*
X212260Y381842D01*
X212217Y382003D01*
X212184Y382166D01*
X212141Y382291D01*
X212107Y382418D01*
X212043Y382572D01*
X211988Y382729D01*
X211928Y382846D01*
X211878Y382968D01*
X211794Y383112D01*
X211718Y383260D01*
X211643Y383369D01*
X211577Y383483D01*
X211504Y383570D01*
X211380Y383751D01*
X211109Y384049D01*
X211042Y384130D01*
X203676Y391496D01*
X203642Y391525D01*
X203613Y391558D01*
X203418Y391721D01*
X203227Y391889D01*
X203190Y391913D01*
X203156Y391941D01*
X202942Y392077D01*
X202730Y392217D01*
X202690Y392236D01*
X202653Y392260D01*
X202422Y392366D01*
X202193Y392476D01*
X202151Y392490D01*
X202111Y392508D01*
X201868Y392582D01*
X201627Y392662D01*
X201583Y392669D01*
X201541Y392682D01*
X201291Y392723D01*
X201040Y392769D01*
X200996Y392771D01*
X200958Y392778D01*
X199271Y394464D01*
X199183Y394532D01*
X199149Y394565D01*
X199130Y394575D01*
X199055Y394638D01*
X199036Y394646D01*
X199020Y394659D01*
X198892Y394714D01*
X198767Y394773D01*
X198747Y394777D01*
X198728Y394785D01*
X198590Y394807D01*
X198454Y394833D01*
X198434Y394832D01*
X198414Y394835D01*
X198275Y394822D01*
X198137Y394813D01*
X198118Y394807D01*
X198098Y394805D01*
X197966Y394758D01*
X197835Y394715D01*
X197817Y394704D01*
X197798Y394697D01*
X197683Y394619D01*
X197566Y394545D01*
X197552Y394530D01*
X197535Y394519D01*
X197443Y394415D01*
X197348Y394313D01*
X197338Y394296D01*
X197325Y394280D01*
X197261Y394156D01*
X197194Y394035D01*
X197189Y394015D01*
X197180Y393997D01*
X197150Y393861D01*
X197115Y393727D01*
X197113Y393699D01*
X197110Y393687D01*
X197111Y393666D01*
X197109Y393626D01*
X197107Y393619D01*
X197108Y393613D01*
X197105Y393566D01*
X197105Y391169D01*
X197054Y391104D01*
X196895Y390906D01*
X196872Y390868D01*
X196845Y390834D01*
X196718Y390614D01*
X196586Y390396D01*
X196568Y390356D01*
X196546Y390318D01*
X196449Y390083D01*
X196348Y389850D01*
X196336Y389807D01*
X196319Y389767D01*
X196255Y389522D01*
X196186Y389277D01*
X196179Y389233D01*
X196168Y389190D01*
X196158Y389085D01*
X196101Y388687D01*
X196099Y388467D01*
X196089Y388354D01*
X196089Y386972D01*
X194970Y385854D01*
X194822Y385684D01*
X194668Y385519D01*
X194626Y385460D01*
X194578Y385405D01*
X194454Y385217D01*
X194345Y385063D01*
X186203Y385063D01*
X186173Y385087D01*
X186012Y385222D01*
X185937Y385269D01*
X185868Y385323D01*
X185686Y385428D01*
X185508Y385541D01*
X185428Y385578D01*
X185352Y385622D01*
X185158Y385702D01*
X184966Y385790D01*
X184882Y385815D01*
X184801Y385849D01*
X184598Y385902D01*
X184396Y385963D01*
X184310Y385977D01*
X184225Y386000D01*
X184101Y386012D01*
X183808Y386059D01*
X183512Y386068D01*
X183388Y386079D01*
X183300Y386073D01*
X183213Y386076D01*
X183212Y386076D01*
X183003Y386053D01*
X182793Y386039D01*
X182707Y386022D01*
X182620Y386012D01*
X182415Y385962D01*
X182209Y385920D01*
X182126Y385891D01*
X182041Y385870D01*
X181845Y385793D01*
X181647Y385724D01*
X181568Y385684D01*
X181486Y385652D01*
X181303Y385550D01*
X181115Y385454D01*
X181043Y385404D01*
X180966Y385362D01*
X180798Y385235D01*
X180625Y385116D01*
X180567Y385063D01*
X172425Y385063D01*
X172341Y385206D01*
X172305Y385250D01*
X172258Y385325D01*
X171876Y385782D01*
X171831Y385823D01*
X171806Y385854D01*
X170392Y387268D01*
X170332Y387440D01*
X170292Y387519D01*
X170260Y387600D01*
X170158Y387784D01*
X170062Y387972D01*
X170012Y388044D01*
X169970Y388121D01*
X169843Y388289D01*
X169724Y388462D01*
X169665Y388527D01*
X169612Y388598D01*
X169464Y388748D01*
X169323Y388903D01*
X169256Y388960D01*
X169194Y389022D01*
X169028Y389151D01*
X168867Y389286D01*
X168792Y389333D01*
X168723Y389387D01*
X168541Y389492D01*
X168363Y389605D01*
X168283Y389642D01*
X168207Y389686D01*
X168013Y389766D01*
X167821Y389854D01*
X167737Y389879D01*
X167656Y389913D01*
X167453Y389966D01*
X167251Y390027D01*
X167165Y390041D01*
X167080Y390064D01*
X166956Y390076D01*
X166663Y390123D01*
X166366Y390132D01*
X166243Y390143D01*
X164393Y390143D01*
X163085Y390685D01*
X149385Y404385D01*
X148843Y405693D01*
X148843Y419807D01*
X149385Y421115D01*
X160612Y432342D01*
X160641Y432376D01*
X160674Y432405D01*
X160837Y432600D01*
X161005Y432791D01*
X161029Y432828D01*
X161057Y432862D01*
X161193Y433076D01*
X161333Y433288D01*
X161352Y433328D01*
X161376Y433365D01*
X161482Y433596D01*
X161592Y433825D01*
X161606Y433867D01*
X161624Y433907D01*
X161698Y434149D01*
X161778Y434391D01*
X161785Y434435D01*
X161798Y434477D01*
X161839Y434727D01*
X161885Y434978D01*
X161887Y435022D01*
X161894Y435060D01*
X163206Y436373D01*
X194934Y436373D01*
X196255Y435052D01*
X196266Y434970D01*
X196293Y434717D01*
X196303Y434674D01*
X196309Y434631D01*
X196374Y434385D01*
X196435Y434138D01*
X196451Y434097D01*
X196462Y434055D01*
X196560Y433820D01*
X196653Y433584D01*
X196675Y433545D01*
X196691Y433505D01*
X196819Y433286D01*
X196944Y433063D01*
X196970Y433028D01*
X196992Y432990D01*
X197059Y432909D01*
X197301Y432587D01*
X197455Y432430D01*
X197528Y432342D01*
X204085Y425785D01*
X204152Y425727D01*
X204212Y425663D01*
X204376Y425531D01*
X204534Y425392D01*
X204607Y425344D01*
X204676Y425289D01*
X204856Y425180D01*
X205031Y425064D01*
X205110Y425026D01*
X205186Y424980D01*
X205378Y424896D01*
X205568Y424805D01*
X205652Y424777D01*
X205732Y424742D01*
X205934Y424685D01*
X206134Y424620D01*
X206221Y424604D01*
X206305Y424580D01*
X206514Y424550D01*
X206720Y424512D01*
X206798Y424508D01*
X207049Y424258D01*
X207143Y424185D01*
X207232Y424106D01*
X207268Y424088D01*
X207300Y424063D01*
X207410Y424016D01*
X207515Y423962D01*
X207555Y423953D01*
X207592Y423937D01*
X207710Y423918D01*
X207826Y423892D01*
X207866Y423893D01*
X207906Y423887D01*
X208025Y423898D01*
X208144Y423902D01*
X208182Y423913D01*
X208223Y423917D01*
X208335Y423957D01*
X208449Y423990D01*
X208484Y424011D01*
X208522Y424024D01*
X208621Y424091D01*
X208723Y424152D01*
X208768Y424191D01*
X208785Y424203D01*
X208799Y424218D01*
X208844Y424258D01*
X211456Y426870D01*
X211456Y419100D01*
X211456Y411330D01*
X209939Y412846D01*
X209830Y412932D01*
X209723Y413020D01*
X209704Y413029D01*
X209688Y413041D01*
X209560Y413097D01*
X209435Y413156D01*
X209415Y413160D01*
X209396Y413168D01*
X209258Y413190D01*
X209122Y413216D01*
X209102Y413214D01*
X209082Y413218D01*
X208943Y413204D01*
X208805Y413196D01*
X208786Y413190D01*
X208766Y413188D01*
X208634Y413141D01*
X208503Y413098D01*
X208485Y413087D01*
X208466Y413080D01*
X208351Y413002D01*
X208234Y412928D01*
X208220Y412913D01*
X208203Y412902D01*
X208111Y412797D01*
X208016Y412696D01*
X208006Y412678D01*
X207993Y412663D01*
X207929Y412539D01*
X207862Y412418D01*
X207857Y412398D01*
X207848Y412380D01*
X207818Y412244D01*
X207783Y412110D01*
X207781Y412082D01*
X207778Y412070D01*
X207779Y412049D01*
X207773Y411949D01*
X207773Y408820D01*
X207785Y408722D01*
X207788Y408623D01*
X207805Y408564D01*
X207813Y408504D01*
X207849Y408412D01*
X207877Y408317D01*
X207907Y408265D01*
X207930Y408209D01*
X207988Y408129D01*
X208038Y408043D01*
X208104Y407968D01*
X208116Y407951D01*
X208126Y407943D01*
X208144Y407922D01*
X210481Y405586D01*
X210492Y405504D01*
X210519Y405251D01*
X210529Y405208D01*
X210535Y405165D01*
X210600Y404919D01*
X210661Y404672D01*
X210677Y404631D01*
X210688Y404589D01*
X210786Y404354D01*
X210879Y404118D01*
X210901Y404079D01*
X210917Y404039D01*
X211045Y403820D01*
X211170Y403597D01*
X211196Y403562D01*
X211218Y403524D01*
X211285Y403443D01*
X211527Y403121D01*
X211681Y402964D01*
X211754Y402876D01*
X228572Y386058D01*
X228671Y385972D01*
X228763Y385878D01*
X228895Y385776D01*
X229020Y385666D01*
X229130Y385594D01*
X229234Y385513D01*
X229379Y385429D01*
X229517Y385338D01*
X229636Y385280D01*
X229750Y385214D01*
X229904Y385151D01*
X230054Y385078D01*
X230180Y385037D01*
X230301Y384987D01*
X230462Y384945D01*
X230621Y384893D01*
X230750Y384870D01*
X230878Y384836D01*
X230991Y384825D01*
X231207Y384786D01*
X231608Y384767D01*
X231714Y384757D01*
X252476Y384757D01*
X252564Y384763D01*
X252652Y384760D01*
X252861Y384783D01*
X253071Y384797D01*
X253157Y384814D01*
X253244Y384824D01*
X253448Y384874D01*
X253655Y384916D01*
X253738Y384945D01*
X253823Y384966D01*
X254019Y385043D01*
X254217Y385112D01*
X254296Y385152D01*
X254377Y385184D01*
X254561Y385286D01*
X254749Y385382D01*
X254821Y385432D01*
X254898Y385474D01*
X255066Y385601D01*
X255239Y385720D01*
X255304Y385779D01*
X255375Y385832D01*
X255525Y385980D01*
X255680Y386121D01*
X255737Y386188D01*
X255799Y386250D01*
X255928Y386416D01*
X256063Y386577D01*
X256110Y386652D01*
X256164Y386721D01*
X256269Y386903D01*
X256382Y387081D01*
X256419Y387161D01*
X256463Y387237D01*
X256543Y387431D01*
X256631Y387623D01*
X256656Y387707D01*
X256690Y387788D01*
X256743Y387991D01*
X256804Y388193D01*
X256818Y388279D01*
X256841Y388364D01*
X256853Y388488D01*
X256900Y388781D01*
X256909Y389078D01*
X256920Y389201D01*
X256920Y390087D01*
X258829Y391996D01*
X274571Y391996D01*
X276480Y390087D01*
X276480Y372313D01*
X275587Y371420D01*
X257813Y371420D01*
X256920Y372313D01*
X256920Y373199D01*
X256914Y373287D01*
X256917Y373375D01*
X256894Y373584D01*
X256880Y373794D01*
X256863Y373880D01*
X256853Y373967D01*
X256803Y374171D01*
X256761Y374378D01*
X256732Y374461D01*
X256711Y374546D01*
X256634Y374742D01*
X256565Y374940D01*
X256525Y375019D01*
X256493Y375100D01*
X256391Y375284D01*
X256295Y375472D01*
X256245Y375544D01*
X256203Y375621D01*
X256076Y375789D01*
X255957Y375962D01*
X255898Y376027D01*
X255845Y376098D01*
X255697Y376248D01*
X255556Y376403D01*
X255489Y376460D01*
X255427Y376522D01*
X255261Y376651D01*
X255100Y376786D01*
X255025Y376833D01*
X254956Y376887D01*
X254774Y376992D01*
X254596Y377105D01*
X254516Y377142D01*
X254440Y377186D01*
X254246Y377266D01*
X254054Y377354D01*
X253970Y377379D01*
X253889Y377413D01*
X253686Y377466D01*
X253484Y377527D01*
X253398Y377541D01*
X253313Y377564D01*
X253189Y377576D01*
X252896Y377623D01*
X252599Y377632D01*
X252476Y377643D01*
X236401Y377643D01*
X236313Y377637D01*
X236225Y377640D01*
X236016Y377617D01*
X235806Y377603D01*
X235720Y377586D01*
X235633Y377576D01*
X235429Y377526D01*
X235222Y377484D01*
X235139Y377455D01*
X235054Y377434D01*
X234858Y377357D01*
X234660Y377288D01*
X234581Y377248D01*
X234500Y377216D01*
X234316Y377114D01*
X234128Y377018D01*
X234056Y376968D01*
X233979Y376926D01*
X233811Y376799D01*
X233638Y376680D01*
X233573Y376621D01*
X233502Y376568D01*
X233352Y376420D01*
X233197Y376279D01*
X233140Y376212D01*
X233078Y376150D01*
X232949Y375984D01*
X232814Y375823D01*
X232767Y375748D01*
X232713Y375679D01*
X232608Y375497D01*
X232495Y375319D01*
X232458Y375239D01*
X232414Y375163D01*
X232334Y374969D01*
X232246Y374777D01*
X232221Y374693D01*
X232187Y374612D01*
X232134Y374409D01*
X232073Y374207D01*
X232059Y374121D01*
X232036Y374036D01*
X232024Y373912D01*
X231977Y373619D01*
X231968Y373322D01*
X231957Y373199D01*
X231957Y354693D01*
X231415Y353385D01*
X217915Y339885D01*
X216607Y339343D01*
X209816Y339343D01*
X209772Y339340D01*
X209728Y339342D01*
X209475Y339320D01*
X209221Y339303D01*
X209178Y339294D01*
X209134Y339291D01*
X208886Y339235D01*
X208638Y339184D01*
X208596Y339170D01*
X208553Y339160D01*
X208315Y339072D01*
X208075Y338988D01*
X208036Y338968D01*
X207994Y338953D01*
X207771Y338834D01*
X207543Y338718D01*
X207507Y338693D01*
X207468Y338673D01*
X207263Y338525D01*
X207053Y338380D01*
X207020Y338350D01*
X206988Y338327D01*
X204604Y338327D01*
X204466Y338310D01*
X204327Y338297D01*
X204308Y338290D01*
X204288Y338287D01*
X204159Y338236D01*
X204028Y338189D01*
X204011Y338178D01*
X203993Y338170D01*
X203880Y338089D01*
X203765Y338011D01*
X203752Y337995D01*
X203735Y337984D01*
X203646Y337876D01*
X203555Y337772D01*
X203545Y337754D01*
X203532Y337739D01*
X203473Y337613D01*
X203410Y337489D01*
X203405Y337469D01*
X203397Y337451D01*
X203371Y337314D01*
X203340Y337179D01*
X203341Y337158D01*
X203337Y337139D01*
X203346Y337000D01*
X203350Y336861D01*
X203356Y336841D01*
X203357Y336821D01*
X203400Y336689D01*
X203438Y336555D01*
X203449Y336538D01*
X203455Y336519D01*
X203529Y336401D01*
X203600Y336281D01*
X203618Y336260D01*
X203625Y336250D01*
X203640Y336236D01*
X203706Y336161D01*
X204976Y334891D01*
X204976Y334890D01*
X205401Y334466D01*
X205412Y334384D01*
X205439Y334131D01*
X205449Y334088D01*
X205455Y334044D01*
X205520Y333799D01*
X205581Y333552D01*
X205597Y333511D01*
X205608Y333469D01*
X205706Y333233D01*
X205799Y332998D01*
X205821Y332959D01*
X205838Y332919D01*
X205966Y332699D01*
X206090Y332477D01*
X206116Y332442D01*
X206138Y332404D01*
X206206Y332322D01*
X206447Y332001D01*
X206457Y331991D01*
X207011Y330653D01*
X207011Y311399D01*
X206987Y311343D01*
X206951Y311203D01*
X206904Y311066D01*
X206875Y310915D01*
X206836Y310766D01*
X206826Y310663D01*
X206791Y310481D01*
X206764Y310002D01*
X206757Y309930D01*
X206757Y304093D01*
X206215Y302785D01*
X202433Y299003D01*
X202361Y298920D01*
X202282Y298844D01*
X202165Y298696D01*
X202041Y298554D01*
X201980Y298462D01*
X201912Y298376D01*
X201816Y298214D01*
X201712Y298057D01*
X201664Y297958D01*
X201608Y297864D01*
X201535Y297690D01*
X201453Y297521D01*
X201419Y297416D01*
X201376Y297315D01*
X201326Y297133D01*
X201268Y296954D01*
X201248Y296846D01*
X201219Y296740D01*
X201194Y296554D01*
X201160Y296368D01*
X201155Y296258D01*
X201141Y296149D01*
X201141Y295961D01*
X201132Y295773D01*
X201142Y295663D01*
X201142Y295553D01*
X201167Y295367D01*
X201184Y295179D01*
X201208Y295072D01*
X201223Y294963D01*
X201258Y294847D01*
X201314Y294597D01*
X201423Y294306D01*
X201423Y289909D01*
X201391Y289836D01*
X201339Y289655D01*
X201279Y289476D01*
X201258Y289368D01*
X201228Y289262D01*
X201201Y289076D01*
X201166Y288891D01*
X201159Y288781D01*
X201144Y288672D01*
X201142Y288484D01*
X201131Y288296D01*
X201140Y288186D01*
X201139Y288076D01*
X201163Y287889D01*
X201177Y287702D01*
X201200Y287594D01*
X201214Y287485D01*
X201263Y287303D01*
X201302Y287119D01*
X201339Y287015D01*
X201368Y286909D01*
X201440Y286735D01*
X201504Y286558D01*
X201555Y286461D01*
X201597Y286359D01*
X201692Y286196D01*
X201779Y286029D01*
X201842Y285940D01*
X201898Y285845D01*
X201975Y285751D01*
X202122Y285542D01*
X202268Y285385D01*
X202284Y285364D01*
X202350Y285297D01*
X202356Y285290D01*
X202433Y285197D01*
X204844Y282786D01*
X206469Y281161D01*
X207011Y279853D01*
X207011Y260599D01*
X206987Y260543D01*
X206951Y260403D01*
X206904Y260266D01*
X206875Y260115D01*
X206836Y259966D01*
X206826Y259863D01*
X206791Y259681D01*
X206764Y259202D01*
X206757Y259130D01*
X206757Y253293D01*
X206215Y251985D01*
X202433Y248203D01*
X202361Y248120D01*
X202282Y248044D01*
X202165Y247896D01*
X202041Y247754D01*
X201980Y247662D01*
X201912Y247576D01*
X201816Y247414D01*
X201712Y247257D01*
X201664Y247158D01*
X201608Y247064D01*
X201535Y246890D01*
X201453Y246721D01*
X201419Y246616D01*
X201376Y246515D01*
X201326Y246333D01*
X201268Y246154D01*
X201248Y246046D01*
X201219Y245940D01*
X201194Y245754D01*
X201160Y245568D01*
X201155Y245458D01*
X201141Y245349D01*
X201141Y245161D01*
X201132Y244973D01*
X201142Y244863D01*
X201142Y244753D01*
X201167Y244567D01*
X201184Y244379D01*
X201208Y244272D01*
X201223Y244163D01*
X201258Y244047D01*
X201314Y243797D01*
X201423Y243506D01*
X201423Y239127D01*
X199760Y235113D01*
X196390Y231743D01*
X196332Y231676D01*
X196268Y231616D01*
X196136Y231452D01*
X195997Y231294D01*
X195949Y231221D01*
X195894Y231152D01*
X195785Y230972D01*
X195669Y230797D01*
X195631Y230718D01*
X195585Y230642D01*
X195501Y230450D01*
X195501Y230449D01*
X193868Y229773D01*
X193747Y229704D01*
X193624Y229639D01*
X193609Y229625D01*
X193592Y229615D01*
X193492Y229518D01*
X193389Y229425D01*
X193378Y229408D01*
X193363Y229394D01*
X193291Y229276D01*
X193214Y229159D01*
X193208Y229140D01*
X193197Y229123D01*
X193156Y228990D01*
X193111Y228858D01*
X193109Y228838D01*
X193103Y228819D01*
X193097Y228680D01*
X193086Y228541D01*
X193089Y228521D01*
X193088Y228501D01*
X193116Y228365D01*
X193140Y228228D01*
X193148Y228209D01*
X193152Y228190D01*
X193214Y228065D01*
X193271Y227938D01*
X193283Y227922D01*
X193292Y227904D01*
X193383Y227798D01*
X193469Y227690D01*
X193485Y227677D01*
X193499Y227662D01*
X193612Y227582D01*
X193723Y227498D01*
X193749Y227486D01*
X193759Y227479D01*
X193778Y227472D01*
X193868Y227427D01*
X195491Y226755D01*
X195520Y226701D01*
X195554Y226620D01*
X195660Y226438D01*
X195759Y226252D01*
X195810Y226181D01*
X195854Y226105D01*
X195933Y226009D01*
X196107Y225769D01*
X196311Y225553D01*
X196390Y225457D01*
X199773Y222075D01*
X199802Y222000D01*
X199894Y221835D01*
X199978Y221666D01*
X200039Y221575D01*
X200093Y221479D01*
X200206Y221328D01*
X200311Y221172D01*
X200384Y221090D01*
X200450Y221002D01*
X200583Y220868D01*
X200708Y220728D01*
X200791Y220656D01*
X200868Y220578D01*
X201017Y220462D01*
X201160Y220340D01*
X201252Y220280D01*
X201339Y220213D01*
X201503Y220118D01*
X201661Y220016D01*
X201760Y219969D01*
X201855Y219914D01*
X202029Y219843D01*
X202200Y219762D01*
X202305Y219729D01*
X202406Y219687D01*
X202588Y219640D01*
X202768Y219583D01*
X202876Y219564D01*
X202982Y219536D01*
X203103Y219525D01*
X203355Y219481D01*
X203699Y219468D01*
X203819Y219457D01*
X235657Y219457D01*
X236965Y218915D01*
X249613Y206267D01*
X249629Y206253D01*
X249644Y206236D01*
X249853Y206057D01*
X250061Y205875D01*
X250080Y205863D01*
X250096Y205849D01*
X250328Y205699D01*
X250558Y205547D01*
X250578Y205537D01*
X250597Y205525D01*
X250847Y205407D01*
X251095Y205287D01*
X251116Y205281D01*
X251136Y205271D01*
X251398Y205188D01*
X251662Y205102D01*
X251683Y205098D01*
X251704Y205092D01*
X251975Y205045D01*
X252248Y204995D01*
X252270Y204994D01*
X252291Y204990D01*
X252567Y204980D01*
X252843Y204967D01*
X252865Y204968D01*
X252887Y204968D01*
X253163Y204994D01*
X253437Y205018D01*
X253458Y205023D01*
X253480Y205025D01*
X253749Y205088D01*
X254018Y205149D01*
X254039Y205157D01*
X254060Y205162D01*
X254318Y205260D01*
X254577Y205356D01*
X254596Y205367D01*
X254617Y205374D01*
X254823Y205487D01*
X257165Y205487D01*
X257303Y205504D01*
X257441Y205517D01*
X257460Y205524D01*
X257481Y205527D01*
X257610Y205578D01*
X257741Y205625D01*
X257758Y205636D01*
X257776Y205644D01*
X257889Y205725D01*
X258004Y205803D01*
X258017Y205819D01*
X258034Y205830D01*
X258122Y205938D01*
X258214Y206042D01*
X258224Y206060D01*
X258236Y206075D01*
X258296Y206201D01*
X258359Y206325D01*
X258363Y206345D01*
X258372Y206363D01*
X258398Y206500D01*
X258429Y206635D01*
X258428Y206656D01*
X258432Y206675D01*
X258423Y206814D01*
X258419Y206953D01*
X258413Y206973D01*
X258412Y206993D01*
X258369Y207125D01*
X258331Y207259D01*
X258320Y207276D01*
X258314Y207295D01*
X258240Y207413D01*
X258169Y207533D01*
X258150Y207554D01*
X258144Y207564D01*
X258129Y207578D01*
X258063Y207653D01*
X257120Y208596D01*
X257148Y208804D01*
X257187Y209077D01*
X257187Y209099D01*
X257190Y209121D01*
X257189Y209397D01*
X257192Y209673D01*
X257189Y209695D01*
X257189Y209717D01*
X257151Y209991D01*
X257117Y210264D01*
X257111Y210286D01*
X257108Y210307D01*
X257086Y210377D01*
X256963Y210840D01*
X256891Y211012D01*
X256861Y211111D01*
X255777Y213727D01*
X255777Y218073D01*
X257440Y222087D01*
X260810Y225457D01*
X260868Y225524D01*
X260932Y225584D01*
X261064Y225748D01*
X261203Y225906D01*
X261251Y225979D01*
X261306Y226048D01*
X261415Y226228D01*
X261531Y226403D01*
X261569Y226482D01*
X261615Y226558D01*
X261699Y226750D01*
X261778Y226914D01*
X261848Y226983D01*
X261864Y227008D01*
X261884Y227029D01*
X261947Y227143D01*
X262015Y227254D01*
X262023Y227282D01*
X262038Y227308D01*
X262070Y227434D01*
X262108Y227558D01*
X262110Y227587D01*
X262117Y227616D01*
X262127Y227776D01*
X262127Y229424D01*
X262124Y229453D01*
X262126Y229482D01*
X262104Y229610D01*
X262087Y229739D01*
X262077Y229767D01*
X262072Y229796D01*
X262018Y229914D01*
X261970Y230035D01*
X261953Y230059D01*
X261941Y230086D01*
X261860Y230187D01*
X261784Y230292D01*
X261763Y230309D01*
X261722Y230422D01*
X261680Y230499D01*
X261646Y230580D01*
X261540Y230762D01*
X261441Y230948D01*
X261390Y231019D01*
X261346Y231095D01*
X261267Y231191D01*
X261093Y231431D01*
X260889Y231647D01*
X260810Y231743D01*
X257440Y235113D01*
X255777Y239127D01*
X255777Y243473D01*
X257440Y247487D01*
X260810Y250857D01*
X260868Y250924D01*
X260932Y250984D01*
X261064Y251148D01*
X261203Y251306D01*
X261251Y251379D01*
X261306Y251448D01*
X261415Y251628D01*
X261531Y251803D01*
X261569Y251882D01*
X261615Y251958D01*
X261699Y252150D01*
X261699Y252151D01*
X263332Y252827D01*
X263453Y252896D01*
X263576Y252961D01*
X263591Y252975D01*
X263608Y252985D01*
X263708Y253082D01*
X263811Y253175D01*
X263822Y253192D01*
X263837Y253206D01*
X263909Y253324D01*
X263986Y253441D01*
X263992Y253460D01*
X264003Y253477D01*
X264044Y253610D01*
X264089Y253742D01*
X264091Y253762D01*
X264097Y253781D01*
X264103Y253920D01*
X264114Y254059D01*
X264111Y254079D01*
X264112Y254099D01*
X264084Y254235D01*
X264060Y254372D01*
X264052Y254391D01*
X264048Y254410D01*
X263986Y254535D01*
X263929Y254662D01*
X263917Y254678D01*
X263908Y254696D01*
X263817Y254802D01*
X263731Y254910D01*
X263715Y254923D01*
X263701Y254938D01*
X263588Y255018D01*
X263477Y255102D01*
X263451Y255114D01*
X263441Y255121D01*
X263422Y255128D01*
X263332Y255173D01*
X261709Y255845D01*
X261680Y255899D01*
X261646Y255980D01*
X261540Y256162D01*
X261441Y256348D01*
X261390Y256419D01*
X261346Y256495D01*
X261267Y256591D01*
X261093Y256831D01*
X260889Y257047D01*
X260810Y257143D01*
X257440Y260513D01*
X255777Y264527D01*
X255777Y268873D01*
X257440Y272887D01*
X260810Y276257D01*
X260829Y276279D01*
X260846Y276294D01*
X260880Y276334D01*
X260932Y276384D01*
X261064Y276548D01*
X261203Y276706D01*
X261251Y276779D01*
X261306Y276848D01*
X261415Y277028D01*
X261531Y277203D01*
X261569Y277282D01*
X261615Y277358D01*
X261699Y277550D01*
X261778Y277714D01*
X261848Y277783D01*
X261864Y277808D01*
X261884Y277829D01*
X261947Y277943D01*
X262015Y278054D01*
X262023Y278082D01*
X262038Y278108D01*
X262070Y278234D01*
X262108Y278358D01*
X262110Y278387D01*
X262117Y278416D01*
X262127Y278576D01*
X262127Y280224D01*
X262124Y280253D01*
X262126Y280282D01*
X262104Y280410D01*
X262087Y280539D01*
X262077Y280567D01*
X262072Y280596D01*
X262018Y280714D01*
X261970Y280835D01*
X261953Y280859D01*
X261941Y280886D01*
X261860Y280987D01*
X261784Y281092D01*
X261763Y281109D01*
X261722Y281222D01*
X261680Y281299D01*
X261646Y281380D01*
X261540Y281562D01*
X261441Y281748D01*
X261390Y281819D01*
X261346Y281895D01*
X261267Y281991D01*
X261093Y282231D01*
X260889Y282447D01*
X260810Y282543D01*
X257440Y285913D01*
X255777Y289927D01*
X255777Y294273D01*
X257440Y298287D01*
X260810Y301657D01*
X260868Y301724D01*
X260932Y301784D01*
X261064Y301948D01*
X261203Y302106D01*
X261251Y302180D01*
X261306Y302248D01*
X261415Y302428D01*
X261531Y302603D01*
X261569Y302682D01*
X261615Y302758D01*
X261699Y302951D01*
X263332Y303627D01*
X263453Y303696D01*
X263576Y303761D01*
X263591Y303775D01*
X263608Y303785D01*
X263708Y303882D01*
X263811Y303975D01*
X263822Y303992D01*
X263837Y304006D01*
X263910Y304125D01*
X263986Y304241D01*
X263992Y304260D01*
X264003Y304277D01*
X264044Y304410D01*
X264089Y304542D01*
X264091Y304562D01*
X264097Y304581D01*
X264103Y304720D01*
X264114Y304859D01*
X264111Y304879D01*
X264112Y304899D01*
X264084Y305035D01*
X264060Y305172D01*
X264052Y305191D01*
X264047Y305210D01*
X263986Y305336D01*
X263929Y305462D01*
X263917Y305478D01*
X263908Y305496D01*
X263817Y305602D01*
X263731Y305710D01*
X263715Y305723D01*
X263701Y305738D01*
X263588Y305818D01*
X263477Y305902D01*
X263451Y305914D01*
X263441Y305921D01*
X263422Y305928D01*
X263332Y305973D01*
X261709Y306645D01*
X261680Y306699D01*
X261646Y306780D01*
X261540Y306962D01*
X261441Y307148D01*
X261390Y307219D01*
X261346Y307295D01*
X261267Y307390D01*
X261093Y307631D01*
X260889Y307847D01*
X260810Y307943D01*
X257440Y311313D01*
X255777Y315327D01*
X255777Y319673D01*
X257440Y323687D01*
X260810Y327057D01*
X260868Y327124D01*
X260932Y327184D01*
X261064Y327348D01*
X261203Y327506D01*
X261251Y327579D01*
X261306Y327648D01*
X261415Y327828D01*
X261531Y328003D01*
X261569Y328082D01*
X261615Y328158D01*
X261699Y328350D01*
X261778Y328514D01*
X261848Y328583D01*
X261864Y328608D01*
X261884Y328629D01*
X261947Y328743D01*
X262015Y328854D01*
X262023Y328882D01*
X262038Y328908D01*
X262070Y329034D01*
X262108Y329158D01*
X262110Y329187D01*
X262117Y329216D01*
X262127Y329376D01*
X262127Y331024D01*
X262124Y331053D01*
X262126Y331082D01*
X262104Y331210D01*
X262087Y331339D01*
X262077Y331367D01*
X262072Y331396D01*
X262018Y331514D01*
X261970Y331635D01*
X261953Y331659D01*
X261941Y331686D01*
X261860Y331787D01*
X261784Y331892D01*
X261763Y331909D01*
X261722Y332022D01*
X261680Y332099D01*
X261646Y332180D01*
X261540Y332362D01*
X261441Y332548D01*
X261390Y332619D01*
X261346Y332695D01*
X261267Y332791D01*
X261093Y333031D01*
X260889Y333247D01*
X260810Y333343D01*
X257440Y336713D01*
X255777Y340727D01*
X255777Y345073D01*
X257440Y349087D01*
X260513Y352160D01*
X264527Y353823D01*
X268873Y353823D01*
X272887Y352160D01*
X275960Y349087D01*
X277623Y345073D01*
X277623Y340727D01*
X275960Y336713D01*
X272590Y333343D01*
X272532Y333276D01*
X272468Y333216D01*
X272336Y333052D01*
X272197Y332894D01*
X272149Y332820D01*
X272094Y332752D01*
X271985Y332572D01*
X271869Y332397D01*
X271831Y332318D01*
X271785Y332242D01*
X271701Y332049D01*
X271622Y331886D01*
X271552Y331817D01*
X271536Y331792D01*
X271516Y331771D01*
X271453Y331657D01*
X271385Y331546D01*
X271377Y331518D01*
X271362Y331492D01*
X271330Y331366D01*
X271292Y331242D01*
X271290Y331213D01*
X271283Y331184D01*
X271273Y331024D01*
X271273Y329376D01*
X271276Y329347D01*
X271274Y329318D01*
X271296Y329190D01*
X271313Y329061D01*
X271323Y329033D01*
X271328Y329004D01*
X271382Y328886D01*
X271430Y328765D01*
X271447Y328741D01*
X271459Y328714D01*
X271540Y328613D01*
X271616Y328508D01*
X271637Y328491D01*
X271678Y328378D01*
X271720Y328301D01*
X271754Y328220D01*
X271860Y328038D01*
X271959Y327852D01*
X272010Y327781D01*
X272054Y327705D01*
X272133Y327610D01*
X272307Y327369D01*
X272511Y327153D01*
X272590Y327057D01*
X275973Y323675D01*
X276002Y323600D01*
X276094Y323435D01*
X276177Y323266D01*
X276239Y323175D01*
X276292Y323079D01*
X276406Y322928D01*
X276511Y322772D01*
X276584Y322691D01*
X276650Y322602D01*
X276782Y322468D01*
X276908Y322328D01*
X276991Y322256D01*
X277068Y322178D01*
X277217Y322062D01*
X277360Y321940D01*
X277452Y321880D01*
X277539Y321813D01*
X277702Y321718D01*
X277860Y321616D01*
X277960Y321569D01*
X278055Y321514D01*
X278229Y321443D01*
X278400Y321362D01*
X278505Y321329D01*
X278606Y321287D01*
X278788Y321240D01*
X278968Y321183D01*
X279076Y321164D01*
X279182Y321136D01*
X279303Y321125D01*
X279555Y321081D01*
X279899Y321068D01*
X280019Y321057D01*
X298406Y321057D01*
X298494Y321063D01*
X298582Y321060D01*
X298791Y321083D01*
X299001Y321097D01*
X299087Y321114D01*
X299174Y321124D01*
X299378Y321174D01*
X299585Y321216D01*
X299668Y321245D01*
X299753Y321266D01*
X299949Y321343D01*
X300147Y321412D01*
X300226Y321452D01*
X300307Y321484D01*
X300491Y321586D01*
X300679Y321682D01*
X300751Y321732D01*
X300828Y321774D01*
X300996Y321901D01*
X301169Y322020D01*
X301234Y322079D01*
X301305Y322132D01*
X301455Y322280D01*
X301610Y322421D01*
X301667Y322488D01*
X301729Y322550D01*
X301858Y322716D01*
X301993Y322877D01*
X302040Y322952D01*
X302094Y323021D01*
X302199Y323203D01*
X302312Y323381D01*
X302349Y323461D01*
X302375Y323506D01*
X303743Y324875D01*
X318004Y324875D01*
X318135Y324884D01*
X318267Y324883D01*
X318432Y324904D01*
X318598Y324915D01*
X318728Y324941D01*
X318858Y324958D01*
X319019Y325001D01*
X319182Y325034D01*
X319307Y325077D01*
X319434Y325111D01*
X319588Y325175D01*
X319745Y325230D01*
X319862Y325290D01*
X319984Y325340D01*
X320128Y325424D01*
X320276Y325500D01*
X320385Y325575D01*
X320499Y325641D01*
X320586Y325714D01*
X320767Y325838D01*
X321065Y326109D01*
X321146Y326176D01*
X360178Y365208D01*
X360279Y365324D01*
X360388Y365433D01*
X360475Y365548D01*
X360570Y365657D01*
X360655Y365785D01*
X360748Y365907D01*
X360796Y365999D01*
X360899Y366154D01*
X361107Y366586D01*
X361141Y366650D01*
X361729Y368068D01*
X363354Y369694D01*
X363355Y369694D01*
X366744Y373083D01*
X366830Y373182D01*
X366924Y373274D01*
X367026Y373406D01*
X367136Y373531D01*
X367208Y373641D01*
X367289Y373746D01*
X367373Y373890D01*
X367464Y374029D01*
X367522Y374147D01*
X367588Y374261D01*
X367651Y374415D01*
X367724Y374565D01*
X367764Y374691D01*
X367815Y374812D01*
X367857Y374973D01*
X367909Y375132D01*
X367932Y375261D01*
X367966Y375389D01*
X367977Y375502D01*
X368016Y375718D01*
X368032Y376059D01*
X368987Y378363D01*
X369006Y378419D01*
X369030Y378472D01*
X369101Y378701D01*
X369177Y378928D01*
X369189Y378985D01*
X369206Y379042D01*
X369245Y379278D01*
X369291Y379513D01*
X369294Y379571D01*
X369304Y379630D01*
X369311Y379868D01*
X369325Y380108D01*
X369320Y380166D01*
X369322Y380225D01*
X369299Y380450D01*
X369304Y380463D01*
X369359Y380569D01*
X369367Y380609D01*
X369383Y380646D01*
X369402Y380763D01*
X369428Y380879D01*
X369427Y380920D01*
X369433Y380960D01*
X369422Y381079D01*
X369418Y381197D01*
X369407Y381236D01*
X369403Y381276D01*
X369363Y381389D01*
X369330Y381503D01*
X369310Y381538D01*
X369296Y381576D01*
X369229Y381674D01*
X369168Y381777D01*
X369129Y381822D01*
X369117Y381839D01*
X369102Y381852D01*
X369062Y381898D01*
X368872Y382087D01*
X368326Y382906D01*
X381000Y382906D01*
X393674Y382906D01*
X393462Y382587D01*
X393456Y382580D01*
X393449Y382568D01*
X393128Y382087D01*
X392938Y381898D01*
X392865Y381803D01*
X392786Y381714D01*
X392768Y381678D01*
X392743Y381646D01*
X392696Y381537D01*
X392642Y381431D01*
X392633Y381392D01*
X392617Y381354D01*
X392598Y381237D01*
X392572Y381121D01*
X392573Y381080D01*
X392567Y381040D01*
X392578Y380922D01*
X392582Y380803D01*
X392593Y380764D01*
X392597Y380724D01*
X392637Y380612D01*
X392670Y380497D01*
X392690Y380463D01*
X392693Y380455D01*
X392692Y380411D01*
X392684Y380353D01*
X392685Y380114D01*
X392679Y379874D01*
X392685Y379816D01*
X392686Y379757D01*
X392718Y379520D01*
X392744Y379282D01*
X392759Y379225D01*
X392767Y379166D01*
X392801Y379054D01*
X392888Y378704D01*
X392978Y378477D01*
X393013Y378363D01*
X393955Y376090D01*
X393955Y373210D01*
X392625Y370001D01*
X392583Y369876D01*
X392532Y369755D01*
X392488Y369594D01*
X392435Y369436D01*
X392410Y369307D01*
X392375Y369180D01*
X392353Y369014D01*
X392321Y368851D01*
X392314Y368720D01*
X392297Y368589D01*
X392297Y368422D01*
X392287Y368256D01*
X392297Y368125D01*
X392298Y367993D01*
X392320Y367828D01*
X392333Y367662D01*
X392361Y367533D01*
X392379Y367403D01*
X392412Y367294D01*
X392458Y367079D01*
X392502Y366956D01*
X392513Y366912D01*
X392572Y366763D01*
X392594Y366700D01*
X392625Y366599D01*
X393955Y363390D01*
X393955Y360510D01*
X392853Y357849D01*
X390816Y355812D01*
X388155Y354710D01*
X373845Y354710D01*
X371184Y355812D01*
X369156Y357841D01*
X369090Y357898D01*
X369029Y357962D01*
X368865Y358095D01*
X368707Y358233D01*
X368634Y358281D01*
X368565Y358337D01*
X368385Y358446D01*
X368210Y358562D01*
X368131Y358600D01*
X368056Y358645D01*
X367863Y358729D01*
X367673Y358821D01*
X367633Y358834D01*
X367579Y358914D01*
X367524Y359009D01*
X367489Y359045D01*
X367462Y359086D01*
X367379Y359159D01*
X367303Y359238D01*
X367260Y359264D01*
X367223Y359296D01*
X367125Y359346D01*
X367032Y359404D01*
X366984Y359418D01*
X366940Y359441D01*
X366833Y359465D01*
X366728Y359497D01*
X366678Y359500D01*
X366630Y359511D01*
X366520Y359507D01*
X366410Y359513D01*
X366362Y359503D01*
X366312Y359501D01*
X366206Y359471D01*
X366099Y359448D01*
X366054Y359426D01*
X366006Y359413D01*
X365912Y359357D01*
X365813Y359309D01*
X365775Y359276D01*
X365732Y359251D01*
X365611Y359145D01*
X365580Y359113D01*
X365541Y359108D01*
X365332Y359090D01*
X365246Y359071D01*
X365159Y359059D01*
X364956Y359005D01*
X364750Y358959D01*
X364668Y358929D01*
X364583Y358906D01*
X364389Y358825D01*
X364192Y358752D01*
X364114Y358711D01*
X364033Y358677D01*
X363851Y358571D01*
X363666Y358472D01*
X363594Y358420D01*
X363518Y358376D01*
X363423Y358297D01*
X363182Y358124D01*
X362966Y357920D01*
X362871Y357841D01*
X336766Y331736D01*
X336722Y331686D01*
X336674Y331641D01*
X336526Y331462D01*
X336373Y331287D01*
X336337Y331232D01*
X336295Y331181D01*
X336173Y330983D01*
X336045Y330790D01*
X336016Y330731D01*
X335981Y330674D01*
X335887Y330462D01*
X335786Y330253D01*
X335765Y330191D01*
X335738Y330130D01*
X335673Y329908D01*
X335601Y329687D01*
X335589Y329622D01*
X335570Y329559D01*
X335535Y329329D01*
X335493Y329101D01*
X335490Y329035D01*
X335488Y329021D01*
X334524Y328057D01*
X334439Y327947D01*
X334350Y327841D01*
X334342Y327822D01*
X334329Y327806D01*
X334274Y327677D01*
X334215Y327553D01*
X334211Y327533D01*
X334203Y327514D01*
X334181Y327376D01*
X334155Y327240D01*
X334156Y327220D01*
X334153Y327200D01*
X334166Y327061D01*
X334175Y326923D01*
X334181Y326904D01*
X334183Y326884D01*
X334230Y326752D01*
X334273Y326621D01*
X334284Y326603D01*
X334291Y326584D01*
X334369Y326469D01*
X334443Y326352D01*
X334458Y326338D01*
X334469Y326321D01*
X334573Y326229D01*
X334675Y326134D01*
X334692Y326124D01*
X334708Y326111D01*
X334831Y326047D01*
X334953Y325980D01*
X334973Y325975D01*
X334991Y325966D01*
X335127Y325936D01*
X335261Y325901D01*
X335289Y325899D01*
X335301Y325896D01*
X335322Y325897D01*
X335422Y325891D01*
X336390Y325891D01*
X336483Y325762D01*
X336528Y325714D01*
X336568Y325661D01*
X336733Y325497D01*
X336892Y325329D01*
X336943Y325288D01*
X336990Y325241D01*
X337175Y325100D01*
X337356Y324955D01*
X337412Y324921D01*
X337465Y324881D01*
X337572Y324824D01*
X337866Y324646D01*
X338100Y324544D01*
X338207Y324487D01*
X340037Y323729D01*
X342154Y321612D01*
X343300Y318847D01*
X343300Y315853D01*
X342154Y313088D01*
X340633Y311567D01*
X340547Y311468D01*
X340453Y311375D01*
X340351Y311244D01*
X340241Y311118D01*
X340169Y311008D01*
X340088Y310904D01*
X340004Y310760D01*
X339913Y310621D01*
X339855Y310503D01*
X339789Y310388D01*
X339726Y310234D01*
X339653Y310084D01*
X339612Y309959D01*
X339562Y309837D01*
X339520Y309676D01*
X339468Y309518D01*
X339445Y309388D01*
X339411Y309261D01*
X339400Y309147D01*
X339361Y308932D01*
X339342Y308530D01*
X339332Y308424D01*
X339332Y300876D01*
X339341Y300744D01*
X339340Y300613D01*
X339361Y300447D01*
X339372Y300281D01*
X339398Y300152D01*
X339415Y300021D01*
X339458Y299861D01*
X339491Y299697D01*
X339534Y299572D01*
X339568Y299445D01*
X339632Y299292D01*
X339687Y299135D01*
X339747Y299017D01*
X339797Y298895D01*
X339881Y298752D01*
X339957Y298603D01*
X340032Y298495D01*
X340098Y298381D01*
X340171Y298293D01*
X340295Y298113D01*
X340566Y297815D01*
X340633Y297733D01*
X342154Y296212D01*
X343300Y293447D01*
X343300Y290453D01*
X342154Y287688D01*
X340633Y286167D01*
X340547Y286068D01*
X340453Y285975D01*
X340351Y285844D01*
X340241Y285718D01*
X340169Y285608D01*
X340088Y285504D01*
X340004Y285360D01*
X339913Y285221D01*
X339855Y285103D01*
X339789Y284988D01*
X339726Y284834D01*
X339653Y284684D01*
X339612Y284559D01*
X339562Y284437D01*
X339520Y284276D01*
X339468Y284118D01*
X339445Y283988D01*
X339411Y283861D01*
X339400Y283747D01*
X339361Y283532D01*
X339342Y283130D01*
X339332Y283024D01*
X339332Y275476D01*
X339341Y275344D01*
X339340Y275213D01*
X339361Y275047D01*
X339372Y274881D01*
X339398Y274752D01*
X339415Y274621D01*
X339458Y274461D01*
X339491Y274297D01*
X339534Y274173D01*
X339568Y274045D01*
X339632Y273892D01*
X339687Y273735D01*
X339747Y273617D01*
X339797Y273495D01*
X339881Y273352D01*
X339957Y273203D01*
X340032Y273095D01*
X340098Y272981D01*
X340171Y272893D01*
X340295Y272713D01*
X340566Y272415D01*
X340633Y272333D01*
X342154Y270812D01*
X343300Y268047D01*
X343300Y265053D01*
X342154Y262288D01*
X340037Y260171D01*
X337272Y259025D01*
X334278Y259025D01*
X333552Y259326D01*
X333489Y259347D01*
X333429Y259375D01*
X333208Y259442D01*
X332987Y259517D01*
X332922Y259529D01*
X332859Y259549D01*
X332630Y259586D01*
X332402Y259630D01*
X332336Y259634D01*
X332271Y259645D01*
X332039Y259651D01*
X331807Y259664D01*
X331741Y259659D01*
X331675Y259661D01*
X331445Y259636D01*
X331213Y259618D01*
X331148Y259605D01*
X331083Y259598D01*
X330857Y259542D01*
X330731Y259515D01*
X330590Y259657D01*
X330480Y259742D01*
X330373Y259831D01*
X330354Y259840D01*
X330338Y259852D01*
X330210Y259907D01*
X330085Y259967D01*
X330065Y259970D01*
X330046Y259978D01*
X329908Y260000D01*
X329772Y260026D01*
X329752Y260025D01*
X329732Y260028D01*
X329593Y260015D01*
X329455Y260007D01*
X329436Y260000D01*
X329416Y259998D01*
X329285Y259951D01*
X329153Y259909D01*
X329135Y259898D01*
X329116Y259891D01*
X329002Y259813D01*
X328884Y259738D01*
X328870Y259724D01*
X328853Y259712D01*
X328761Y259608D01*
X328666Y259507D01*
X328656Y259489D01*
X328643Y259474D01*
X328580Y259350D01*
X328512Y259228D01*
X328507Y259209D01*
X328498Y259191D01*
X328468Y259055D01*
X328433Y258920D01*
X328431Y258892D01*
X328428Y258880D01*
X328429Y258860D01*
X328423Y258760D01*
X328423Y258036D01*
X328385Y257987D01*
X328238Y257808D01*
X328203Y257752D01*
X328163Y257700D01*
X328047Y257499D01*
X327924Y257302D01*
X327897Y257241D01*
X327864Y257184D01*
X327776Y256970D01*
X327681Y256758D01*
X327662Y256694D01*
X327637Y256633D01*
X327579Y256409D01*
X327513Y256186D01*
X327503Y256121D01*
X327486Y256057D01*
X327475Y255937D01*
X327423Y255597D01*
X327418Y255341D01*
X327407Y255220D01*
X327407Y252480D01*
X327411Y252414D01*
X327409Y252348D01*
X327431Y252116D01*
X327447Y251885D01*
X327460Y251821D01*
X327466Y251755D01*
X327519Y251529D01*
X327566Y251301D01*
X327588Y251239D01*
X327603Y251175D01*
X327686Y250958D01*
X327762Y250739D01*
X327792Y250680D01*
X327815Y250618D01*
X327926Y250414D01*
X328032Y250207D01*
X328069Y250153D01*
X328101Y250095D01*
X328238Y249908D01*
X328370Y249717D01*
X328415Y249668D01*
X328423Y249657D01*
X328423Y248940D01*
X328440Y248802D01*
X328453Y248664D01*
X328460Y248645D01*
X328463Y248625D01*
X328514Y248495D01*
X328561Y248365D01*
X328572Y248348D01*
X328580Y248329D01*
X328661Y248217D01*
X328739Y248102D01*
X328755Y248088D01*
X328766Y248072D01*
X328874Y247983D01*
X328978Y247891D01*
X328996Y247882D01*
X329011Y247869D01*
X329137Y247810D01*
X329261Y247747D01*
X329281Y247742D01*
X329299Y247733D01*
X329435Y247707D01*
X329571Y247677D01*
X329592Y247678D01*
X329611Y247674D01*
X329750Y247682D01*
X329889Y247687D01*
X329909Y247692D01*
X329929Y247693D01*
X330061Y247736D01*
X330195Y247775D01*
X330212Y247785D01*
X330231Y247791D01*
X330349Y247866D01*
X330469Y247937D01*
X330490Y247955D01*
X330500Y247962D01*
X330514Y247977D01*
X330590Y248043D01*
X330732Y248185D01*
X330843Y248151D01*
X330908Y248141D01*
X330971Y248123D01*
X331202Y248093D01*
X331431Y248055D01*
X331497Y248054D01*
X331562Y248045D01*
X331794Y248045D01*
X332027Y248039D01*
X332092Y248046D01*
X332158Y248046D01*
X332388Y248078D01*
X332619Y248102D01*
X332683Y248118D01*
X332749Y248127D01*
X332864Y248162D01*
X333198Y248244D01*
X333436Y248338D01*
X333552Y248374D01*
X334278Y248675D01*
X337272Y248675D01*
X340037Y247529D01*
X341408Y246158D01*
X341507Y246072D01*
X341600Y245978D01*
X341731Y245876D01*
X341857Y245766D01*
X341967Y245694D01*
X342071Y245613D01*
X342215Y245529D01*
X342354Y245438D01*
X342472Y245380D01*
X342587Y245314D01*
X342741Y245251D01*
X342891Y245178D01*
X343016Y245138D01*
X343138Y245087D01*
X343299Y245045D01*
X343457Y244993D01*
X343587Y244970D01*
X343714Y244936D01*
X343827Y244925D01*
X344043Y244886D01*
X344445Y244867D01*
X344551Y244857D01*
X352286Y244857D01*
X352417Y244866D01*
X352549Y244865D01*
X352714Y244886D01*
X352880Y244897D01*
X353010Y244923D01*
X353140Y244940D01*
X353301Y244983D01*
X353464Y245016D01*
X353589Y245059D01*
X353716Y245093D01*
X353870Y245157D01*
X354027Y245212D01*
X354144Y245272D01*
X354266Y245322D01*
X354410Y245406D01*
X354558Y245482D01*
X354667Y245557D01*
X354781Y245623D01*
X354868Y245696D01*
X355049Y245820D01*
X355347Y246091D01*
X355428Y246158D01*
X365066Y255796D01*
X365124Y255863D01*
X365189Y255924D01*
X365320Y256087D01*
X365458Y256245D01*
X365507Y256319D01*
X365563Y256387D01*
X365671Y256567D01*
X365787Y256742D01*
X365826Y256822D01*
X365871Y256897D01*
X365955Y257089D01*
X366046Y257279D01*
X366074Y257363D01*
X366109Y257444D01*
X366166Y257646D01*
X366231Y257845D01*
X366247Y257932D01*
X366271Y258017D01*
X366301Y258225D01*
X366339Y258431D01*
X366343Y258519D01*
X366355Y258607D01*
X366357Y258817D01*
X366367Y259026D01*
X366359Y259115D01*
X366360Y259203D01*
X366334Y259411D01*
X366315Y259620D01*
X366296Y259707D01*
X366285Y259794D01*
X366231Y259997D01*
X366185Y260202D01*
X366154Y260284D01*
X366131Y260370D01*
X366050Y260564D01*
X365977Y260760D01*
X365936Y260838D01*
X365902Y260920D01*
X365813Y261071D01*
X364235Y264881D01*
X364235Y268519D01*
X365627Y271880D01*
X368200Y274453D01*
X368910Y274747D01*
X369060Y274821D01*
X369214Y274886D01*
X369327Y274953D01*
X369444Y275011D01*
X369583Y275105D01*
X369727Y275190D01*
X369829Y275271D01*
X369938Y275345D01*
X370063Y275456D01*
X370194Y275560D01*
X370285Y275654D01*
X370383Y275741D01*
X370492Y275868D01*
X370608Y275989D01*
X370685Y276094D01*
X370770Y276194D01*
X370861Y276334D01*
X370961Y276470D01*
X371023Y276584D01*
X371094Y276694D01*
X371127Y276765D01*
X371359Y276861D01*
X390641Y276861D01*
X390874Y276764D01*
X390914Y276680D01*
X391005Y276540D01*
X391088Y276394D01*
X391168Y276291D01*
X391239Y276181D01*
X391349Y276054D01*
X391451Y275921D01*
X391543Y275829D01*
X391629Y275730D01*
X391754Y275619D01*
X391873Y275500D01*
X391977Y275421D01*
X392075Y275335D01*
X392214Y275241D01*
X392348Y275140D01*
X392432Y275095D01*
X392570Y275003D01*
X393060Y274762D01*
X393090Y274747D01*
X393800Y274453D01*
X396373Y271880D01*
X397765Y268519D01*
X397765Y264881D01*
X396373Y261520D01*
X393800Y258947D01*
X390439Y257555D01*
X378726Y257555D01*
X378595Y257546D01*
X378463Y257547D01*
X378298Y257526D01*
X378132Y257515D01*
X378002Y257489D01*
X377872Y257472D01*
X377711Y257429D01*
X377548Y257396D01*
X377423Y257353D01*
X377296Y257319D01*
X377142Y257255D01*
X376985Y257200D01*
X376868Y257140D01*
X376746Y257090D01*
X376602Y257006D01*
X376454Y256930D01*
X376345Y256855D01*
X376231Y256789D01*
X376144Y256716D01*
X375963Y256592D01*
X375665Y256321D01*
X375584Y256254D01*
X357615Y238285D01*
X356307Y237743D01*
X344851Y237743D01*
X344719Y237734D01*
X344587Y237735D01*
X344422Y237714D01*
X344256Y237703D01*
X344127Y237677D01*
X343996Y237660D01*
X343835Y237617D01*
X343672Y237584D01*
X343548Y237541D01*
X343420Y237507D01*
X343267Y237443D01*
X343109Y237388D01*
X342992Y237328D01*
X342870Y237278D01*
X342727Y237194D01*
X342578Y237118D01*
X342470Y237043D01*
X342356Y236977D01*
X342268Y236904D01*
X342088Y236780D01*
X341790Y236509D01*
X341708Y236442D01*
X340037Y234771D01*
X337272Y233625D01*
X334278Y233625D01*
X333552Y233926D01*
X333489Y233947D01*
X333429Y233975D01*
X333208Y234042D01*
X332987Y234117D01*
X332922Y234129D01*
X332859Y234149D01*
X332630Y234186D01*
X332402Y234230D01*
X332336Y234234D01*
X332271Y234245D01*
X332039Y234251D01*
X331807Y234264D01*
X331741Y234259D01*
X331675Y234261D01*
X331445Y234236D01*
X331213Y234218D01*
X331148Y234205D01*
X331083Y234198D01*
X330857Y234142D01*
X330731Y234115D01*
X330590Y234257D01*
X330480Y234342D01*
X330373Y234431D01*
X330354Y234440D01*
X330338Y234452D01*
X330210Y234507D01*
X330085Y234567D01*
X330065Y234570D01*
X330046Y234578D01*
X329908Y234600D01*
X329772Y234626D01*
X329752Y234625D01*
X329732Y234628D01*
X329593Y234615D01*
X329455Y234607D01*
X329436Y234600D01*
X329416Y234598D01*
X329285Y234551D01*
X329153Y234509D01*
X329135Y234498D01*
X329116Y234491D01*
X329002Y234413D01*
X328884Y234338D01*
X328870Y234324D01*
X328853Y234312D01*
X328761Y234208D01*
X328666Y234107D01*
X328656Y234089D01*
X328643Y234074D01*
X328580Y233950D01*
X328512Y233828D01*
X328507Y233809D01*
X328498Y233791D01*
X328468Y233655D01*
X328433Y233520D01*
X328431Y233492D01*
X328428Y233480D01*
X328429Y233460D01*
X328423Y233360D01*
X328423Y232636D01*
X328385Y232587D01*
X328238Y232408D01*
X328203Y232352D01*
X328163Y232300D01*
X328047Y232099D01*
X327924Y231902D01*
X327897Y231841D01*
X327864Y231784D01*
X327776Y231570D01*
X327681Y231358D01*
X327662Y231294D01*
X327637Y231233D01*
X327579Y231009D01*
X327513Y230786D01*
X327503Y230721D01*
X327486Y230657D01*
X327475Y230537D01*
X327423Y230197D01*
X327418Y229941D01*
X327407Y229820D01*
X327407Y179451D01*
X327413Y179363D01*
X327410Y179275D01*
X327433Y179066D01*
X327447Y178856D01*
X327464Y178770D01*
X327474Y178683D01*
X327524Y178479D01*
X327566Y178272D01*
X327595Y178189D01*
X327616Y178104D01*
X327693Y177908D01*
X327762Y177710D01*
X327802Y177631D01*
X327834Y177550D01*
X327936Y177366D01*
X328032Y177178D01*
X328082Y177106D01*
X328124Y177029D01*
X328251Y176861D01*
X328370Y176688D01*
X328429Y176623D01*
X328482Y176552D01*
X328630Y176402D01*
X328771Y176247D01*
X328838Y176190D01*
X328900Y176128D01*
X329066Y175999D01*
X329227Y175864D01*
X329302Y175817D01*
X329371Y175763D01*
X329553Y175658D01*
X329731Y175545D01*
X329811Y175508D01*
X329887Y175464D01*
X330081Y175384D01*
X330273Y175296D01*
X330357Y175271D01*
X330438Y175237D01*
X330641Y175184D01*
X330843Y175123D01*
X330929Y175109D01*
X331014Y175086D01*
X331138Y175074D01*
X331431Y175027D01*
X331728Y175018D01*
X331851Y175007D01*
X363458Y175007D01*
X363647Y175019D01*
X363837Y175023D01*
X363944Y175039D01*
X364053Y175047D01*
X364239Y175085D01*
X364426Y175113D01*
X364530Y175144D01*
X364637Y175166D01*
X364816Y175228D01*
X364998Y175282D01*
X365097Y175326D01*
X365199Y175362D01*
X365368Y175448D01*
X365541Y175525D01*
X365634Y175582D01*
X365731Y175632D01*
X365887Y175739D01*
X366048Y175839D01*
X366132Y175908D01*
X366221Y175970D01*
X366279Y176023D01*
X367657Y176023D01*
X367755Y176035D01*
X367854Y176038D01*
X367912Y176055D01*
X367972Y176063D01*
X368064Y176099D01*
X368159Y176127D01*
X368212Y176157D01*
X368268Y176180D01*
X368348Y176238D01*
X368433Y176288D01*
X368509Y176354D01*
X368525Y176366D01*
X368533Y176376D01*
X368554Y176394D01*
X369062Y176903D01*
X369135Y176997D01*
X369214Y177086D01*
X369232Y177122D01*
X369257Y177154D01*
X369304Y177263D01*
X369359Y177369D01*
X369367Y177409D01*
X369383Y177446D01*
X369402Y177563D01*
X369428Y177679D01*
X369427Y177720D01*
X369433Y177760D01*
X369422Y177879D01*
X369418Y177997D01*
X369407Y178036D01*
X369403Y178076D01*
X369363Y178189D01*
X369330Y178303D01*
X369310Y178338D01*
X369296Y178376D01*
X369229Y178474D01*
X369168Y178577D01*
X369129Y178622D01*
X369117Y178639D01*
X369102Y178652D01*
X369062Y178698D01*
X368872Y178887D01*
X368326Y179706D01*
X381000Y179706D01*
X393674Y179706D01*
X393462Y179387D01*
X393456Y179380D01*
X393449Y179368D01*
X393128Y178887D01*
X392938Y178698D01*
X392865Y178603D01*
X392786Y178514D01*
X392768Y178478D01*
X392743Y178446D01*
X392696Y178337D01*
X392642Y178231D01*
X392633Y178192D01*
X392617Y178154D01*
X392598Y178037D01*
X392572Y177921D01*
X392573Y177880D01*
X392567Y177840D01*
X392578Y177722D01*
X392582Y177603D01*
X392593Y177564D01*
X392597Y177524D01*
X392637Y177412D01*
X392670Y177297D01*
X392690Y177263D01*
X392693Y177255D01*
X392692Y177211D01*
X392684Y177153D01*
X392685Y176914D01*
X392679Y176674D01*
X392685Y176616D01*
X392686Y176557D01*
X392718Y176320D01*
X392744Y176082D01*
X392759Y176025D01*
X392767Y175966D01*
X392801Y175854D01*
X392888Y175504D01*
X392978Y175277D01*
X393013Y175163D01*
X393955Y172890D01*
X393955Y170010D01*
X392625Y166801D01*
X392583Y166676D01*
X392532Y166555D01*
X392488Y166394D01*
X392435Y166236D01*
X392410Y166107D01*
X392375Y165980D01*
X392353Y165814D01*
X392321Y165651D01*
X392314Y165520D01*
X392297Y165389D01*
X392297Y165222D01*
X392287Y165056D01*
X392297Y164925D01*
X392298Y164793D01*
X392320Y164628D01*
X392333Y164462D01*
X392361Y164333D01*
X392379Y164203D01*
X392412Y164094D01*
X392458Y163879D01*
X392594Y163500D01*
X392625Y163399D01*
X393955Y160190D01*
X393955Y157310D01*
X392853Y154649D01*
X390816Y152612D01*
X388155Y151510D01*
X381882Y151510D01*
X381816Y151506D01*
X381750Y151508D01*
X381519Y151486D01*
X381287Y151470D01*
X381223Y151457D01*
X381157Y151451D01*
X380931Y151398D01*
X380704Y151351D01*
X380641Y151329D01*
X380577Y151314D01*
X380360Y151231D01*
X380141Y151155D01*
X380082Y151125D01*
X380020Y151102D01*
X379817Y150991D01*
X379609Y150885D01*
X379555Y150848D01*
X379497Y150816D01*
X379310Y150679D01*
X379119Y150547D01*
X379070Y150503D01*
X379017Y150463D01*
X378850Y150302D01*
X378678Y150146D01*
X378636Y150095D01*
X378588Y150050D01*
X378444Y149867D01*
X378295Y149690D01*
X378260Y149634D01*
X378219Y149582D01*
X378102Y149385D01*
X377698Y148981D01*
X377625Y148887D01*
X377546Y148798D01*
X377528Y148762D01*
X377503Y148730D01*
X377456Y148620D01*
X377402Y148515D01*
X377393Y148475D01*
X377377Y148438D01*
X377358Y148320D01*
X377332Y148204D01*
X377333Y148164D01*
X377327Y148124D01*
X377338Y148005D01*
X377342Y147886D01*
X377353Y147848D01*
X377357Y147807D01*
X377397Y147695D01*
X377430Y147581D01*
X377450Y147546D01*
X377462Y147514D01*
X377458Y147486D01*
X377456Y147420D01*
X377447Y147355D01*
X377448Y147123D01*
X377441Y146890D01*
X377448Y146825D01*
X377448Y146759D01*
X377480Y146529D01*
X377505Y146298D01*
X377520Y146234D01*
X377529Y146169D01*
X377565Y146054D01*
X377647Y145719D01*
X377740Y145481D01*
X377776Y145365D01*
X379223Y141873D01*
X379223Y137527D01*
X377560Y133513D01*
X374487Y130440D01*
X370473Y128777D01*
X366127Y128777D01*
X362113Y130440D01*
X359040Y133513D01*
X357377Y137527D01*
X357377Y141873D01*
X357719Y142698D01*
X357740Y142761D01*
X357768Y142821D01*
X357836Y143043D01*
X357910Y143263D01*
X357922Y143328D01*
X357942Y143391D01*
X357979Y143620D01*
X358023Y143848D01*
X358027Y143914D01*
X358038Y143979D01*
X358044Y144211D01*
X358057Y144443D01*
X358052Y144509D01*
X358054Y144575D01*
X358029Y144805D01*
X358012Y145037D01*
X357998Y145102D01*
X357991Y145167D01*
X357935Y145392D01*
X357887Y145620D01*
X357864Y145682D01*
X357861Y145695D01*
X358017Y146072D01*
X358030Y146120D01*
X358051Y146165D01*
X358072Y146273D01*
X358101Y146379D01*
X358102Y146429D01*
X358111Y146478D01*
X358104Y146587D01*
X358106Y146697D01*
X358094Y146745D01*
X358091Y146795D01*
X358058Y146899D01*
X358032Y147006D01*
X358009Y147050D01*
X357993Y147097D01*
X357935Y147190D01*
X357883Y147287D01*
X357850Y147324D01*
X357823Y147366D01*
X357743Y147441D01*
X357669Y147523D01*
X357628Y147550D01*
X357592Y147584D01*
X357495Y147637D01*
X357404Y147697D01*
X357357Y147714D01*
X357313Y147738D01*
X357207Y147765D01*
X357103Y147801D01*
X357053Y147805D01*
X357005Y147817D01*
X356844Y147827D01*
X356429Y147827D01*
X356381Y147864D01*
X356201Y148012D01*
X356145Y148047D01*
X356093Y148087D01*
X355892Y148204D01*
X355695Y148326D01*
X355635Y148353D01*
X355577Y148386D01*
X355362Y148474D01*
X355151Y148569D01*
X355087Y148588D01*
X355026Y148613D01*
X354802Y148672D01*
X354579Y148737D01*
X354514Y148747D01*
X354450Y148764D01*
X354330Y148775D01*
X353990Y148827D01*
X353734Y148832D01*
X353613Y148843D01*
X326434Y148843D01*
X326302Y148834D01*
X326171Y148835D01*
X326005Y148814D01*
X325839Y148803D01*
X325710Y148777D01*
X325579Y148760D01*
X325419Y148717D01*
X325255Y148684D01*
X325131Y148641D01*
X325004Y148607D01*
X324850Y148543D01*
X324693Y148488D01*
X324575Y148428D01*
X324454Y148378D01*
X324310Y148294D01*
X324161Y148218D01*
X324053Y148143D01*
X323939Y148077D01*
X323851Y148004D01*
X323671Y147880D01*
X323373Y147609D01*
X323291Y147542D01*
X302717Y126968D01*
X302688Y126934D01*
X302656Y126905D01*
X302492Y126710D01*
X302325Y126519D01*
X302301Y126482D01*
X302273Y126448D01*
X302137Y126234D01*
X301996Y126022D01*
X301977Y125982D01*
X301954Y125945D01*
X301848Y125714D01*
X301737Y125485D01*
X301724Y125443D01*
X301705Y125403D01*
X301631Y125161D01*
X301552Y124919D01*
X301544Y124875D01*
X301531Y124833D01*
X301491Y124583D01*
X301445Y124332D01*
X301443Y124288D01*
X301436Y124250D01*
X299360Y122173D01*
X157819Y122173D01*
G37*
%LPD*%
G36*
X314819Y241150D02*
X314819Y241150D01*
X314819Y249691D01*
X316709Y249691D01*
X317356Y249518D01*
X317373Y249507D01*
X317496Y249456D01*
X317615Y249400D01*
X317642Y249395D01*
X317666Y249384D01*
X317798Y249365D01*
X317928Y249340D01*
X317954Y249342D01*
X317981Y249338D01*
X318113Y249351D01*
X318245Y249360D01*
X318270Y249368D01*
X318297Y249371D01*
X318422Y249417D01*
X318547Y249458D01*
X318570Y249472D01*
X318595Y249481D01*
X318704Y249557D01*
X318816Y249628D01*
X318835Y249647D01*
X318857Y249663D01*
X318943Y249763D01*
X319034Y249859D01*
X319047Y249883D01*
X319065Y249903D01*
X319124Y250022D01*
X319188Y250138D01*
X319194Y250164D01*
X319206Y250188D01*
X319234Y250318D01*
X319267Y250446D01*
X319269Y250484D01*
X319273Y250499D01*
X319272Y250521D01*
X319277Y250607D01*
X319277Y251320D01*
X319301Y251350D01*
X319436Y251511D01*
X319483Y251586D01*
X319537Y251655D01*
X319642Y251837D01*
X319755Y252015D01*
X319792Y252095D01*
X319836Y252171D01*
X319916Y252365D01*
X320004Y252557D01*
X320029Y252641D01*
X320063Y252722D01*
X320116Y252925D01*
X320177Y253127D01*
X320191Y253213D01*
X320214Y253298D01*
X320226Y253422D01*
X320273Y253715D01*
X320282Y254012D01*
X320293Y254135D01*
X320293Y255862D01*
X320289Y255928D01*
X320291Y255994D01*
X320269Y256226D01*
X320253Y256457D01*
X320240Y256521D01*
X320234Y256587D01*
X320181Y256813D01*
X320134Y257041D01*
X320112Y257103D01*
X320097Y257167D01*
X320014Y257384D01*
X319938Y257604D01*
X319908Y257662D01*
X319885Y257724D01*
X319773Y257928D01*
X319668Y258135D01*
X319631Y258189D01*
X319599Y258247D01*
X319462Y258434D01*
X319330Y258625D01*
X319286Y258674D01*
X319277Y258685D01*
X319277Y260310D01*
X319260Y260447D01*
X319256Y260491D01*
X319255Y260504D01*
X319254Y260506D01*
X319247Y260586D01*
X319240Y260605D01*
X319237Y260625D01*
X319186Y260754D01*
X319139Y260885D01*
X319128Y260902D01*
X319120Y260921D01*
X319039Y261033D01*
X318961Y261148D01*
X318945Y261162D01*
X318934Y261178D01*
X318826Y261267D01*
X318722Y261359D01*
X318704Y261368D01*
X318689Y261381D01*
X318563Y261440D01*
X318439Y261503D01*
X318419Y261508D01*
X318401Y261517D01*
X318265Y261543D01*
X318129Y261573D01*
X318108Y261572D01*
X318089Y261576D01*
X317950Y261568D01*
X317811Y261563D01*
X317791Y261558D01*
X317771Y261557D01*
X317639Y261514D01*
X317505Y261475D01*
X317488Y261465D01*
X317469Y261459D01*
X317351Y261384D01*
X317231Y261313D01*
X317210Y261295D01*
X317200Y261288D01*
X317186Y261273D01*
X317111Y261207D01*
X316193Y260290D01*
X316138Y260297D01*
X315906Y260297D01*
X315673Y260303D01*
X315608Y260296D01*
X315542Y260296D01*
X315312Y260264D01*
X315081Y260240D01*
X315017Y260224D01*
X314952Y260215D01*
X314836Y260180D01*
X314502Y260098D01*
X314264Y260004D01*
X314148Y259968D01*
X311872Y259025D01*
X309721Y259025D01*
X309590Y259016D01*
X309458Y259017D01*
X309293Y258996D01*
X309127Y258985D01*
X308997Y258959D01*
X308867Y258942D01*
X308706Y258899D01*
X308543Y258866D01*
X308418Y258823D01*
X308291Y258789D01*
X308137Y258725D01*
X307980Y258670D01*
X307863Y258610D01*
X307741Y258560D01*
X307597Y258476D01*
X307448Y258400D01*
X307340Y258325D01*
X307226Y258259D01*
X307139Y258186D01*
X306958Y258062D01*
X306660Y257791D01*
X306579Y257724D01*
X306133Y257278D01*
X306104Y257244D01*
X306071Y257215D01*
X305908Y257020D01*
X305740Y256829D01*
X305716Y256792D01*
X305688Y256758D01*
X305552Y256543D01*
X305412Y256332D01*
X305393Y256292D01*
X305369Y256255D01*
X305263Y256024D01*
X305153Y255795D01*
X305139Y255753D01*
X305121Y255713D01*
X305047Y255471D01*
X304967Y255229D01*
X304960Y255185D01*
X304947Y255143D01*
X304906Y254893D01*
X304860Y254642D01*
X304858Y254598D01*
X304851Y254560D01*
X301729Y251438D01*
X301636Y251317D01*
X301541Y251198D01*
X301539Y251192D01*
X301534Y251186D01*
X301473Y251046D01*
X301412Y250907D01*
X301411Y250901D01*
X301408Y250894D01*
X301384Y250743D01*
X301359Y250594D01*
X301359Y250587D01*
X301358Y250580D01*
X301373Y250429D01*
X301385Y250277D01*
X301387Y250270D01*
X301388Y250264D01*
X301440Y250120D01*
X301457Y250071D01*
X301416Y250092D01*
X301409Y250093D01*
X301403Y250096D01*
X301254Y250128D01*
X301106Y250162D01*
X301099Y250161D01*
X301092Y250163D01*
X300940Y250157D01*
X300788Y250152D01*
X300781Y250150D01*
X300775Y250150D01*
X300628Y250106D01*
X300482Y250064D01*
X300476Y250060D01*
X300470Y250058D01*
X300338Y249979D01*
X300208Y249902D01*
X300202Y249896D01*
X300198Y249894D01*
X300190Y249886D01*
X300087Y249796D01*
X296957Y246665D01*
X296875Y246654D01*
X296622Y246627D01*
X296579Y246617D01*
X296536Y246611D01*
X296290Y246546D01*
X296043Y246485D01*
X296002Y246469D01*
X295960Y246458D01*
X295725Y246360D01*
X295489Y246267D01*
X295450Y246245D01*
X295410Y246229D01*
X295191Y246101D01*
X294968Y245976D01*
X294933Y245950D01*
X294895Y245928D01*
X294814Y245861D01*
X294492Y245619D01*
X294335Y245465D01*
X294247Y245392D01*
X288765Y239910D01*
X287140Y238285D01*
X285832Y237743D01*
X280019Y237743D01*
X279909Y237736D01*
X279799Y237738D01*
X279612Y237716D01*
X279424Y237703D01*
X279317Y237681D01*
X279208Y237669D01*
X279025Y237622D01*
X278840Y237584D01*
X278737Y237548D01*
X278630Y237521D01*
X278455Y237450D01*
X278278Y237388D01*
X278180Y237338D01*
X278078Y237297D01*
X277914Y237204D01*
X277746Y237118D01*
X277656Y237056D01*
X277560Y237001D01*
X277411Y236887D01*
X277256Y236780D01*
X277174Y236706D01*
X277087Y236639D01*
X276954Y236506D01*
X276815Y236379D01*
X276744Y236295D01*
X276667Y236217D01*
X276553Y236067D01*
X276432Y235923D01*
X276373Y235830D01*
X276307Y235742D01*
X276250Y235635D01*
X276113Y235419D01*
X275983Y235136D01*
X272590Y231743D01*
X272532Y231676D01*
X272468Y231616D01*
X272336Y231452D01*
X272197Y231294D01*
X272149Y231220D01*
X272094Y231152D01*
X271985Y230972D01*
X271869Y230797D01*
X271831Y230718D01*
X271785Y230642D01*
X271701Y230449D01*
X271622Y230286D01*
X271552Y230217D01*
X271536Y230192D01*
X271516Y230171D01*
X271453Y230057D01*
X271385Y229946D01*
X271377Y229918D01*
X271362Y229892D01*
X271330Y229766D01*
X271292Y229642D01*
X271290Y229613D01*
X271283Y229584D01*
X271273Y229424D01*
X271273Y227776D01*
X271276Y227747D01*
X271274Y227718D01*
X271296Y227590D01*
X271313Y227461D01*
X271323Y227433D01*
X271328Y227404D01*
X271382Y227286D01*
X271430Y227165D01*
X271447Y227141D01*
X271459Y227114D01*
X271540Y227013D01*
X271616Y226908D01*
X271637Y226891D01*
X271678Y226778D01*
X271720Y226701D01*
X271754Y226620D01*
X271860Y226438D01*
X271959Y226252D01*
X272010Y226181D01*
X272054Y226105D01*
X272133Y226010D01*
X272307Y225769D01*
X272511Y225553D01*
X272590Y225457D01*
X275960Y222087D01*
X277623Y218073D01*
X277623Y213727D01*
X275960Y209713D01*
X272887Y206640D01*
X268873Y204977D01*
X266065Y204977D01*
X265977Y204971D01*
X265889Y204974D01*
X265680Y204951D01*
X265470Y204937D01*
X265384Y204920D01*
X265297Y204910D01*
X265093Y204860D01*
X264886Y204818D01*
X264803Y204789D01*
X264718Y204768D01*
X264522Y204691D01*
X264324Y204622D01*
X264245Y204582D01*
X264164Y204550D01*
X263980Y204448D01*
X263792Y204352D01*
X263720Y204302D01*
X263643Y204260D01*
X263630Y204249D01*
X261305Y205212D01*
X261238Y205231D01*
X261174Y205258D01*
X261085Y205272D01*
X260999Y205296D01*
X260929Y205297D01*
X260860Y205308D01*
X260770Y205300D01*
X260681Y205301D01*
X260613Y205285D01*
X260543Y205278D01*
X260459Y205248D01*
X260371Y205227D01*
X260310Y205194D01*
X260244Y205171D01*
X260170Y205120D01*
X260090Y205078D01*
X260039Y205031D01*
X259981Y204992D01*
X259921Y204925D01*
X259855Y204864D01*
X259817Y204806D01*
X259770Y204754D01*
X259730Y204674D01*
X259680Y204599D01*
X259657Y204533D01*
X259626Y204470D01*
X259606Y204383D01*
X259577Y204298D01*
X259571Y204228D01*
X259556Y204160D01*
X259559Y204070D01*
X259552Y203981D01*
X259564Y203912D01*
X259566Y203842D01*
X259591Y203756D01*
X259606Y203667D01*
X259635Y203604D01*
X259654Y203537D01*
X259700Y203459D01*
X259737Y203377D01*
X259780Y203323D01*
X259816Y203263D01*
X259922Y203142D01*
X261700Y201364D01*
X261688Y201246D01*
X261641Y200953D01*
X261632Y200656D01*
X261621Y200533D01*
X261621Y198501D01*
X261627Y198413D01*
X261624Y198325D01*
X261647Y198116D01*
X261661Y197906D01*
X261678Y197820D01*
X261688Y197733D01*
X261738Y197529D01*
X261780Y197322D01*
X261809Y197239D01*
X261830Y197154D01*
X261907Y196958D01*
X261976Y196760D01*
X262016Y196681D01*
X262048Y196600D01*
X262150Y196416D01*
X262246Y196228D01*
X262296Y196156D01*
X262338Y196079D01*
X262465Y195911D01*
X262584Y195738D01*
X262643Y195673D01*
X262696Y195602D01*
X262844Y195452D01*
X262985Y195297D01*
X263052Y195240D01*
X263114Y195178D01*
X263280Y195049D01*
X263441Y194914D01*
X263516Y194867D01*
X263585Y194813D01*
X263767Y194708D01*
X263945Y194595D01*
X264025Y194558D01*
X264101Y194514D01*
X264295Y194434D01*
X264487Y194346D01*
X264571Y194321D01*
X264652Y194287D01*
X264855Y194234D01*
X265057Y194173D01*
X265143Y194159D01*
X265228Y194136D01*
X265352Y194124D01*
X265645Y194077D01*
X265942Y194068D01*
X266065Y194057D01*
X292807Y194057D01*
X294115Y193515D01*
X311322Y176308D01*
X311421Y176222D01*
X311513Y176128D01*
X311645Y176026D01*
X311770Y175916D01*
X311880Y175844D01*
X311984Y175763D01*
X312129Y175679D01*
X312267Y175588D01*
X312386Y175530D01*
X312500Y175464D01*
X312654Y175401D01*
X312804Y175328D01*
X312930Y175287D01*
X313051Y175237D01*
X313212Y175195D01*
X313371Y175143D01*
X313500Y175120D01*
X313628Y175086D01*
X313741Y175075D01*
X313957Y175036D01*
X314358Y175017D01*
X314464Y175007D01*
X315849Y175007D01*
X315937Y175013D01*
X316025Y175010D01*
X316234Y175033D01*
X316444Y175047D01*
X316530Y175064D01*
X316617Y175074D01*
X316821Y175124D01*
X317028Y175166D01*
X317111Y175195D01*
X317196Y175216D01*
X317392Y175293D01*
X317590Y175362D01*
X317669Y175402D01*
X317750Y175434D01*
X317934Y175536D01*
X318122Y175632D01*
X318194Y175682D01*
X318271Y175724D01*
X318439Y175851D01*
X318612Y175970D01*
X318677Y176029D01*
X318748Y176082D01*
X318898Y176230D01*
X319053Y176371D01*
X319110Y176438D01*
X319172Y176500D01*
X319301Y176666D01*
X319436Y176827D01*
X319483Y176902D01*
X319537Y176971D01*
X319642Y177153D01*
X319755Y177331D01*
X319792Y177411D01*
X319836Y177487D01*
X319916Y177681D01*
X320004Y177873D01*
X320029Y177957D01*
X320063Y178038D01*
X320116Y178241D01*
X320177Y178443D01*
X320191Y178529D01*
X320214Y178614D01*
X320226Y178738D01*
X320273Y179031D01*
X320282Y179328D01*
X320293Y179451D01*
X320293Y228165D01*
X320287Y228253D01*
X320290Y228341D01*
X320267Y228550D01*
X320253Y228760D01*
X320236Y228846D01*
X320226Y228933D01*
X320176Y229137D01*
X320134Y229344D01*
X320105Y229427D01*
X320084Y229512D01*
X320007Y229708D01*
X319938Y229906D01*
X319898Y229985D01*
X319866Y230066D01*
X319764Y230250D01*
X319668Y230438D01*
X319618Y230510D01*
X319576Y230587D01*
X319449Y230755D01*
X319330Y230928D01*
X319277Y230986D01*
X319277Y231693D01*
X319261Y231825D01*
X319250Y231957D01*
X319241Y231982D01*
X319237Y232009D01*
X319189Y232132D01*
X319145Y232257D01*
X319130Y232280D01*
X319120Y232305D01*
X319043Y232412D01*
X318969Y232522D01*
X318949Y232540D01*
X318934Y232562D01*
X318832Y232646D01*
X318733Y232735D01*
X318709Y232748D01*
X318689Y232765D01*
X318569Y232821D01*
X318451Y232883D01*
X318425Y232889D01*
X318401Y232900D01*
X318271Y232925D01*
X318142Y232956D01*
X318115Y232955D01*
X318089Y232960D01*
X317957Y232952D01*
X317824Y232949D01*
X317798Y232942D01*
X317771Y232940D01*
X317645Y232900D01*
X317518Y232864D01*
X317483Y232847D01*
X317469Y232842D01*
X317450Y232831D01*
X317373Y232793D01*
X317356Y232782D01*
X316709Y232609D01*
X314819Y232609D01*
X314819Y241150D01*
G37*
%LPC*%
G36*
X109778Y374175D02*
X109778Y374175D01*
X108885Y375068D01*
X108885Y412332D01*
X109778Y413225D01*
X133042Y413225D01*
X133935Y412332D01*
X133935Y375068D01*
X133042Y374175D01*
X109778Y374175D01*
G37*
%LPD*%
%LPC*%
G36*
X381000Y188594D02*
X381000Y188594D01*
X368326Y188594D01*
X368538Y188913D01*
X368544Y188920D01*
X368551Y188932D01*
X368872Y189413D01*
X369062Y189602D01*
X369135Y189697D01*
X369214Y189786D01*
X369232Y189822D01*
X369257Y189854D01*
X369304Y189963D01*
X369358Y190069D01*
X369367Y190108D01*
X369383Y190146D01*
X369402Y190263D01*
X369428Y190379D01*
X369427Y190420D01*
X369433Y190460D01*
X369422Y190578D01*
X369418Y190697D01*
X369407Y190736D01*
X369403Y190776D01*
X369363Y190888D01*
X369330Y191003D01*
X369310Y191037D01*
X369307Y191045D01*
X369308Y191089D01*
X369316Y191147D01*
X369315Y191386D01*
X369321Y191626D01*
X369315Y191684D01*
X369314Y191743D01*
X369282Y191980D01*
X369256Y192218D01*
X369241Y192275D01*
X369233Y192334D01*
X369199Y192446D01*
X369112Y192796D01*
X369022Y193023D01*
X368987Y193137D01*
X368045Y195410D01*
X368045Y198290D01*
X369147Y200951D01*
X371184Y202988D01*
X373845Y204090D01*
X388155Y204090D01*
X390816Y202988D01*
X392853Y200951D01*
X393955Y198290D01*
X393955Y195410D01*
X393013Y193137D01*
X392994Y193081D01*
X392970Y193028D01*
X392899Y192799D01*
X392823Y192572D01*
X392811Y192515D01*
X392794Y192458D01*
X392755Y192222D01*
X392709Y191987D01*
X392706Y191929D01*
X392696Y191870D01*
X392689Y191631D01*
X392675Y191392D01*
X392680Y191334D01*
X392678Y191275D01*
X392701Y191050D01*
X392696Y191037D01*
X392641Y190931D01*
X392633Y190891D01*
X392617Y190854D01*
X392598Y190737D01*
X392572Y190621D01*
X392573Y190580D01*
X392567Y190540D01*
X392578Y190421D01*
X392582Y190303D01*
X392593Y190264D01*
X392597Y190224D01*
X392637Y190111D01*
X392670Y189997D01*
X392690Y189962D01*
X392704Y189924D01*
X392771Y189826D01*
X392832Y189723D01*
X392871Y189678D01*
X392883Y189661D01*
X392898Y189648D01*
X392938Y189602D01*
X393128Y189413D01*
X393674Y188594D01*
X381000Y188594D01*
X381000Y188594D01*
G37*
%LPD*%
%LPC*%
G36*
X381000Y391794D02*
X381000Y391794D01*
X368326Y391794D01*
X368538Y392113D01*
X368544Y392120D01*
X368551Y392132D01*
X368872Y392613D01*
X369062Y392802D01*
X369135Y392897D01*
X369214Y392986D01*
X369232Y393022D01*
X369257Y393054D01*
X369304Y393163D01*
X369358Y393269D01*
X369367Y393308D01*
X369383Y393346D01*
X369402Y393463D01*
X369428Y393579D01*
X369427Y393620D01*
X369433Y393660D01*
X369422Y393778D01*
X369418Y393897D01*
X369407Y393936D01*
X369403Y393976D01*
X369363Y394088D01*
X369330Y394203D01*
X369310Y394237D01*
X369307Y394245D01*
X369308Y394289D01*
X369316Y394347D01*
X369315Y394586D01*
X369321Y394826D01*
X369315Y394884D01*
X369314Y394943D01*
X369282Y395180D01*
X369256Y395418D01*
X369241Y395475D01*
X369233Y395534D01*
X369199Y395646D01*
X369112Y395996D01*
X369022Y396223D01*
X368987Y396337D01*
X368045Y398610D01*
X368045Y401490D01*
X369147Y404151D01*
X371184Y406188D01*
X373845Y407290D01*
X388155Y407290D01*
X390816Y406188D01*
X392853Y404151D01*
X393955Y401490D01*
X393955Y398610D01*
X393013Y396337D01*
X392994Y396281D01*
X392970Y396228D01*
X392899Y395999D01*
X392823Y395772D01*
X392811Y395715D01*
X392794Y395658D01*
X392755Y395422D01*
X392709Y395187D01*
X392706Y395129D01*
X392696Y395070D01*
X392689Y394831D01*
X392675Y394592D01*
X392680Y394534D01*
X392678Y394475D01*
X392701Y394250D01*
X392696Y394237D01*
X392641Y394131D01*
X392633Y394091D01*
X392617Y394054D01*
X392598Y393937D01*
X392572Y393821D01*
X392573Y393780D01*
X392567Y393740D01*
X392578Y393621D01*
X392582Y393503D01*
X392593Y393464D01*
X392597Y393424D01*
X392637Y393311D01*
X392670Y393197D01*
X392690Y393162D01*
X392704Y393124D01*
X392771Y393026D01*
X392832Y392923D01*
X392871Y392878D01*
X392883Y392861D01*
X392898Y392848D01*
X392938Y392802D01*
X393128Y392613D01*
X393674Y391794D01*
X381000Y391794D01*
X381000Y391794D01*
G37*
%LPD*%
%LPC*%
G36*
X383539Y281939D02*
X383539Y281939D01*
X383539Y287656D01*
X397759Y287656D01*
X397728Y287594D01*
X397310Y286775D01*
X396370Y285481D01*
X395239Y284350D01*
X394410Y283747D01*
X393945Y283410D01*
X392520Y282684D01*
X390999Y282189D01*
X389420Y281939D01*
X383539Y281939D01*
G37*
%LPD*%
%LPC*%
G36*
X378461Y281939D02*
X378461Y281939D01*
X372580Y281939D01*
X371001Y282189D01*
X369480Y282684D01*
X368055Y283410D01*
X367590Y283747D01*
X366761Y284350D01*
X365630Y285481D01*
X364690Y286775D01*
X364241Y287656D01*
X378461Y287656D01*
X378461Y281939D01*
G37*
%LPD*%
%LPC*%
G36*
X39357Y318774D02*
X39357Y318774D01*
X39452Y319251D01*
X40124Y320873D01*
X41100Y322333D01*
X41679Y322913D01*
X41680Y322913D01*
X42217Y323451D01*
X42927Y323966D01*
X43509Y324355D01*
X44290Y324753D01*
X44936Y325021D01*
X45770Y325292D01*
X46458Y325429D01*
X47323Y325566D01*
X49956Y325566D01*
X49956Y318774D01*
X39357Y318774D01*
G37*
%LPD*%
%LPC*%
G36*
X385444Y296544D02*
X385444Y296544D01*
X385444Y302261D01*
X389420Y302261D01*
X390999Y302011D01*
X392520Y301516D01*
X393945Y300790D01*
X395239Y299850D01*
X396370Y298719D01*
X397310Y297425D01*
X397524Y297006D01*
X397759Y296544D01*
X385444Y296544D01*
G37*
%LPD*%
%LPC*%
G36*
X364241Y296544D02*
X364241Y296544D01*
X364476Y297006D01*
X364690Y297425D01*
X365630Y298719D01*
X366761Y299850D01*
X368055Y300790D01*
X369480Y301516D01*
X371001Y302011D01*
X372580Y302261D01*
X376556Y302261D01*
X376556Y296544D01*
X364241Y296544D01*
G37*
%LPD*%
%LPC*%
G36*
X61477Y251066D02*
X61477Y251066D01*
X62342Y250929D01*
X63030Y250792D01*
X63864Y250521D01*
X64510Y250253D01*
X65291Y249855D01*
X65874Y249466D01*
X66583Y248951D01*
X67576Y247958D01*
X68091Y247249D01*
X68480Y246666D01*
X68517Y246594D01*
X56524Y246594D01*
X56524Y251066D01*
X61477Y251066D01*
G37*
%LPD*%
%LPC*%
G36*
X56524Y312206D02*
X56524Y312206D01*
X68517Y312206D01*
X68480Y312134D01*
X68091Y311551D01*
X67576Y310842D01*
X66583Y309849D01*
X65874Y309334D01*
X65291Y308945D01*
X64510Y308547D01*
X63864Y308279D01*
X63030Y308008D01*
X62342Y307871D01*
X61477Y307734D01*
X56524Y307734D01*
X56524Y312206D01*
G37*
%LPD*%
%LPC*%
G36*
X56524Y237706D02*
X56524Y237706D01*
X68517Y237706D01*
X68480Y237634D01*
X68091Y237051D01*
X67576Y236342D01*
X66583Y235349D01*
X65874Y234834D01*
X65291Y234445D01*
X64510Y234047D01*
X63864Y233779D01*
X63030Y233508D01*
X62342Y233371D01*
X61477Y233234D01*
X56524Y233234D01*
X56524Y237706D01*
G37*
%LPD*%
%LPC*%
G36*
X187832Y375030D02*
X187832Y375030D01*
X187832Y379223D01*
X194898Y379223D01*
X195545Y379050D01*
X195906Y378841D01*
X196184Y378656D01*
X196538Y378302D01*
X196723Y378024D01*
X196848Y377808D01*
X196975Y377500D01*
X197040Y377259D01*
X197105Y376932D01*
X197105Y375030D01*
X187832Y375030D01*
G37*
%LPD*%
%LPC*%
G36*
X169671Y375030D02*
X169671Y375030D01*
X169671Y376932D01*
X169736Y377259D01*
X169801Y377500D01*
X169928Y377808D01*
X170053Y378024D01*
X170238Y378302D01*
X170592Y378656D01*
X170870Y378841D01*
X171231Y379050D01*
X171878Y379223D01*
X178944Y379223D01*
X178944Y375030D01*
X169671Y375030D01*
G37*
%LPD*%
%LPC*%
G36*
X272358Y396967D02*
X272358Y396967D01*
X270844Y396195D01*
X269228Y395670D01*
X268449Y395547D01*
X268449Y401756D01*
X276552Y401756D01*
X275933Y400542D01*
X275773Y400321D01*
X274934Y399167D01*
X273733Y397965D01*
X272358Y396967D01*
G37*
%LPD*%
%LPC*%
G36*
X257627Y400321D02*
X257627Y400321D01*
X257467Y400542D01*
X257341Y400789D01*
X256848Y401756D01*
X264951Y401756D01*
X264951Y395547D01*
X264172Y395670D01*
X262556Y396195D01*
X261042Y396967D01*
X259667Y397965D01*
X258466Y399167D01*
X257627Y400321D01*
G37*
%LPD*%
%LPC*%
G36*
X58844Y321094D02*
X58844Y321094D01*
X58844Y325566D01*
X61477Y325566D01*
X62342Y325429D01*
X63030Y325292D01*
X63864Y325021D01*
X64510Y324753D01*
X65291Y324355D01*
X65874Y323966D01*
X66583Y323451D01*
X67576Y322458D01*
X68091Y321749D01*
X68480Y321166D01*
X68517Y321094D01*
X58844Y321094D01*
G37*
%LPD*%
%LPC*%
G36*
X55669Y265131D02*
X55669Y265131D01*
X60837Y265131D01*
X60856Y265053D01*
X60910Y264915D01*
X60955Y264773D01*
X61019Y264638D01*
X61074Y264498D01*
X61147Y264369D01*
X61210Y264234D01*
X61292Y264109D01*
X61365Y263978D01*
X61454Y263859D01*
X61535Y263735D01*
X61632Y263621D01*
X61722Y263501D01*
X61827Y263395D01*
X61923Y263283D01*
X62035Y263183D01*
X62140Y263077D01*
X62258Y262986D01*
X62369Y262887D01*
X62493Y262803D01*
X62611Y262712D01*
X62740Y262637D01*
X62863Y262554D01*
X62883Y262545D01*
X62874Y262530D01*
X62520Y262176D01*
X62242Y261991D01*
X62026Y261866D01*
X61718Y261739D01*
X61477Y261674D01*
X61150Y261609D01*
X55669Y261609D01*
X55669Y265131D01*
G37*
%LPD*%
%LPC*%
G36*
X271144Y410644D02*
X271144Y410644D01*
X271144Y416052D01*
X272358Y415433D01*
X273733Y414434D01*
X274934Y413233D01*
X275933Y411858D01*
X276202Y411330D01*
X276552Y410644D01*
X271144Y410644D01*
G37*
%LPD*%
%LPC*%
G36*
X256848Y410644D02*
X256848Y410644D01*
X257198Y411330D01*
X257467Y411858D01*
X258466Y413233D01*
X259667Y414434D01*
X261042Y415433D01*
X261802Y415821D01*
X262256Y416052D01*
X262256Y410644D01*
X256848Y410644D01*
G37*
%LPD*%
%LPC*%
G36*
X301834Y245594D02*
X301834Y245594D01*
X301834Y247484D01*
X302007Y248131D01*
X302084Y248263D01*
X302143Y248404D01*
X302204Y248544D01*
X302205Y248550D01*
X302207Y248557D01*
X302229Y248706D01*
X302254Y248858D01*
X302253Y248865D01*
X302254Y248871D01*
X302238Y249021D01*
X302224Y249174D01*
X302221Y249181D01*
X302221Y249188D01*
X302168Y249329D01*
X302155Y249366D01*
X302183Y249351D01*
X302190Y249349D01*
X302196Y249346D01*
X302345Y249313D01*
X302493Y249278D01*
X302500Y249278D01*
X302506Y249277D01*
X302659Y249281D01*
X302811Y249284D01*
X302817Y249286D01*
X302824Y249286D01*
X302970Y249328D01*
X303117Y249369D01*
X303126Y249373D01*
X303130Y249375D01*
X303138Y249380D01*
X303262Y249441D01*
X303394Y249518D01*
X304041Y249691D01*
X305931Y249691D01*
X305931Y245594D01*
X301834Y245594D01*
G37*
%LPD*%
%LPC*%
G36*
X304125Y232609D02*
X304125Y232609D01*
X303798Y232674D01*
X303557Y232739D01*
X303249Y232866D01*
X303033Y232991D01*
X302755Y233176D01*
X302401Y233530D01*
X302216Y233808D01*
X302091Y234024D01*
X301964Y234332D01*
X301899Y234573D01*
X301834Y234900D01*
X301834Y236706D01*
X305931Y236706D01*
X305931Y232609D01*
X304125Y232609D01*
G37*
%LPD*%
%LPC*%
G36*
X220344Y423544D02*
X220344Y423544D01*
X220344Y426870D01*
X223670Y423544D01*
X220344Y423544D01*
G37*
%LPD*%
%LPC*%
G36*
X220344Y414656D02*
X220344Y414656D01*
X223670Y414656D01*
X220344Y411330D01*
X220344Y414656D01*
G37*
%LPD*%
D10*
X266700Y381200D03*
D11*
X266700Y406200D03*
D12*
X215900Y368300D03*
X215900Y419100D03*
D13*
X375285Y184150D02*
X386715Y184150D01*
X386715Y196850D02*
X375285Y196850D01*
X375285Y171450D02*
X386715Y171450D01*
X386715Y158750D02*
X375285Y158750D01*
X375285Y387350D02*
X386715Y387350D01*
X386715Y400050D02*
X375285Y400050D01*
X375285Y374650D02*
X386715Y374650D01*
X386715Y361950D02*
X375285Y361950D01*
X56515Y387350D02*
X45085Y387350D01*
X45085Y400050D02*
X56515Y400050D01*
X56515Y374650D02*
X45085Y374650D01*
X45085Y361950D02*
X56515Y361950D01*
X56515Y184150D02*
X45085Y184150D01*
X45085Y196850D02*
X56515Y196850D01*
X56515Y171450D02*
X45085Y171450D01*
X45085Y158750D02*
X56515Y158750D01*
D14*
X54400Y292400D03*
X54400Y285900D03*
X54400Y279400D03*
X54400Y272900D03*
X54400Y266400D03*
D15*
X48025Y316650D02*
X60775Y316650D01*
X60775Y242150D02*
X48025Y242150D01*
D16*
X20900Y318150D02*
X11900Y318150D01*
X11900Y240650D02*
X20900Y240650D01*
D17*
X373380Y292100D02*
X388620Y292100D01*
X388620Y266700D02*
X373380Y266700D01*
D18*
X114300Y177800D03*
X127000Y196850D03*
X139700Y177800D03*
X203200Y177800D03*
X190500Y196850D03*
X177800Y177800D03*
X266700Y177800D03*
X254000Y196850D03*
X241300Y177800D03*
D19*
X88900Y139700D03*
X165100Y139700D03*
X190500Y317500D03*
X266700Y317500D03*
X266700Y342900D03*
X190500Y342900D03*
X190500Y139700D03*
X266700Y139700D03*
X190500Y266700D03*
X266700Y266700D03*
X266700Y292100D03*
X190500Y292100D03*
X292100Y139700D03*
X368300Y139700D03*
X190500Y215900D03*
X266700Y215900D03*
X266700Y241300D03*
X190500Y241300D03*
D20*
X310375Y241150D03*
X310375Y317350D03*
D21*
X310375Y266550D03*
X310375Y291950D03*
X335775Y291950D03*
X335775Y266550D03*
X335775Y241150D03*
X335775Y317350D03*
D22*
X183388Y370586D03*
X183388Y393700D03*
X183388Y416814D03*
D23*
X121410Y393700D03*
D24*
X54864Y292608D02*
X54400Y292400D01*
X184880Y355600D02*
X185134Y355854D01*
X184880Y355600D02*
X177800Y355600D01*
X203454Y355854D02*
X215900Y368300D01*
X203454Y355854D02*
X185134Y355854D01*
X177800Y355600D02*
X114300Y292100D01*
X54700Y292100D01*
X54600Y292201D01*
X183388Y416814D02*
X215900Y384302D01*
X215900Y368300D01*
X335925Y241300D02*
X335775Y241150D01*
X335925Y241300D02*
X355600Y241300D01*
X381000Y266700D01*
X101600Y152400D02*
X88900Y139700D01*
X101600Y152400D02*
X127000Y152400D01*
X139700Y165100D01*
X139700Y177800D01*
X266700Y317500D02*
X266700Y342900D01*
X266700Y317500D02*
X310225Y317500D01*
X310375Y317350D01*
X183388Y393700D02*
X165100Y393700D01*
X152400Y406400D01*
X152400Y419100D01*
X165100Y431800D01*
X203200Y406400D02*
X228400Y381200D01*
X266700Y381200D01*
X335775Y317350D02*
X335775Y291950D01*
X335775Y266550D01*
X215900Y342900D02*
X190500Y342900D01*
X215900Y342900D02*
X228400Y355400D01*
X228400Y381200D01*
X203454Y312134D02*
X203200Y311880D01*
X203200Y304800D01*
X203454Y329946D02*
X190500Y342900D01*
X203454Y329946D02*
X203454Y312134D01*
X203200Y304800D02*
X190500Y292100D01*
X203454Y261334D02*
X203200Y261080D01*
X203200Y254000D01*
X190500Y241300D01*
X203454Y279146D02*
X190500Y292100D01*
X203454Y279146D02*
X203454Y261334D01*
X193040Y431800D02*
X165100Y431800D01*
X193040Y431800D02*
X203200Y421640D01*
X203200Y406400D01*
X323850Y171450D02*
X381000Y171450D01*
X323850Y171450D02*
X311150Y171450D01*
X292100Y190500D01*
X262018Y190500D01*
X258208Y186690D01*
X250190Y186690D01*
X241300Y177800D01*
X378206Y371856D02*
X381000Y374650D01*
X378206Y371856D02*
X370547Y371856D01*
X364744Y366053D01*
X364744Y364744D01*
X323850Y323850D02*
X323850Y171450D01*
X323850Y323850D02*
X364744Y364744D01*
X120650Y158750D02*
X50800Y158750D01*
X120650Y158750D02*
X127000Y165100D01*
X127000Y179468D02*
X138032Y190500D01*
X165100Y190500D01*
X177800Y177800D01*
X127000Y179468D02*
X127000Y165100D01*
X362680Y152400D02*
X362934Y152654D01*
X374904Y152654D02*
X381000Y158750D01*
X374904Y152654D02*
X362934Y152654D01*
X159734Y126746D02*
X159480Y127000D01*
X152400Y127000D01*
X297466Y126746D02*
X323120Y152400D01*
X297466Y126746D02*
X159734Y126746D01*
X152400Y127000D02*
X139700Y139700D01*
X177800Y177800D01*
X323120Y152400D02*
X362680Y152400D01*
X50800Y196850D02*
X50800Y224329D01*
X27708Y247421D01*
X27708Y311107D01*
X30536Y313935D01*
X30536Y388564D01*
X48006Y397256D02*
X50800Y400050D01*
X48006Y397256D02*
X40347Y397256D01*
X31655Y388564D02*
X30536Y388564D01*
X31655Y388564D02*
X40347Y397256D01*
X50800Y196850D02*
X95250Y196850D01*
X114300Y177800D01*
D25*
X218440Y415544D02*
X215900Y418084D01*
X215900Y419100D01*
X182880Y371856D02*
X183388Y370586D01*
X16764Y316992D02*
X16764Y241300D01*
X16764Y240792D01*
X16400Y240650D01*
X16764Y316992D02*
X16400Y318150D01*
X54864Y265176D02*
X59436Y260604D01*
X59436Y246888D01*
X54864Y242316D01*
X54864Y265176D02*
X54400Y266400D01*
X54864Y242316D02*
X54400Y242150D01*
D24*
X183388Y370586D02*
X183388Y371399D01*
X69850Y387350D02*
X50800Y387350D01*
X69850Y387350D02*
X76200Y381000D01*
X76200Y368300D01*
X76200Y338450D01*
X54475Y316725D01*
X78486Y370586D02*
X183388Y370586D01*
X78486Y370586D02*
X76200Y368300D01*
X253800Y419100D02*
X266700Y406200D01*
X253800Y419100D02*
X215900Y419100D01*
X391453Y384556D02*
X397256Y378753D01*
X383794Y384556D02*
X381000Y387350D01*
X383794Y384556D02*
X391453Y384556D01*
X381000Y341591D02*
X381000Y292100D01*
X397256Y357847D02*
X397256Y378753D01*
X397256Y357847D02*
X381000Y341591D01*
X50800Y184150D02*
X48006Y186944D01*
X40347Y186944D01*
X16764Y210527D01*
X16764Y241300D01*
X381000Y184150D02*
X383794Y186944D01*
X391453Y186944D01*
X399796Y195287D01*
X399796Y282194D01*
X389890Y292100D02*
X381000Y292100D01*
X389890Y292100D02*
X399796Y282194D01*
X190500Y165100D02*
X190500Y139700D01*
X190500Y165100D02*
X203200Y177800D01*
X266700Y266700D02*
X266700Y292100D01*
X310225Y292100D01*
X310375Y291950D01*
X266700Y177800D02*
X292100Y152400D01*
X292100Y139700D01*
X285125Y241300D02*
X310375Y266550D01*
X285125Y241300D02*
X266700Y241300D01*
X266700Y215900D01*
X234950Y215900D02*
X190500Y215900D01*
X234950Y215900D02*
X254000Y196850D01*
M02*
