G04 EAGLE Gerber RS-274X export*
G75*
%MOMM*%
%FSLAX34Y34*%
%LPD*%
%IN*%
%IPPOS*%
%AMOC8*
5,1,8,0,0,1.08239X$1,22.5*%
G01*
%ADD10C,0.254000*%


D10*
X0Y114300D02*
X418900Y114300D01*
X418900Y445010D01*
X0Y445010D01*
X0Y114300D01*
X50150Y237900D02*
X58650Y237900D01*
X59020Y237916D01*
X59388Y237965D01*
X59750Y238045D01*
X60104Y238156D01*
X60446Y238298D01*
X60775Y238469D01*
X61088Y238669D01*
X61382Y238894D01*
X61655Y239145D01*
X61906Y239418D01*
X62131Y239712D01*
X62331Y240025D01*
X62502Y240354D01*
X62644Y240696D01*
X62755Y241050D01*
X62835Y241412D01*
X62884Y241780D01*
X62900Y242150D01*
X62884Y242520D01*
X62835Y242888D01*
X62755Y243250D01*
X62644Y243604D01*
X62502Y243946D01*
X62331Y244275D01*
X62131Y244588D01*
X61906Y244882D01*
X61655Y245155D01*
X61382Y245406D01*
X61088Y245631D01*
X60775Y245831D01*
X60446Y246002D01*
X60104Y246144D01*
X59750Y246255D01*
X59388Y246335D01*
X59020Y246384D01*
X58650Y246400D01*
X50150Y246400D01*
X49780Y246384D01*
X49412Y246335D01*
X49050Y246255D01*
X48696Y246144D01*
X48354Y246002D01*
X48025Y245831D01*
X47712Y245631D01*
X47418Y245406D01*
X47145Y245155D01*
X46894Y244882D01*
X46669Y244588D01*
X46469Y244275D01*
X46298Y243946D01*
X46156Y243604D01*
X46045Y243250D01*
X45965Y242888D01*
X45916Y242520D01*
X45900Y242150D01*
X45916Y241780D01*
X45965Y241412D01*
X46045Y241050D01*
X46156Y240696D01*
X46298Y240354D01*
X46469Y240025D01*
X46669Y239712D01*
X46894Y239418D01*
X47145Y239145D01*
X47418Y238894D01*
X47712Y238669D01*
X48025Y238469D01*
X48354Y238298D01*
X48696Y238156D01*
X49050Y238045D01*
X49412Y237965D01*
X49780Y237916D01*
X50150Y237900D01*
X13150Y237900D02*
X19650Y237900D01*
X19890Y237910D01*
X20128Y237942D01*
X20362Y237994D01*
X20591Y238066D01*
X20812Y238158D01*
X21025Y238268D01*
X21227Y238397D01*
X21418Y238543D01*
X21595Y238705D01*
X21757Y238882D01*
X21903Y239073D01*
X22032Y239275D01*
X22142Y239488D01*
X22234Y239709D01*
X22306Y239938D01*
X22358Y240172D01*
X22390Y240410D01*
X22400Y240650D01*
X22390Y240890D01*
X22358Y241128D01*
X22306Y241362D01*
X22234Y241591D01*
X22142Y241812D01*
X22032Y242025D01*
X21903Y242227D01*
X21757Y242418D01*
X21595Y242595D01*
X21418Y242757D01*
X21227Y242903D01*
X21025Y243032D01*
X20812Y243142D01*
X20591Y243234D01*
X20362Y243306D01*
X20128Y243358D01*
X19890Y243390D01*
X19650Y243400D01*
X13150Y243400D01*
X12910Y243390D01*
X12672Y243358D01*
X12438Y243306D01*
X12209Y243234D01*
X11988Y243142D01*
X11775Y243032D01*
X11573Y242903D01*
X11382Y242757D01*
X11205Y242595D01*
X11043Y242418D01*
X10897Y242227D01*
X10768Y242025D01*
X10658Y241812D01*
X10566Y241591D01*
X10494Y241362D01*
X10442Y241128D01*
X10410Y240890D01*
X10400Y240650D01*
X10410Y240410D01*
X10442Y240172D01*
X10494Y239938D01*
X10566Y239709D01*
X10658Y239488D01*
X10768Y239275D01*
X10897Y239073D01*
X11043Y238882D01*
X11205Y238705D01*
X11382Y238543D01*
X11573Y238397D01*
X11775Y238268D01*
X11988Y238158D01*
X12209Y238066D01*
X12438Y237994D01*
X12672Y237942D01*
X12910Y237910D01*
X13150Y237900D01*
X13150Y315400D02*
X19650Y315400D01*
X19890Y315410D01*
X20128Y315442D01*
X20362Y315494D01*
X20591Y315566D01*
X20812Y315658D01*
X21025Y315768D01*
X21227Y315897D01*
X21418Y316043D01*
X21595Y316205D01*
X21757Y316382D01*
X21903Y316573D01*
X22032Y316775D01*
X22142Y316988D01*
X22234Y317209D01*
X22306Y317438D01*
X22358Y317672D01*
X22390Y317910D01*
X22400Y318150D01*
X22390Y318390D01*
X22358Y318628D01*
X22306Y318862D01*
X22234Y319091D01*
X22142Y319312D01*
X22032Y319525D01*
X21903Y319727D01*
X21757Y319918D01*
X21595Y320095D01*
X21418Y320257D01*
X21227Y320403D01*
X21025Y320532D01*
X20812Y320642D01*
X20591Y320734D01*
X20362Y320806D01*
X20128Y320858D01*
X19890Y320890D01*
X19650Y320900D01*
X13150Y320900D01*
X12910Y320890D01*
X12672Y320858D01*
X12438Y320806D01*
X12209Y320734D01*
X11988Y320642D01*
X11775Y320532D01*
X11573Y320403D01*
X11382Y320257D01*
X11205Y320095D01*
X11043Y319918D01*
X10897Y319727D01*
X10768Y319525D01*
X10658Y319312D01*
X10566Y319091D01*
X10494Y318862D01*
X10442Y318628D01*
X10410Y318390D01*
X10400Y318150D01*
X10410Y317910D01*
X10442Y317672D01*
X10494Y317438D01*
X10566Y317209D01*
X10658Y316988D01*
X10768Y316775D01*
X10897Y316573D01*
X11043Y316382D01*
X11205Y316205D01*
X11382Y316043D01*
X11573Y315897D01*
X11775Y315768D01*
X11988Y315658D01*
X12209Y315566D01*
X12438Y315494D01*
X12672Y315442D01*
X12910Y315410D01*
X13150Y315400D01*
X50150Y312400D02*
X58650Y312400D01*
X59020Y312416D01*
X59388Y312465D01*
X59750Y312545D01*
X60104Y312656D01*
X60446Y312798D01*
X60775Y312969D01*
X61088Y313169D01*
X61382Y313394D01*
X61655Y313645D01*
X61906Y313918D01*
X62131Y314212D01*
X62331Y314525D01*
X62502Y314854D01*
X62644Y315196D01*
X62755Y315550D01*
X62835Y315912D01*
X62884Y316280D01*
X62900Y316650D01*
X62884Y317020D01*
X62835Y317388D01*
X62755Y317750D01*
X62644Y318104D01*
X62502Y318446D01*
X62331Y318775D01*
X62131Y319088D01*
X61906Y319382D01*
X61655Y319655D01*
X61382Y319906D01*
X61088Y320131D01*
X60775Y320331D01*
X60446Y320502D01*
X60104Y320644D01*
X59750Y320755D01*
X59388Y320835D01*
X59020Y320884D01*
X58650Y320900D01*
X50150Y320900D01*
X49780Y320884D01*
X49412Y320835D01*
X49050Y320755D01*
X48696Y320644D01*
X48354Y320502D01*
X48025Y320331D01*
X47712Y320131D01*
X47418Y319906D01*
X47145Y319655D01*
X46894Y319382D01*
X46669Y319088D01*
X46469Y318775D01*
X46298Y318446D01*
X46156Y318104D01*
X46045Y317750D01*
X45965Y317388D01*
X45916Y317020D01*
X45900Y316650D01*
X45916Y316280D01*
X45965Y315912D01*
X46045Y315550D01*
X46156Y315196D01*
X46298Y314854D01*
X46469Y314525D01*
X46669Y314212D01*
X46894Y313918D01*
X47145Y313645D01*
X47418Y313394D01*
X47712Y313169D01*
X48025Y312969D01*
X48354Y312798D01*
X48696Y312656D01*
X49050Y312545D01*
X49412Y312465D01*
X49780Y312416D01*
X50150Y312400D01*
X43638Y300400D02*
X43118Y300468D01*
X42611Y300604D01*
X42127Y300805D01*
X41673Y301067D01*
X41257Y301386D01*
X40886Y301757D01*
X40567Y302173D01*
X40305Y302627D01*
X40104Y303111D01*
X39968Y303618D01*
X39900Y304138D01*
X39900Y304662D01*
X39968Y305182D01*
X40104Y305689D01*
X40305Y306173D01*
X40567Y306627D01*
X40886Y307043D01*
X41257Y307414D01*
X41673Y307733D01*
X42127Y307995D01*
X42611Y308196D01*
X43118Y308332D01*
X43638Y308400D01*
X44162Y308400D01*
X44682Y308332D01*
X45189Y308196D01*
X45673Y307995D01*
X46127Y307733D01*
X46543Y307414D01*
X46914Y307043D01*
X47233Y306627D01*
X47495Y306173D01*
X47696Y305689D01*
X47832Y305182D01*
X47900Y304662D01*
X47900Y304138D01*
X47832Y303618D01*
X47696Y303111D01*
X47495Y302627D01*
X47233Y302173D01*
X46914Y301757D01*
X46543Y301386D01*
X46127Y301067D01*
X45673Y300805D01*
X45189Y300604D01*
X44682Y300468D01*
X44162Y300400D01*
X43638Y300400D01*
X43638Y250400D02*
X43118Y250468D01*
X42611Y250604D01*
X42127Y250805D01*
X41673Y251067D01*
X41257Y251386D01*
X40886Y251757D01*
X40567Y252173D01*
X40305Y252627D01*
X40104Y253111D01*
X39968Y253618D01*
X39900Y254138D01*
X39900Y254662D01*
X39968Y255182D01*
X40104Y255689D01*
X40305Y256173D01*
X40567Y256627D01*
X40886Y257043D01*
X41257Y257414D01*
X41673Y257733D01*
X42127Y257995D01*
X42611Y258196D01*
X43118Y258332D01*
X43638Y258400D01*
X44162Y258400D01*
X44682Y258332D01*
X45189Y258196D01*
X45673Y257995D01*
X46127Y257733D01*
X46543Y257414D01*
X46914Y257043D01*
X47233Y256627D01*
X47495Y256173D01*
X47696Y255689D01*
X47832Y255182D01*
X47900Y254662D01*
X47900Y254138D01*
X47832Y253618D01*
X47696Y253111D01*
X47495Y252627D01*
X47233Y252173D01*
X46914Y251757D01*
X46543Y251386D01*
X46127Y251067D01*
X45673Y250805D01*
X45189Y250604D01*
X44682Y250468D01*
X44162Y250400D01*
X43638Y250400D01*
M02*
