G04 EAGLE Gerber RS-274X export*
G75*
%MOMM*%
%FSLAX34Y34*%
%LPD*%
%INSilkscreen Top*%
%IPPOS*%
%AMOC8*
5,1,8,0,0,1.08239X$1,22.5*%
G01*
%ADD10C,0.203200*%
%ADD11C,0.127000*%
%ADD12C,0.304800*%
%ADD13C,0.152400*%
%ADD14C,0.200000*%
%ADD15C,0.101600*%


D10*
X241700Y393700D02*
X241708Y394314D01*
X241730Y394927D01*
X241768Y395539D01*
X241820Y396150D01*
X241888Y396760D01*
X241971Y397368D01*
X242068Y397974D01*
X242180Y398577D01*
X242307Y399178D01*
X242449Y399775D01*
X242606Y400368D01*
X242776Y400957D01*
X242962Y401542D01*
X243161Y402122D01*
X243375Y402697D01*
X243603Y403267D01*
X243845Y403831D01*
X244100Y404389D01*
X244369Y404940D01*
X244652Y405485D01*
X244948Y406022D01*
X245257Y406553D01*
X245579Y407075D01*
X245913Y407589D01*
X246260Y408095D01*
X246620Y408592D01*
X246991Y409081D01*
X247375Y409560D01*
X247770Y410029D01*
X248176Y410489D01*
X248594Y410939D01*
X249022Y411378D01*
X249461Y411806D01*
X249911Y412224D01*
X250371Y412630D01*
X250840Y413025D01*
X251319Y413409D01*
X251808Y413780D01*
X252305Y414140D01*
X252811Y414487D01*
X253325Y414821D01*
X253847Y415143D01*
X254378Y415452D01*
X254915Y415748D01*
X255460Y416031D01*
X256011Y416300D01*
X256569Y416555D01*
X257133Y416797D01*
X257703Y417025D01*
X258278Y417239D01*
X258858Y417438D01*
X259443Y417624D01*
X260032Y417794D01*
X260625Y417951D01*
X261222Y418093D01*
X261823Y418220D01*
X262426Y418332D01*
X263032Y418429D01*
X263640Y418512D01*
X264250Y418580D01*
X264861Y418632D01*
X265473Y418670D01*
X266086Y418692D01*
X266700Y418700D01*
X267314Y418692D01*
X267927Y418670D01*
X268539Y418632D01*
X269150Y418580D01*
X269760Y418512D01*
X270368Y418429D01*
X270974Y418332D01*
X271577Y418220D01*
X272178Y418093D01*
X272775Y417951D01*
X273368Y417794D01*
X273957Y417624D01*
X274542Y417438D01*
X275122Y417239D01*
X275697Y417025D01*
X276267Y416797D01*
X276831Y416555D01*
X277389Y416300D01*
X277940Y416031D01*
X278485Y415748D01*
X279022Y415452D01*
X279553Y415143D01*
X280075Y414821D01*
X280589Y414487D01*
X281095Y414140D01*
X281592Y413780D01*
X282081Y413409D01*
X282560Y413025D01*
X283029Y412630D01*
X283489Y412224D01*
X283939Y411806D01*
X284378Y411378D01*
X284806Y410939D01*
X285224Y410489D01*
X285630Y410029D01*
X286025Y409560D01*
X286409Y409081D01*
X286780Y408592D01*
X287140Y408095D01*
X287487Y407589D01*
X287821Y407075D01*
X288143Y406553D01*
X288452Y406022D01*
X288748Y405485D01*
X289031Y404940D01*
X289300Y404389D01*
X289555Y403831D01*
X289797Y403267D01*
X290025Y402697D01*
X290239Y402122D01*
X290438Y401542D01*
X290624Y400957D01*
X290794Y400368D01*
X290951Y399775D01*
X291093Y399178D01*
X291220Y398577D01*
X291332Y397974D01*
X291429Y397368D01*
X291512Y396760D01*
X291580Y396150D01*
X291632Y395539D01*
X291670Y394927D01*
X291692Y394314D01*
X291700Y393700D01*
X291692Y393086D01*
X291670Y392473D01*
X291632Y391861D01*
X291580Y391250D01*
X291512Y390640D01*
X291429Y390032D01*
X291332Y389426D01*
X291220Y388823D01*
X291093Y388222D01*
X290951Y387625D01*
X290794Y387032D01*
X290624Y386443D01*
X290438Y385858D01*
X290239Y385278D01*
X290025Y384703D01*
X289797Y384133D01*
X289555Y383569D01*
X289300Y383011D01*
X289031Y382460D01*
X288748Y381915D01*
X288452Y381378D01*
X288143Y380847D01*
X287821Y380325D01*
X287487Y379811D01*
X287140Y379305D01*
X286780Y378808D01*
X286409Y378319D01*
X286025Y377840D01*
X285630Y377371D01*
X285224Y376911D01*
X284806Y376461D01*
X284378Y376022D01*
X283939Y375594D01*
X283489Y375176D01*
X283029Y374770D01*
X282560Y374375D01*
X282081Y373991D01*
X281592Y373620D01*
X281095Y373260D01*
X280589Y372913D01*
X280075Y372579D01*
X279553Y372257D01*
X279022Y371948D01*
X278485Y371652D01*
X277940Y371369D01*
X277389Y371100D01*
X276831Y370845D01*
X276267Y370603D01*
X275697Y370375D01*
X275122Y370161D01*
X274542Y369962D01*
X273957Y369776D01*
X273368Y369606D01*
X272775Y369449D01*
X272178Y369307D01*
X271577Y369180D01*
X270974Y369068D01*
X270368Y368971D01*
X269760Y368888D01*
X269150Y368820D01*
X268539Y368768D01*
X267927Y368730D01*
X267314Y368708D01*
X266700Y368700D01*
X266086Y368708D01*
X265473Y368730D01*
X264861Y368768D01*
X264250Y368820D01*
X263640Y368888D01*
X263032Y368971D01*
X262426Y369068D01*
X261823Y369180D01*
X261222Y369307D01*
X260625Y369449D01*
X260032Y369606D01*
X259443Y369776D01*
X258858Y369962D01*
X258278Y370161D01*
X257703Y370375D01*
X257133Y370603D01*
X256569Y370845D01*
X256011Y371100D01*
X255460Y371369D01*
X254915Y371652D01*
X254378Y371948D01*
X253847Y372257D01*
X253325Y372579D01*
X252811Y372913D01*
X252305Y373260D01*
X251808Y373620D01*
X251319Y373991D01*
X250840Y374375D01*
X250371Y374770D01*
X249911Y375176D01*
X249461Y375594D01*
X249022Y376022D01*
X248594Y376461D01*
X248176Y376911D01*
X247770Y377371D01*
X247375Y377840D01*
X246991Y378319D01*
X246620Y378808D01*
X246260Y379305D01*
X245913Y379811D01*
X245579Y380325D01*
X245257Y380847D01*
X244948Y381378D01*
X244652Y381915D01*
X244369Y382460D01*
X244100Y383011D01*
X243845Y383569D01*
X243603Y384133D01*
X243375Y384703D01*
X243161Y385278D01*
X242962Y385858D01*
X242776Y386443D01*
X242606Y387032D01*
X242449Y387625D01*
X242307Y388222D01*
X242180Y388823D01*
X242068Y389426D01*
X241971Y390032D01*
X241888Y390640D01*
X241820Y391250D01*
X241768Y391861D01*
X241730Y392473D01*
X241708Y393086D01*
X241700Y393700D01*
X280670Y401120D02*
X280670Y411280D01*
X280670Y386280D02*
X280670Y376120D01*
X285750Y381200D02*
X275590Y381200D01*
D11*
X298831Y391132D02*
X298831Y392204D01*
X298831Y391132D02*
X298829Y391067D01*
X298823Y391003D01*
X298813Y390939D01*
X298800Y390875D01*
X298782Y390813D01*
X298761Y390752D01*
X298737Y390692D01*
X298708Y390634D01*
X298676Y390577D01*
X298641Y390523D01*
X298603Y390471D01*
X298561Y390421D01*
X298517Y390374D01*
X298470Y390330D01*
X298420Y390288D01*
X298368Y390250D01*
X298314Y390215D01*
X298257Y390183D01*
X298199Y390154D01*
X298139Y390130D01*
X298078Y390109D01*
X298016Y390091D01*
X297952Y390078D01*
X297888Y390068D01*
X297824Y390062D01*
X297759Y390060D01*
X297759Y390059D02*
X295077Y390059D01*
X295012Y390061D01*
X294948Y390067D01*
X294884Y390077D01*
X294820Y390090D01*
X294758Y390108D01*
X294697Y390129D01*
X294637Y390154D01*
X294578Y390182D01*
X294522Y390214D01*
X294467Y390249D01*
X294415Y390287D01*
X294365Y390329D01*
X294318Y390373D01*
X294274Y390420D01*
X294232Y390470D01*
X294194Y390522D01*
X294159Y390577D01*
X294127Y390633D01*
X294099Y390692D01*
X294074Y390751D01*
X294053Y390813D01*
X294035Y390875D01*
X294022Y390939D01*
X294012Y391003D01*
X294006Y391067D01*
X294004Y391132D01*
X294005Y391132D02*
X294005Y392204D01*
X295077Y394660D02*
X294005Y396000D01*
X298831Y396000D01*
X298831Y394660D02*
X298831Y397341D01*
D12*
X215900Y390652D02*
X209550Y390652D01*
X215900Y390652D02*
X222250Y390652D01*
D13*
X215900Y390652D02*
X215900Y378460D01*
D12*
X215900Y397002D02*
X209550Y397002D01*
X215900Y397002D02*
X222250Y397002D01*
D13*
X215900Y397002D02*
X215900Y408940D01*
X205740Y356870D02*
X226060Y356870D01*
X228600Y359410D02*
X228600Y427990D01*
X226060Y430530D02*
X205740Y430530D01*
X203200Y427990D02*
X203200Y359410D01*
X203200Y427990D02*
X203202Y428090D01*
X203208Y428189D01*
X203218Y428289D01*
X203231Y428387D01*
X203249Y428486D01*
X203270Y428583D01*
X203295Y428679D01*
X203324Y428775D01*
X203357Y428869D01*
X203393Y428962D01*
X203433Y429053D01*
X203477Y429143D01*
X203524Y429231D01*
X203574Y429317D01*
X203628Y429401D01*
X203685Y429483D01*
X203745Y429562D01*
X203809Y429640D01*
X203875Y429714D01*
X203944Y429786D01*
X204016Y429855D01*
X204090Y429921D01*
X204168Y429985D01*
X204247Y430045D01*
X204329Y430102D01*
X204413Y430156D01*
X204499Y430206D01*
X204587Y430253D01*
X204677Y430297D01*
X204768Y430337D01*
X204861Y430373D01*
X204955Y430406D01*
X205051Y430435D01*
X205147Y430460D01*
X205244Y430481D01*
X205343Y430499D01*
X205441Y430512D01*
X205541Y430522D01*
X205640Y430528D01*
X205740Y430530D01*
X226060Y430530D02*
X226160Y430528D01*
X226259Y430522D01*
X226359Y430512D01*
X226457Y430499D01*
X226556Y430481D01*
X226653Y430460D01*
X226749Y430435D01*
X226845Y430406D01*
X226939Y430373D01*
X227032Y430337D01*
X227123Y430297D01*
X227213Y430253D01*
X227301Y430206D01*
X227387Y430156D01*
X227471Y430102D01*
X227553Y430045D01*
X227632Y429985D01*
X227710Y429921D01*
X227784Y429855D01*
X227856Y429786D01*
X227925Y429714D01*
X227991Y429640D01*
X228055Y429562D01*
X228115Y429483D01*
X228172Y429401D01*
X228226Y429317D01*
X228276Y429231D01*
X228323Y429143D01*
X228367Y429053D01*
X228407Y428962D01*
X228443Y428869D01*
X228476Y428775D01*
X228505Y428679D01*
X228530Y428583D01*
X228551Y428486D01*
X228569Y428387D01*
X228582Y428289D01*
X228592Y428189D01*
X228598Y428090D01*
X228600Y427990D01*
X228600Y359410D02*
X228598Y359310D01*
X228592Y359211D01*
X228582Y359111D01*
X228569Y359013D01*
X228551Y358914D01*
X228530Y358817D01*
X228505Y358721D01*
X228476Y358625D01*
X228443Y358531D01*
X228407Y358438D01*
X228367Y358347D01*
X228323Y358257D01*
X228276Y358169D01*
X228226Y358083D01*
X228172Y357999D01*
X228115Y357917D01*
X228055Y357838D01*
X227991Y357760D01*
X227925Y357686D01*
X227856Y357614D01*
X227784Y357545D01*
X227710Y357479D01*
X227632Y357415D01*
X227553Y357355D01*
X227471Y357298D01*
X227387Y357244D01*
X227301Y357194D01*
X227213Y357147D01*
X227123Y357103D01*
X227032Y357063D01*
X226939Y357027D01*
X226845Y356994D01*
X226749Y356965D01*
X226653Y356940D01*
X226556Y356919D01*
X226457Y356901D01*
X226359Y356888D01*
X226259Y356878D01*
X226160Y356872D01*
X226060Y356870D01*
X205740Y356870D02*
X205640Y356872D01*
X205541Y356878D01*
X205441Y356888D01*
X205343Y356901D01*
X205244Y356919D01*
X205147Y356940D01*
X205051Y356965D01*
X204955Y356994D01*
X204861Y357027D01*
X204768Y357063D01*
X204677Y357103D01*
X204587Y357147D01*
X204499Y357194D01*
X204413Y357244D01*
X204329Y357298D01*
X204247Y357355D01*
X204168Y357415D01*
X204090Y357479D01*
X204016Y357545D01*
X203944Y357614D01*
X203875Y357686D01*
X203809Y357760D01*
X203745Y357838D01*
X203685Y357917D01*
X203628Y357999D01*
X203574Y358083D01*
X203524Y358169D01*
X203477Y358257D01*
X203433Y358347D01*
X203393Y358438D01*
X203357Y358531D01*
X203324Y358625D01*
X203295Y358721D01*
X203270Y358817D01*
X203249Y358914D01*
X203231Y359013D01*
X203218Y359111D01*
X203208Y359211D01*
X203202Y359310D01*
X203200Y359410D01*
D11*
X236855Y362585D02*
X236855Y365125D01*
X236855Y362585D02*
X236853Y362485D01*
X236847Y362386D01*
X236837Y362286D01*
X236824Y362188D01*
X236806Y362089D01*
X236785Y361992D01*
X236760Y361896D01*
X236731Y361800D01*
X236698Y361706D01*
X236662Y361613D01*
X236622Y361522D01*
X236578Y361432D01*
X236531Y361344D01*
X236481Y361258D01*
X236427Y361174D01*
X236370Y361092D01*
X236310Y361013D01*
X236246Y360935D01*
X236180Y360861D01*
X236111Y360789D01*
X236039Y360720D01*
X235965Y360654D01*
X235887Y360590D01*
X235808Y360530D01*
X235726Y360473D01*
X235642Y360419D01*
X235556Y360369D01*
X235468Y360322D01*
X235378Y360278D01*
X235287Y360238D01*
X235194Y360202D01*
X235100Y360169D01*
X235004Y360140D01*
X234908Y360115D01*
X234811Y360094D01*
X234712Y360076D01*
X234614Y360063D01*
X234514Y360053D01*
X234415Y360047D01*
X234315Y360045D01*
X227965Y360045D01*
X227865Y360047D01*
X227766Y360053D01*
X227666Y360063D01*
X227568Y360076D01*
X227469Y360094D01*
X227372Y360115D01*
X227276Y360140D01*
X227180Y360169D01*
X227086Y360202D01*
X226993Y360238D01*
X226902Y360278D01*
X226812Y360322D01*
X226724Y360369D01*
X226638Y360419D01*
X226554Y360473D01*
X226472Y360530D01*
X226393Y360590D01*
X226315Y360654D01*
X226241Y360720D01*
X226169Y360789D01*
X226100Y360861D01*
X226034Y360935D01*
X225970Y361013D01*
X225910Y361092D01*
X225853Y361174D01*
X225799Y361258D01*
X225749Y361344D01*
X225702Y361432D01*
X225658Y361522D01*
X225618Y361613D01*
X225582Y361706D01*
X225549Y361800D01*
X225520Y361896D01*
X225495Y361992D01*
X225474Y362089D01*
X225456Y362188D01*
X225443Y362286D01*
X225433Y362386D01*
X225427Y362485D01*
X225425Y362585D01*
X225425Y365125D01*
X225425Y373100D02*
X225427Y373204D01*
X225433Y373309D01*
X225442Y373413D01*
X225455Y373516D01*
X225473Y373619D01*
X225493Y373721D01*
X225518Y373823D01*
X225546Y373923D01*
X225578Y374023D01*
X225614Y374121D01*
X225653Y374218D01*
X225695Y374313D01*
X225741Y374407D01*
X225791Y374499D01*
X225843Y374589D01*
X225899Y374677D01*
X225959Y374763D01*
X226021Y374847D01*
X226086Y374928D01*
X226154Y375007D01*
X226226Y375084D01*
X226299Y375157D01*
X226376Y375229D01*
X226455Y375297D01*
X226536Y375362D01*
X226620Y375424D01*
X226706Y375484D01*
X226794Y375540D01*
X226884Y375592D01*
X226976Y375642D01*
X227070Y375688D01*
X227165Y375730D01*
X227262Y375769D01*
X227360Y375805D01*
X227460Y375837D01*
X227560Y375865D01*
X227662Y375890D01*
X227764Y375910D01*
X227867Y375928D01*
X227970Y375941D01*
X228074Y375950D01*
X228179Y375956D01*
X228283Y375958D01*
X225425Y373100D02*
X225427Y372982D01*
X225433Y372863D01*
X225442Y372745D01*
X225455Y372628D01*
X225473Y372511D01*
X225493Y372394D01*
X225518Y372278D01*
X225546Y372163D01*
X225579Y372050D01*
X225614Y371937D01*
X225654Y371825D01*
X225696Y371715D01*
X225743Y371606D01*
X225793Y371498D01*
X225846Y371393D01*
X225903Y371289D01*
X225963Y371187D01*
X226026Y371087D01*
X226093Y370989D01*
X226162Y370893D01*
X226235Y370800D01*
X226311Y370709D01*
X226389Y370620D01*
X226471Y370534D01*
X226555Y370451D01*
X226641Y370370D01*
X226731Y370293D01*
X226822Y370218D01*
X226916Y370146D01*
X227013Y370077D01*
X227111Y370012D01*
X227212Y369949D01*
X227315Y369890D01*
X227419Y369834D01*
X227525Y369782D01*
X227633Y369733D01*
X227742Y369688D01*
X227853Y369646D01*
X227965Y369608D01*
X230505Y375005D02*
X230430Y375081D01*
X230351Y375156D01*
X230270Y375227D01*
X230186Y375296D01*
X230100Y375361D01*
X230012Y375423D01*
X229922Y375483D01*
X229830Y375539D01*
X229735Y375592D01*
X229639Y375641D01*
X229541Y375687D01*
X229442Y375730D01*
X229341Y375769D01*
X229239Y375804D01*
X229136Y375836D01*
X229032Y375864D01*
X228927Y375889D01*
X228820Y375910D01*
X228714Y375927D01*
X228607Y375940D01*
X228499Y375949D01*
X228391Y375955D01*
X228283Y375957D01*
X230505Y375005D02*
X236855Y369607D01*
X236855Y375957D01*
X371000Y202800D02*
X391000Y202800D01*
X391611Y202547D01*
X392215Y202279D01*
X392812Y201997D01*
X393402Y201700D01*
X393985Y201388D01*
X394560Y201062D01*
X395127Y200723D01*
X395685Y200369D01*
X396235Y200002D01*
X396775Y199621D01*
X397306Y199228D01*
X397826Y198821D01*
X398337Y198402D01*
X398838Y197970D01*
X399327Y197526D01*
X399806Y197070D01*
X400273Y196603D01*
X400729Y196125D01*
X401172Y195635D01*
X401604Y195134D01*
X402023Y194624D01*
X402430Y194103D01*
X402823Y193572D01*
X403204Y193032D01*
X403571Y192482D01*
X403924Y191924D01*
X404264Y191357D01*
X404590Y190782D01*
X404901Y190199D01*
X405198Y189609D01*
X405481Y189011D01*
X405749Y188407D01*
X406002Y187797D01*
X406239Y187180D01*
X406462Y186558D01*
X406669Y185930D01*
X406861Y185298D01*
X407037Y184661D01*
X407198Y184020D01*
X407342Y183375D01*
X407471Y182727D01*
X407584Y182076D01*
X407681Y181422D01*
X407762Y180767D01*
X407827Y180109D01*
X407875Y179450D01*
X407908Y178790D01*
X407924Y178129D01*
X407924Y177468D01*
X407908Y176808D01*
X407875Y176148D01*
X407827Y175489D01*
X407762Y174831D01*
X407681Y174175D01*
X407584Y173522D01*
X407471Y172870D01*
X407342Y172222D01*
X407197Y171578D01*
X407037Y170937D01*
X406860Y170300D01*
X406668Y169667D01*
X406461Y169040D01*
X406238Y168418D01*
X406001Y167801D01*
X405748Y167191D01*
X405480Y166586D01*
X405197Y165989D01*
X404900Y165399D01*
X404589Y164816D01*
X404263Y164241D01*
X403923Y163674D01*
X403570Y163116D01*
X403202Y162566D01*
X402822Y162026D01*
X402428Y161495D01*
X402022Y160974D01*
X401602Y160464D01*
X401171Y159963D01*
X400727Y159474D01*
X400271Y158995D01*
X399804Y158528D01*
X399325Y158072D01*
X398836Y157628D01*
X398335Y157197D01*
X397825Y156778D01*
X397304Y156371D01*
X396773Y155977D01*
X396233Y155597D01*
X395683Y155230D01*
X395125Y154876D01*
X394558Y154536D01*
X393983Y154211D01*
X393400Y153899D01*
X392810Y153602D01*
X392212Y153320D01*
X391608Y153052D01*
X390998Y152799D01*
X390381Y152561D01*
X389759Y152338D01*
X389132Y152131D01*
X388499Y151939D01*
X387862Y151763D01*
X387221Y151603D01*
X386577Y151458D01*
X385928Y151329D01*
X385277Y151216D01*
X384624Y151119D01*
X383968Y151038D01*
X383310Y150973D01*
X382651Y150925D01*
X381991Y150892D01*
X381330Y150876D01*
X380670Y150876D01*
X380009Y150892D01*
X379349Y150925D01*
X378690Y150973D01*
X378032Y151038D01*
X377376Y151119D01*
X376723Y151216D01*
X376072Y151329D01*
X375423Y151458D01*
X374779Y151603D01*
X374138Y151763D01*
X373501Y151939D01*
X372868Y152131D01*
X372241Y152338D01*
X371619Y152561D01*
X371002Y152799D01*
X370392Y153052D01*
X369788Y153320D01*
X369190Y153602D01*
X368600Y153899D01*
X368017Y154211D01*
X367442Y154536D01*
X366875Y154876D01*
X366317Y155230D01*
X365767Y155597D01*
X365227Y155977D01*
X364696Y156371D01*
X364175Y156778D01*
X363665Y157197D01*
X363164Y157628D01*
X362675Y158072D01*
X362196Y158528D01*
X361729Y158995D01*
X361273Y159474D01*
X360829Y159963D01*
X360398Y160464D01*
X359978Y160974D01*
X359572Y161495D01*
X359178Y162026D01*
X358798Y162566D01*
X358430Y163116D01*
X358077Y163674D01*
X357737Y164241D01*
X357411Y164816D01*
X357100Y165399D01*
X356803Y165989D01*
X356520Y166586D01*
X356252Y167191D01*
X355999Y167801D01*
X355762Y168418D01*
X355539Y169040D01*
X355332Y169667D01*
X355140Y170300D01*
X354963Y170937D01*
X354803Y171578D01*
X354658Y172222D01*
X354529Y172870D01*
X354416Y173522D01*
X354319Y174175D01*
X354238Y174831D01*
X354173Y175489D01*
X354125Y176148D01*
X354092Y176808D01*
X354076Y177468D01*
X354076Y178129D01*
X354092Y178790D01*
X354125Y179450D01*
X354173Y180109D01*
X354238Y180767D01*
X354319Y181422D01*
X354416Y182076D01*
X354529Y182727D01*
X354658Y183375D01*
X354802Y184020D01*
X354963Y184661D01*
X355139Y185298D01*
X355331Y185930D01*
X355538Y186558D01*
X355761Y187180D01*
X355998Y187797D01*
X356251Y188407D01*
X356519Y189011D01*
X356802Y189609D01*
X357099Y190199D01*
X357410Y190782D01*
X357736Y191357D01*
X358076Y191924D01*
X358429Y192482D01*
X358796Y193032D01*
X359177Y193572D01*
X359570Y194103D01*
X359977Y194624D01*
X360396Y195134D01*
X360828Y195635D01*
X361271Y196125D01*
X361727Y196603D01*
X362194Y197070D01*
X362673Y197526D01*
X363162Y197970D01*
X363663Y198402D01*
X364174Y198821D01*
X364694Y199228D01*
X365225Y199621D01*
X365765Y200002D01*
X366315Y200369D01*
X366873Y200723D01*
X367440Y201062D01*
X368015Y201388D01*
X368598Y201700D01*
X369188Y201997D01*
X369785Y202279D01*
X370389Y202547D01*
X371000Y202800D01*
X351790Y173625D02*
X346964Y173625D01*
X346964Y174965D01*
X346966Y175035D01*
X346971Y175105D01*
X346981Y175175D01*
X346993Y175244D01*
X347010Y175312D01*
X347030Y175379D01*
X347053Y175446D01*
X347080Y175510D01*
X347110Y175574D01*
X347144Y175636D01*
X347180Y175695D01*
X347220Y175753D01*
X347263Y175809D01*
X347308Y175862D01*
X347357Y175913D01*
X347408Y175962D01*
X347461Y176007D01*
X347517Y176050D01*
X347575Y176090D01*
X347635Y176126D01*
X347696Y176160D01*
X347760Y176190D01*
X347824Y176217D01*
X347891Y176240D01*
X347958Y176260D01*
X348026Y176277D01*
X348095Y176289D01*
X348165Y176299D01*
X348235Y176304D01*
X348305Y176306D01*
X350449Y176306D01*
X350519Y176304D01*
X350589Y176299D01*
X350659Y176289D01*
X350728Y176277D01*
X350796Y176260D01*
X350863Y176240D01*
X350930Y176217D01*
X350994Y176190D01*
X351058Y176160D01*
X351120Y176126D01*
X351179Y176090D01*
X351237Y176050D01*
X351293Y176007D01*
X351346Y175962D01*
X351397Y175913D01*
X351446Y175862D01*
X351491Y175809D01*
X351534Y175753D01*
X351574Y175695D01*
X351610Y175635D01*
X351644Y175574D01*
X351674Y175510D01*
X351701Y175446D01*
X351724Y175379D01*
X351744Y175312D01*
X351761Y175244D01*
X351773Y175175D01*
X351783Y175105D01*
X351788Y175035D01*
X351790Y174965D01*
X351790Y173625D01*
X348036Y179294D02*
X346964Y180635D01*
X351790Y180635D01*
X351790Y181975D02*
X351790Y179294D01*
X371000Y406000D02*
X391000Y406000D01*
X391611Y405747D01*
X392215Y405479D01*
X392812Y405197D01*
X393402Y404900D01*
X393985Y404588D01*
X394560Y404262D01*
X395127Y403923D01*
X395685Y403569D01*
X396235Y403202D01*
X396775Y402821D01*
X397306Y402428D01*
X397826Y402021D01*
X398337Y401602D01*
X398838Y401170D01*
X399327Y400726D01*
X399806Y400270D01*
X400273Y399803D01*
X400729Y399325D01*
X401172Y398835D01*
X401604Y398334D01*
X402023Y397824D01*
X402430Y397303D01*
X402823Y396772D01*
X403204Y396232D01*
X403571Y395682D01*
X403924Y395124D01*
X404264Y394557D01*
X404590Y393982D01*
X404901Y393399D01*
X405198Y392809D01*
X405481Y392211D01*
X405749Y391607D01*
X406002Y390997D01*
X406239Y390380D01*
X406462Y389758D01*
X406669Y389130D01*
X406861Y388498D01*
X407037Y387861D01*
X407198Y387220D01*
X407342Y386575D01*
X407471Y385927D01*
X407584Y385276D01*
X407681Y384622D01*
X407762Y383967D01*
X407827Y383309D01*
X407875Y382650D01*
X407908Y381990D01*
X407924Y381329D01*
X407924Y380668D01*
X407908Y380008D01*
X407875Y379348D01*
X407827Y378689D01*
X407762Y378031D01*
X407681Y377375D01*
X407584Y376722D01*
X407471Y376070D01*
X407342Y375422D01*
X407197Y374778D01*
X407037Y374137D01*
X406860Y373500D01*
X406668Y372867D01*
X406461Y372240D01*
X406238Y371618D01*
X406001Y371001D01*
X405748Y370391D01*
X405480Y369786D01*
X405197Y369189D01*
X404900Y368599D01*
X404589Y368016D01*
X404263Y367441D01*
X403923Y366874D01*
X403570Y366316D01*
X403202Y365766D01*
X402822Y365226D01*
X402428Y364695D01*
X402022Y364174D01*
X401602Y363664D01*
X401171Y363163D01*
X400727Y362674D01*
X400271Y362195D01*
X399804Y361728D01*
X399325Y361272D01*
X398836Y360828D01*
X398335Y360397D01*
X397825Y359978D01*
X397304Y359571D01*
X396773Y359177D01*
X396233Y358797D01*
X395683Y358430D01*
X395125Y358076D01*
X394558Y357736D01*
X393983Y357411D01*
X393400Y357099D01*
X392810Y356802D01*
X392212Y356520D01*
X391608Y356252D01*
X390998Y355999D01*
X390381Y355761D01*
X389759Y355538D01*
X389132Y355331D01*
X388499Y355139D01*
X387862Y354963D01*
X387221Y354803D01*
X386577Y354658D01*
X385928Y354529D01*
X385277Y354416D01*
X384624Y354319D01*
X383968Y354238D01*
X383310Y354173D01*
X382651Y354125D01*
X381991Y354092D01*
X381330Y354076D01*
X380670Y354076D01*
X380009Y354092D01*
X379349Y354125D01*
X378690Y354173D01*
X378032Y354238D01*
X377376Y354319D01*
X376723Y354416D01*
X376072Y354529D01*
X375423Y354658D01*
X374779Y354803D01*
X374138Y354963D01*
X373501Y355139D01*
X372868Y355331D01*
X372241Y355538D01*
X371619Y355761D01*
X371002Y355999D01*
X370392Y356252D01*
X369788Y356520D01*
X369190Y356802D01*
X368600Y357099D01*
X368017Y357411D01*
X367442Y357736D01*
X366875Y358076D01*
X366317Y358430D01*
X365767Y358797D01*
X365227Y359177D01*
X364696Y359571D01*
X364175Y359978D01*
X363665Y360397D01*
X363164Y360828D01*
X362675Y361272D01*
X362196Y361728D01*
X361729Y362195D01*
X361273Y362674D01*
X360829Y363163D01*
X360398Y363664D01*
X359978Y364174D01*
X359572Y364695D01*
X359178Y365226D01*
X358798Y365766D01*
X358430Y366316D01*
X358077Y366874D01*
X357737Y367441D01*
X357411Y368016D01*
X357100Y368599D01*
X356803Y369189D01*
X356520Y369786D01*
X356252Y370391D01*
X355999Y371001D01*
X355762Y371618D01*
X355539Y372240D01*
X355332Y372867D01*
X355140Y373500D01*
X354963Y374137D01*
X354803Y374778D01*
X354658Y375422D01*
X354529Y376070D01*
X354416Y376722D01*
X354319Y377375D01*
X354238Y378031D01*
X354173Y378689D01*
X354125Y379348D01*
X354092Y380008D01*
X354076Y380668D01*
X354076Y381329D01*
X354092Y381990D01*
X354125Y382650D01*
X354173Y383309D01*
X354238Y383967D01*
X354319Y384622D01*
X354416Y385276D01*
X354529Y385927D01*
X354658Y386575D01*
X354802Y387220D01*
X354963Y387861D01*
X355139Y388498D01*
X355331Y389130D01*
X355538Y389758D01*
X355761Y390380D01*
X355998Y390997D01*
X356251Y391607D01*
X356519Y392211D01*
X356802Y392809D01*
X357099Y393399D01*
X357410Y393982D01*
X357736Y394557D01*
X358076Y395124D01*
X358429Y395682D01*
X358796Y396232D01*
X359177Y396772D01*
X359570Y397303D01*
X359977Y397824D01*
X360396Y398334D01*
X360828Y398835D01*
X361271Y399325D01*
X361727Y399803D01*
X362194Y400270D01*
X362673Y400726D01*
X363162Y401170D01*
X363663Y401602D01*
X364174Y402021D01*
X364694Y402428D01*
X365225Y402821D01*
X365765Y403202D01*
X366315Y403569D01*
X366873Y403923D01*
X367440Y404262D01*
X368015Y404588D01*
X368598Y404900D01*
X369188Y405197D01*
X369785Y405479D01*
X370389Y405747D01*
X371000Y406000D01*
X351790Y376825D02*
X346964Y376825D01*
X346964Y378165D01*
X346966Y378235D01*
X346971Y378305D01*
X346981Y378375D01*
X346993Y378444D01*
X347010Y378512D01*
X347030Y378579D01*
X347053Y378646D01*
X347080Y378710D01*
X347110Y378774D01*
X347144Y378836D01*
X347180Y378895D01*
X347220Y378953D01*
X347263Y379009D01*
X347308Y379062D01*
X347357Y379113D01*
X347408Y379162D01*
X347461Y379207D01*
X347517Y379250D01*
X347575Y379290D01*
X347635Y379326D01*
X347696Y379360D01*
X347760Y379390D01*
X347824Y379417D01*
X347891Y379440D01*
X347958Y379460D01*
X348026Y379477D01*
X348095Y379489D01*
X348165Y379499D01*
X348235Y379504D01*
X348305Y379506D01*
X350449Y379506D01*
X350519Y379504D01*
X350589Y379499D01*
X350659Y379489D01*
X350728Y379477D01*
X350796Y379460D01*
X350863Y379440D01*
X350930Y379417D01*
X350994Y379390D01*
X351058Y379360D01*
X351120Y379326D01*
X351179Y379290D01*
X351237Y379250D01*
X351293Y379207D01*
X351346Y379162D01*
X351397Y379113D01*
X351446Y379062D01*
X351491Y379009D01*
X351534Y378953D01*
X351574Y378895D01*
X351610Y378835D01*
X351644Y378774D01*
X351674Y378710D01*
X351701Y378646D01*
X351724Y378579D01*
X351744Y378512D01*
X351761Y378444D01*
X351773Y378375D01*
X351783Y378305D01*
X351788Y378235D01*
X351790Y378165D01*
X351790Y376825D01*
X346964Y383969D02*
X346966Y384037D01*
X346972Y384104D01*
X346981Y384171D01*
X346994Y384238D01*
X347011Y384303D01*
X347032Y384368D01*
X347056Y384431D01*
X347084Y384493D01*
X347115Y384553D01*
X347149Y384611D01*
X347187Y384667D01*
X347227Y384722D01*
X347271Y384773D01*
X347318Y384822D01*
X347367Y384869D01*
X347418Y384913D01*
X347473Y384953D01*
X347529Y384991D01*
X347587Y385025D01*
X347647Y385056D01*
X347709Y385084D01*
X347772Y385108D01*
X347837Y385129D01*
X347902Y385146D01*
X347969Y385159D01*
X348036Y385168D01*
X348103Y385174D01*
X348171Y385176D01*
X346964Y383969D02*
X346966Y383891D01*
X346972Y383813D01*
X346982Y383736D01*
X346995Y383659D01*
X347013Y383583D01*
X347034Y383508D01*
X347059Y383434D01*
X347088Y383362D01*
X347120Y383291D01*
X347156Y383222D01*
X347195Y383154D01*
X347238Y383089D01*
X347284Y383026D01*
X347333Y382965D01*
X347385Y382907D01*
X347440Y382852D01*
X347497Y382799D01*
X347557Y382750D01*
X347620Y382703D01*
X347685Y382660D01*
X347751Y382620D01*
X347820Y382583D01*
X347891Y382550D01*
X347963Y382520D01*
X348037Y382494D01*
X349109Y384773D02*
X349060Y384822D01*
X349008Y384869D01*
X348953Y384912D01*
X348896Y384953D01*
X348837Y384991D01*
X348776Y385025D01*
X348713Y385056D01*
X348649Y385084D01*
X348583Y385108D01*
X348517Y385128D01*
X348449Y385145D01*
X348380Y385158D01*
X348311Y385167D01*
X348241Y385173D01*
X348171Y385175D01*
X349109Y384773D02*
X351790Y382494D01*
X351790Y385175D01*
X60800Y406000D02*
X40800Y406000D01*
X40189Y405747D01*
X39585Y405479D01*
X38988Y405197D01*
X38398Y404900D01*
X37815Y404588D01*
X37240Y404262D01*
X36673Y403923D01*
X36115Y403569D01*
X35565Y403202D01*
X35025Y402821D01*
X34494Y402428D01*
X33974Y402021D01*
X33463Y401602D01*
X32962Y401170D01*
X32473Y400726D01*
X31994Y400270D01*
X31527Y399803D01*
X31071Y399325D01*
X30628Y398835D01*
X30196Y398334D01*
X29777Y397824D01*
X29370Y397303D01*
X28977Y396772D01*
X28596Y396232D01*
X28229Y395682D01*
X27876Y395124D01*
X27536Y394557D01*
X27210Y393982D01*
X26899Y393399D01*
X26602Y392809D01*
X26319Y392211D01*
X26051Y391607D01*
X25798Y390997D01*
X25561Y390380D01*
X25338Y389758D01*
X25131Y389130D01*
X24939Y388498D01*
X24763Y387861D01*
X24602Y387220D01*
X24458Y386575D01*
X24329Y385927D01*
X24216Y385276D01*
X24119Y384622D01*
X24038Y383967D01*
X23973Y383309D01*
X23925Y382650D01*
X23892Y381990D01*
X23876Y381329D01*
X23876Y380668D01*
X23892Y380008D01*
X23925Y379348D01*
X23973Y378689D01*
X24038Y378031D01*
X24119Y377375D01*
X24216Y376722D01*
X24329Y376070D01*
X24458Y375422D01*
X24603Y374778D01*
X24763Y374137D01*
X24940Y373500D01*
X25132Y372867D01*
X25339Y372240D01*
X25562Y371618D01*
X25799Y371001D01*
X26052Y370391D01*
X26320Y369786D01*
X26603Y369189D01*
X26900Y368599D01*
X27211Y368016D01*
X27537Y367441D01*
X27877Y366874D01*
X28230Y366316D01*
X28598Y365766D01*
X28978Y365226D01*
X29372Y364695D01*
X29778Y364174D01*
X30198Y363664D01*
X30629Y363163D01*
X31073Y362674D01*
X31529Y362195D01*
X31996Y361728D01*
X32475Y361272D01*
X32964Y360828D01*
X33465Y360397D01*
X33975Y359978D01*
X34496Y359571D01*
X35027Y359177D01*
X35567Y358797D01*
X36117Y358430D01*
X36675Y358076D01*
X37242Y357736D01*
X37817Y357411D01*
X38400Y357099D01*
X38990Y356802D01*
X39588Y356520D01*
X40192Y356252D01*
X40802Y355999D01*
X41419Y355761D01*
X42041Y355538D01*
X42668Y355331D01*
X43301Y355139D01*
X43938Y354963D01*
X44579Y354803D01*
X45223Y354658D01*
X45872Y354529D01*
X46523Y354416D01*
X47176Y354319D01*
X47832Y354238D01*
X48490Y354173D01*
X49149Y354125D01*
X49809Y354092D01*
X50470Y354076D01*
X51130Y354076D01*
X51791Y354092D01*
X52451Y354125D01*
X53110Y354173D01*
X53768Y354238D01*
X54424Y354319D01*
X55077Y354416D01*
X55728Y354529D01*
X56377Y354658D01*
X57021Y354803D01*
X57662Y354963D01*
X58299Y355139D01*
X58932Y355331D01*
X59559Y355538D01*
X60181Y355761D01*
X60798Y355999D01*
X61408Y356252D01*
X62012Y356520D01*
X62610Y356802D01*
X63200Y357099D01*
X63783Y357411D01*
X64358Y357736D01*
X64925Y358076D01*
X65483Y358430D01*
X66033Y358797D01*
X66573Y359177D01*
X67104Y359571D01*
X67625Y359978D01*
X68135Y360397D01*
X68636Y360828D01*
X69125Y361272D01*
X69604Y361728D01*
X70071Y362195D01*
X70527Y362674D01*
X70971Y363163D01*
X71402Y363664D01*
X71822Y364174D01*
X72228Y364695D01*
X72622Y365226D01*
X73002Y365766D01*
X73370Y366316D01*
X73723Y366874D01*
X74063Y367441D01*
X74389Y368016D01*
X74700Y368599D01*
X74997Y369189D01*
X75280Y369786D01*
X75548Y370391D01*
X75801Y371001D01*
X76038Y371618D01*
X76261Y372240D01*
X76468Y372867D01*
X76660Y373500D01*
X76837Y374137D01*
X76997Y374778D01*
X77142Y375422D01*
X77271Y376070D01*
X77384Y376722D01*
X77481Y377375D01*
X77562Y378031D01*
X77627Y378689D01*
X77675Y379348D01*
X77708Y380008D01*
X77724Y380668D01*
X77724Y381329D01*
X77708Y381990D01*
X77675Y382650D01*
X77627Y383309D01*
X77562Y383967D01*
X77481Y384622D01*
X77384Y385276D01*
X77271Y385927D01*
X77142Y386575D01*
X76998Y387220D01*
X76837Y387861D01*
X76661Y388498D01*
X76469Y389130D01*
X76262Y389758D01*
X76039Y390380D01*
X75802Y390997D01*
X75549Y391607D01*
X75281Y392211D01*
X74998Y392809D01*
X74701Y393399D01*
X74390Y393982D01*
X74064Y394557D01*
X73724Y395124D01*
X73371Y395682D01*
X73004Y396232D01*
X72623Y396772D01*
X72230Y397303D01*
X71823Y397824D01*
X71404Y398334D01*
X70972Y398835D01*
X70529Y399325D01*
X70073Y399803D01*
X69606Y400270D01*
X69127Y400726D01*
X68638Y401170D01*
X68137Y401602D01*
X67626Y402021D01*
X67106Y402428D01*
X66575Y402821D01*
X66035Y403202D01*
X65485Y403569D01*
X64927Y403923D01*
X64360Y404262D01*
X63785Y404588D01*
X63202Y404900D01*
X62612Y405197D01*
X62015Y405479D01*
X61411Y405747D01*
X60800Y406000D01*
X21590Y376825D02*
X16764Y376825D01*
X16764Y378165D01*
X16766Y378235D01*
X16771Y378305D01*
X16781Y378375D01*
X16793Y378444D01*
X16810Y378512D01*
X16830Y378579D01*
X16853Y378646D01*
X16880Y378710D01*
X16910Y378774D01*
X16944Y378836D01*
X16980Y378895D01*
X17020Y378953D01*
X17063Y379009D01*
X17108Y379062D01*
X17157Y379113D01*
X17208Y379162D01*
X17261Y379207D01*
X17317Y379250D01*
X17375Y379290D01*
X17435Y379326D01*
X17496Y379360D01*
X17560Y379390D01*
X17624Y379417D01*
X17691Y379440D01*
X17758Y379460D01*
X17826Y379477D01*
X17895Y379489D01*
X17965Y379499D01*
X18035Y379504D01*
X18105Y379506D01*
X20249Y379506D01*
X20319Y379504D01*
X20389Y379499D01*
X20459Y379489D01*
X20528Y379477D01*
X20596Y379460D01*
X20663Y379440D01*
X20730Y379417D01*
X20794Y379390D01*
X20858Y379360D01*
X20920Y379326D01*
X20979Y379290D01*
X21037Y379250D01*
X21093Y379207D01*
X21146Y379162D01*
X21197Y379113D01*
X21246Y379062D01*
X21291Y379009D01*
X21334Y378953D01*
X21374Y378895D01*
X21410Y378835D01*
X21444Y378774D01*
X21474Y378710D01*
X21501Y378646D01*
X21524Y378579D01*
X21544Y378512D01*
X21561Y378444D01*
X21573Y378375D01*
X21583Y378305D01*
X21588Y378235D01*
X21590Y378165D01*
X21590Y376825D01*
X21590Y382494D02*
X21590Y383835D01*
X21588Y383906D01*
X21582Y383978D01*
X21573Y384048D01*
X21560Y384118D01*
X21543Y384188D01*
X21522Y384256D01*
X21498Y384323D01*
X21470Y384389D01*
X21439Y384453D01*
X21404Y384516D01*
X21366Y384576D01*
X21325Y384635D01*
X21281Y384691D01*
X21234Y384745D01*
X21185Y384796D01*
X21132Y384844D01*
X21077Y384890D01*
X21020Y384932D01*
X20960Y384972D01*
X20899Y385008D01*
X20835Y385041D01*
X20770Y385070D01*
X20704Y385096D01*
X20636Y385119D01*
X20567Y385138D01*
X20497Y385153D01*
X20427Y385164D01*
X20356Y385172D01*
X20285Y385176D01*
X20213Y385176D01*
X20142Y385172D01*
X20071Y385164D01*
X20001Y385153D01*
X19931Y385138D01*
X19862Y385119D01*
X19794Y385096D01*
X19728Y385070D01*
X19663Y385041D01*
X19599Y385008D01*
X19538Y384972D01*
X19478Y384932D01*
X19421Y384890D01*
X19366Y384844D01*
X19313Y384796D01*
X19264Y384745D01*
X19217Y384691D01*
X19173Y384635D01*
X19132Y384576D01*
X19094Y384516D01*
X19059Y384453D01*
X19028Y384389D01*
X19000Y384323D01*
X18976Y384256D01*
X18955Y384188D01*
X18938Y384118D01*
X18925Y384048D01*
X18916Y383978D01*
X18910Y383906D01*
X18908Y383835D01*
X16764Y384103D02*
X16764Y382494D01*
X16764Y384103D02*
X16766Y384168D01*
X16772Y384232D01*
X16782Y384296D01*
X16795Y384360D01*
X16813Y384422D01*
X16834Y384483D01*
X16858Y384543D01*
X16887Y384601D01*
X16919Y384658D01*
X16954Y384712D01*
X16992Y384764D01*
X17034Y384814D01*
X17078Y384861D01*
X17125Y384905D01*
X17175Y384947D01*
X17227Y384985D01*
X17281Y385020D01*
X17338Y385052D01*
X17396Y385081D01*
X17456Y385105D01*
X17517Y385126D01*
X17579Y385144D01*
X17643Y385157D01*
X17707Y385167D01*
X17771Y385173D01*
X17836Y385175D01*
X17901Y385173D01*
X17965Y385167D01*
X18029Y385157D01*
X18093Y385144D01*
X18155Y385126D01*
X18216Y385105D01*
X18276Y385081D01*
X18334Y385052D01*
X18391Y385020D01*
X18445Y384985D01*
X18497Y384947D01*
X18547Y384905D01*
X18594Y384861D01*
X18638Y384814D01*
X18680Y384764D01*
X18718Y384712D01*
X18753Y384658D01*
X18785Y384601D01*
X18814Y384543D01*
X18838Y384483D01*
X18859Y384422D01*
X18877Y384360D01*
X18890Y384296D01*
X18900Y384232D01*
X18906Y384168D01*
X18908Y384103D01*
X18909Y384103D02*
X18909Y383030D01*
X40800Y202800D02*
X60800Y202800D01*
X61411Y202547D01*
X62015Y202279D01*
X62612Y201997D01*
X63202Y201700D01*
X63785Y201388D01*
X64360Y201062D01*
X64927Y200723D01*
X65485Y200369D01*
X66035Y200002D01*
X66575Y199621D01*
X67106Y199228D01*
X67626Y198821D01*
X68137Y198402D01*
X68638Y197970D01*
X69127Y197526D01*
X69606Y197070D01*
X70073Y196603D01*
X70529Y196125D01*
X70972Y195635D01*
X71404Y195134D01*
X71823Y194624D01*
X72230Y194103D01*
X72623Y193572D01*
X73004Y193032D01*
X73371Y192482D01*
X73724Y191924D01*
X74064Y191357D01*
X74390Y190782D01*
X74701Y190199D01*
X74998Y189609D01*
X75281Y189011D01*
X75549Y188407D01*
X75802Y187797D01*
X76039Y187180D01*
X76262Y186558D01*
X76469Y185930D01*
X76661Y185298D01*
X76837Y184661D01*
X76998Y184020D01*
X77142Y183375D01*
X77271Y182727D01*
X77384Y182076D01*
X77481Y181422D01*
X77562Y180767D01*
X77627Y180109D01*
X77675Y179450D01*
X77708Y178790D01*
X77724Y178129D01*
X77724Y177468D01*
X77708Y176808D01*
X77675Y176148D01*
X77627Y175489D01*
X77562Y174831D01*
X77481Y174175D01*
X77384Y173522D01*
X77271Y172870D01*
X77142Y172222D01*
X76997Y171578D01*
X76837Y170937D01*
X76660Y170300D01*
X76468Y169667D01*
X76261Y169040D01*
X76038Y168418D01*
X75801Y167801D01*
X75548Y167191D01*
X75280Y166586D01*
X74997Y165989D01*
X74700Y165399D01*
X74389Y164816D01*
X74063Y164241D01*
X73723Y163674D01*
X73370Y163116D01*
X73002Y162566D01*
X72622Y162026D01*
X72228Y161495D01*
X71822Y160974D01*
X71402Y160464D01*
X70971Y159963D01*
X70527Y159474D01*
X70071Y158995D01*
X69604Y158528D01*
X69125Y158072D01*
X68636Y157628D01*
X68135Y157197D01*
X67625Y156778D01*
X67104Y156371D01*
X66573Y155977D01*
X66033Y155597D01*
X65483Y155230D01*
X64925Y154876D01*
X64358Y154536D01*
X63783Y154211D01*
X63200Y153899D01*
X62610Y153602D01*
X62012Y153320D01*
X61408Y153052D01*
X60798Y152799D01*
X60181Y152561D01*
X59559Y152338D01*
X58932Y152131D01*
X58299Y151939D01*
X57662Y151763D01*
X57021Y151603D01*
X56377Y151458D01*
X55728Y151329D01*
X55077Y151216D01*
X54424Y151119D01*
X53768Y151038D01*
X53110Y150973D01*
X52451Y150925D01*
X51791Y150892D01*
X51130Y150876D01*
X50470Y150876D01*
X49809Y150892D01*
X49149Y150925D01*
X48490Y150973D01*
X47832Y151038D01*
X47176Y151119D01*
X46523Y151216D01*
X45872Y151329D01*
X45223Y151458D01*
X44579Y151603D01*
X43938Y151763D01*
X43301Y151939D01*
X42668Y152131D01*
X42041Y152338D01*
X41419Y152561D01*
X40802Y152799D01*
X40192Y153052D01*
X39588Y153320D01*
X38990Y153602D01*
X38400Y153899D01*
X37817Y154211D01*
X37242Y154536D01*
X36675Y154876D01*
X36117Y155230D01*
X35567Y155597D01*
X35027Y155977D01*
X34496Y156371D01*
X33975Y156778D01*
X33465Y157197D01*
X32964Y157628D01*
X32475Y158072D01*
X31996Y158528D01*
X31529Y158995D01*
X31073Y159474D01*
X30629Y159963D01*
X30198Y160464D01*
X29778Y160974D01*
X29372Y161495D01*
X28978Y162026D01*
X28598Y162566D01*
X28230Y163116D01*
X27877Y163674D01*
X27537Y164241D01*
X27211Y164816D01*
X26900Y165399D01*
X26603Y165989D01*
X26320Y166586D01*
X26052Y167191D01*
X25799Y167801D01*
X25562Y168418D01*
X25339Y169040D01*
X25132Y169667D01*
X24940Y170300D01*
X24763Y170937D01*
X24603Y171578D01*
X24458Y172222D01*
X24329Y172870D01*
X24216Y173522D01*
X24119Y174175D01*
X24038Y174831D01*
X23973Y175489D01*
X23925Y176148D01*
X23892Y176808D01*
X23876Y177468D01*
X23876Y178129D01*
X23892Y178790D01*
X23925Y179450D01*
X23973Y180109D01*
X24038Y180767D01*
X24119Y181422D01*
X24216Y182076D01*
X24329Y182727D01*
X24458Y183375D01*
X24602Y184020D01*
X24763Y184661D01*
X24939Y185298D01*
X25131Y185930D01*
X25338Y186558D01*
X25561Y187180D01*
X25798Y187797D01*
X26051Y188407D01*
X26319Y189011D01*
X26602Y189609D01*
X26899Y190199D01*
X27210Y190782D01*
X27536Y191357D01*
X27876Y191924D01*
X28229Y192482D01*
X28596Y193032D01*
X28977Y193572D01*
X29370Y194103D01*
X29777Y194624D01*
X30196Y195134D01*
X30628Y195635D01*
X31071Y196125D01*
X31527Y196603D01*
X31994Y197070D01*
X32473Y197526D01*
X32962Y197970D01*
X33463Y198402D01*
X33974Y198821D01*
X34494Y199228D01*
X35025Y199621D01*
X35565Y200002D01*
X36115Y200369D01*
X36673Y200723D01*
X37240Y201062D01*
X37815Y201388D01*
X38398Y201700D01*
X38988Y201997D01*
X39585Y202279D01*
X40189Y202547D01*
X40800Y202800D01*
X21590Y173625D02*
X16764Y173625D01*
X16764Y174965D01*
X16766Y175035D01*
X16771Y175105D01*
X16781Y175175D01*
X16793Y175244D01*
X16810Y175312D01*
X16830Y175379D01*
X16853Y175446D01*
X16880Y175510D01*
X16910Y175574D01*
X16944Y175636D01*
X16980Y175695D01*
X17020Y175753D01*
X17063Y175809D01*
X17108Y175862D01*
X17157Y175913D01*
X17208Y175962D01*
X17261Y176007D01*
X17317Y176050D01*
X17375Y176090D01*
X17435Y176126D01*
X17496Y176160D01*
X17560Y176190D01*
X17624Y176217D01*
X17691Y176240D01*
X17758Y176260D01*
X17826Y176277D01*
X17895Y176289D01*
X17965Y176299D01*
X18035Y176304D01*
X18105Y176306D01*
X20249Y176306D01*
X20319Y176304D01*
X20389Y176299D01*
X20459Y176289D01*
X20528Y176277D01*
X20596Y176260D01*
X20663Y176240D01*
X20730Y176217D01*
X20794Y176190D01*
X20858Y176160D01*
X20920Y176126D01*
X20979Y176090D01*
X21037Y176050D01*
X21093Y176007D01*
X21146Y175962D01*
X21197Y175913D01*
X21246Y175862D01*
X21291Y175809D01*
X21334Y175753D01*
X21374Y175695D01*
X21410Y175635D01*
X21444Y175574D01*
X21474Y175510D01*
X21501Y175446D01*
X21524Y175379D01*
X21544Y175312D01*
X21561Y175244D01*
X21573Y175175D01*
X21583Y175105D01*
X21588Y175035D01*
X21590Y174965D01*
X21590Y173625D01*
X20518Y179294D02*
X16764Y180367D01*
X20518Y179294D02*
X20518Y181975D01*
X19445Y181171D02*
X21590Y181171D01*
D14*
X59400Y298400D02*
X59400Y307400D01*
X59400Y260400D02*
X59400Y251400D01*
X39400Y320400D02*
X28400Y320400D01*
X28400Y238400D02*
X39400Y238400D01*
X4400Y320400D02*
X-8600Y320400D01*
X-8600Y238400D01*
X4400Y238400D01*
X52900Y299400D02*
X52902Y299463D01*
X52908Y299525D01*
X52918Y299587D01*
X52931Y299649D01*
X52949Y299709D01*
X52970Y299768D01*
X52995Y299826D01*
X53024Y299882D01*
X53056Y299936D01*
X53091Y299988D01*
X53129Y300037D01*
X53171Y300085D01*
X53215Y300129D01*
X53263Y300171D01*
X53312Y300209D01*
X53364Y300244D01*
X53418Y300276D01*
X53474Y300305D01*
X53532Y300330D01*
X53591Y300351D01*
X53651Y300369D01*
X53713Y300382D01*
X53775Y300392D01*
X53837Y300398D01*
X53900Y300400D01*
X53963Y300398D01*
X54025Y300392D01*
X54087Y300382D01*
X54149Y300369D01*
X54209Y300351D01*
X54268Y300330D01*
X54326Y300305D01*
X54382Y300276D01*
X54436Y300244D01*
X54488Y300209D01*
X54537Y300171D01*
X54585Y300129D01*
X54629Y300085D01*
X54671Y300037D01*
X54709Y299988D01*
X54744Y299936D01*
X54776Y299882D01*
X54805Y299826D01*
X54830Y299768D01*
X54851Y299709D01*
X54869Y299649D01*
X54882Y299587D01*
X54892Y299525D01*
X54898Y299463D01*
X54900Y299400D01*
X54898Y299337D01*
X54892Y299275D01*
X54882Y299213D01*
X54869Y299151D01*
X54851Y299091D01*
X54830Y299032D01*
X54805Y298974D01*
X54776Y298918D01*
X54744Y298864D01*
X54709Y298812D01*
X54671Y298763D01*
X54629Y298715D01*
X54585Y298671D01*
X54537Y298629D01*
X54488Y298591D01*
X54436Y298556D01*
X54382Y298524D01*
X54326Y298495D01*
X54268Y298470D01*
X54209Y298449D01*
X54149Y298431D01*
X54087Y298418D01*
X54025Y298408D01*
X53963Y298402D01*
X53900Y298400D01*
X53837Y298402D01*
X53775Y298408D01*
X53713Y298418D01*
X53651Y298431D01*
X53591Y298449D01*
X53532Y298470D01*
X53474Y298495D01*
X53418Y298524D01*
X53364Y298556D01*
X53312Y298591D01*
X53263Y298629D01*
X53215Y298671D01*
X53171Y298715D01*
X53129Y298763D01*
X53091Y298812D01*
X53056Y298864D01*
X53024Y298918D01*
X52995Y298974D01*
X52970Y299032D01*
X52949Y299091D01*
X52931Y299151D01*
X52918Y299213D01*
X52908Y299275D01*
X52902Y299337D01*
X52900Y299400D01*
D11*
X75267Y285818D02*
X82181Y285818D01*
X75267Y285817D02*
X75181Y285819D01*
X75095Y285825D01*
X75009Y285834D01*
X74924Y285847D01*
X74839Y285864D01*
X74756Y285884D01*
X74673Y285908D01*
X74591Y285936D01*
X74511Y285967D01*
X74432Y286002D01*
X74355Y286040D01*
X74279Y286082D01*
X74205Y286126D01*
X74134Y286174D01*
X74064Y286225D01*
X73997Y286279D01*
X73932Y286336D01*
X73870Y286396D01*
X73810Y286458D01*
X73753Y286523D01*
X73699Y286590D01*
X73648Y286660D01*
X73600Y286731D01*
X73556Y286805D01*
X73514Y286881D01*
X73476Y286958D01*
X73441Y287037D01*
X73410Y287117D01*
X73382Y287199D01*
X73358Y287282D01*
X73338Y287365D01*
X73321Y287450D01*
X73308Y287535D01*
X73299Y287621D01*
X73293Y287707D01*
X73291Y287793D01*
X73291Y288781D01*
X80205Y281355D02*
X82181Y278886D01*
X73291Y278886D01*
X73291Y281355D02*
X73291Y276417D01*
D13*
X393700Y285750D02*
X393700Y298450D01*
X393700Y285750D02*
X387350Y279400D01*
X374650Y279400D01*
X368300Y285750D01*
X374650Y304800D02*
X387350Y304800D01*
X393700Y298450D01*
X374650Y304800D02*
X368300Y298450D01*
X368300Y285750D01*
X387350Y279400D02*
X393700Y273050D01*
X393700Y260350D01*
X387350Y254000D01*
X374650Y254000D01*
X368300Y260350D01*
X368300Y273050D01*
X374650Y279400D01*
D11*
X374523Y319838D02*
X383413Y319838D01*
X383513Y319836D01*
X383612Y319830D01*
X383712Y319820D01*
X383810Y319807D01*
X383909Y319789D01*
X384006Y319768D01*
X384102Y319743D01*
X384198Y319714D01*
X384292Y319681D01*
X384385Y319645D01*
X384476Y319605D01*
X384566Y319561D01*
X384654Y319514D01*
X384740Y319464D01*
X384824Y319410D01*
X384906Y319353D01*
X384985Y319293D01*
X385063Y319229D01*
X385137Y319163D01*
X385209Y319094D01*
X385278Y319022D01*
X385344Y318948D01*
X385408Y318870D01*
X385468Y318791D01*
X385525Y318709D01*
X385579Y318625D01*
X385629Y318539D01*
X385676Y318451D01*
X385720Y318361D01*
X385760Y318270D01*
X385796Y318177D01*
X385829Y318083D01*
X385858Y317987D01*
X385883Y317891D01*
X385904Y317794D01*
X385922Y317695D01*
X385935Y317597D01*
X385945Y317497D01*
X385951Y317398D01*
X385953Y317298D01*
X385953Y316028D01*
X385953Y325819D02*
X374523Y325819D01*
X374523Y328994D01*
X374525Y329105D01*
X374531Y329215D01*
X374540Y329326D01*
X374554Y329436D01*
X374571Y329545D01*
X374592Y329654D01*
X374617Y329762D01*
X374646Y329869D01*
X374678Y329975D01*
X374714Y330080D01*
X374754Y330183D01*
X374797Y330285D01*
X374844Y330386D01*
X374895Y330485D01*
X374948Y330582D01*
X375005Y330676D01*
X375066Y330769D01*
X375129Y330860D01*
X375196Y330949D01*
X375266Y331035D01*
X375339Y331118D01*
X375414Y331200D01*
X375492Y331278D01*
X375574Y331353D01*
X375657Y331426D01*
X375743Y331496D01*
X375832Y331563D01*
X375923Y331626D01*
X376016Y331687D01*
X376111Y331744D01*
X376207Y331797D01*
X376306Y331848D01*
X376407Y331895D01*
X376509Y331938D01*
X376612Y331978D01*
X376717Y332014D01*
X376823Y332046D01*
X376930Y332075D01*
X377038Y332100D01*
X377147Y332121D01*
X377256Y332138D01*
X377366Y332152D01*
X377477Y332161D01*
X377587Y332167D01*
X377698Y332169D01*
X377809Y332167D01*
X377919Y332161D01*
X378030Y332152D01*
X378140Y332138D01*
X378249Y332121D01*
X378358Y332100D01*
X378466Y332075D01*
X378573Y332046D01*
X378679Y332014D01*
X378784Y331978D01*
X378887Y331938D01*
X378989Y331895D01*
X379090Y331848D01*
X379189Y331797D01*
X379286Y331744D01*
X379380Y331687D01*
X379473Y331626D01*
X379564Y331563D01*
X379653Y331496D01*
X379739Y331426D01*
X379822Y331353D01*
X379904Y331278D01*
X379982Y331200D01*
X380057Y331118D01*
X380130Y331035D01*
X380200Y330949D01*
X380267Y330860D01*
X380330Y330769D01*
X380391Y330676D01*
X380448Y330582D01*
X380501Y330485D01*
X380552Y330386D01*
X380599Y330285D01*
X380642Y330183D01*
X380682Y330080D01*
X380718Y329975D01*
X380750Y329869D01*
X380779Y329762D01*
X380804Y329654D01*
X380825Y329545D01*
X380842Y329436D01*
X380856Y329326D01*
X380865Y329215D01*
X380871Y329105D01*
X380873Y328994D01*
X380873Y325819D01*
X377063Y336677D02*
X374523Y339852D01*
X385953Y339852D01*
X385953Y336677D02*
X385953Y343027D01*
D13*
X117311Y199898D02*
X116772Y199654D01*
X116239Y199396D01*
X115713Y199126D01*
X115194Y198843D01*
X114682Y198547D01*
X114177Y198239D01*
X113679Y197918D01*
X113190Y197585D01*
X112709Y197241D01*
X112237Y196885D01*
X111774Y196517D01*
X111319Y196138D01*
X110875Y195748D01*
X110439Y195347D01*
X110014Y194936D01*
X109599Y194514D01*
X109195Y194083D01*
X108801Y193641D01*
X108418Y193190D01*
X108046Y192730D01*
X107686Y192261D01*
X107337Y191783D01*
X107001Y191297D01*
X106676Y190802D01*
X106363Y190300D01*
X106063Y189790D01*
X105775Y189273D01*
X105500Y188749D01*
X105238Y188219D01*
X104989Y187682D01*
X104754Y187140D01*
X104532Y186592D01*
X104323Y186038D01*
X104128Y185480D01*
X103946Y184916D01*
X103779Y184349D01*
X103625Y183778D01*
X103486Y183203D01*
X103360Y182625D01*
X103249Y182044D01*
X103152Y181460D01*
X103070Y180874D01*
X103001Y180287D01*
X102948Y179698D01*
X102908Y179107D01*
X102884Y178516D01*
X102873Y177925D01*
X102878Y177333D01*
X102896Y176742D01*
X102929Y176151D01*
X102977Y175562D01*
X103039Y174973D01*
X103116Y174387D01*
X103206Y173802D01*
X103312Y173220D01*
X103431Y172641D01*
X103565Y172064D01*
X103712Y171491D01*
X103874Y170922D01*
X104049Y170357D01*
X104239Y169797D01*
X104442Y169241D01*
X104658Y168691D01*
X104888Y168146D01*
X105132Y167607D01*
X105388Y167073D01*
X105658Y166547D01*
X105940Y166027D01*
X106235Y165514D01*
X106542Y165009D01*
X106862Y164511D01*
X107194Y164021D01*
X107538Y163540D01*
X107893Y163067D01*
X108260Y162603D01*
X108638Y162148D01*
X109027Y161702D01*
X109427Y161267D01*
X109838Y160841D01*
X110259Y160425D01*
X110690Y160020D01*
X143310Y160020D02*
X143741Y160425D01*
X144162Y160841D01*
X144573Y161267D01*
X144973Y161702D01*
X145362Y162148D01*
X145740Y162603D01*
X146107Y163067D01*
X146462Y163540D01*
X146806Y164021D01*
X147138Y164511D01*
X147458Y165009D01*
X147765Y165514D01*
X148060Y166027D01*
X148342Y166547D01*
X148612Y167073D01*
X148868Y167607D01*
X149112Y168146D01*
X149342Y168691D01*
X149558Y169241D01*
X149761Y169797D01*
X149951Y170357D01*
X150126Y170922D01*
X150288Y171491D01*
X150435Y172064D01*
X150569Y172641D01*
X150688Y173220D01*
X150794Y173802D01*
X150884Y174387D01*
X150961Y174973D01*
X151023Y175562D01*
X151071Y176151D01*
X151104Y176742D01*
X151122Y177333D01*
X151127Y177925D01*
X151116Y178516D01*
X151092Y179107D01*
X151052Y179698D01*
X150999Y180287D01*
X150930Y180874D01*
X150848Y181460D01*
X150751Y182044D01*
X150640Y182625D01*
X150514Y183203D01*
X150375Y183778D01*
X150221Y184349D01*
X150054Y184916D01*
X149872Y185480D01*
X149677Y186038D01*
X149468Y186592D01*
X149246Y187140D01*
X149011Y187682D01*
X148762Y188219D01*
X148500Y188749D01*
X148225Y189273D01*
X147937Y189790D01*
X147637Y190300D01*
X147324Y190802D01*
X146999Y191297D01*
X146663Y191783D01*
X146314Y192261D01*
X145954Y192730D01*
X145582Y193190D01*
X145199Y193641D01*
X144805Y194083D01*
X144401Y194514D01*
X143986Y194936D01*
X143561Y195347D01*
X143125Y195748D01*
X142681Y196138D01*
X142226Y196517D01*
X141763Y196885D01*
X141291Y197241D01*
X140810Y197585D01*
X140321Y197918D01*
X139823Y198239D01*
X139318Y198547D01*
X138806Y198843D01*
X138287Y199126D01*
X137761Y199396D01*
X137228Y199654D01*
X136689Y199898D01*
X143310Y160020D02*
X110690Y160020D01*
D11*
X146685Y200660D02*
X146685Y205740D01*
X146687Y205851D01*
X146693Y205961D01*
X146702Y206072D01*
X146716Y206182D01*
X146733Y206291D01*
X146754Y206400D01*
X146779Y206508D01*
X146808Y206615D01*
X146840Y206721D01*
X146876Y206826D01*
X146916Y206929D01*
X146959Y207031D01*
X147006Y207132D01*
X147057Y207231D01*
X147110Y207328D01*
X147167Y207422D01*
X147228Y207515D01*
X147291Y207606D01*
X147358Y207695D01*
X147428Y207781D01*
X147501Y207864D01*
X147576Y207946D01*
X147654Y208024D01*
X147736Y208099D01*
X147819Y208172D01*
X147905Y208242D01*
X147994Y208309D01*
X148085Y208372D01*
X148178Y208433D01*
X148273Y208490D01*
X148369Y208543D01*
X148468Y208594D01*
X148569Y208641D01*
X148671Y208684D01*
X148774Y208724D01*
X148879Y208760D01*
X148985Y208792D01*
X149092Y208821D01*
X149200Y208846D01*
X149309Y208867D01*
X149418Y208884D01*
X149528Y208898D01*
X149639Y208907D01*
X149749Y208913D01*
X149860Y208915D01*
X149971Y208913D01*
X150081Y208907D01*
X150192Y208898D01*
X150302Y208884D01*
X150411Y208867D01*
X150520Y208846D01*
X150628Y208821D01*
X150735Y208792D01*
X150841Y208760D01*
X150946Y208724D01*
X151049Y208684D01*
X151151Y208641D01*
X151252Y208594D01*
X151351Y208543D01*
X151448Y208490D01*
X151542Y208433D01*
X151635Y208372D01*
X151726Y208309D01*
X151815Y208242D01*
X151901Y208172D01*
X151984Y208099D01*
X152066Y208024D01*
X152144Y207946D01*
X152219Y207864D01*
X152292Y207781D01*
X152362Y207695D01*
X152429Y207606D01*
X152492Y207515D01*
X152553Y207422D01*
X152610Y207328D01*
X152663Y207231D01*
X152714Y207132D01*
X152761Y207031D01*
X152804Y206929D01*
X152844Y206826D01*
X152880Y206721D01*
X152912Y206615D01*
X152941Y206508D01*
X152966Y206400D01*
X152987Y206291D01*
X153004Y206182D01*
X153018Y206072D01*
X153027Y205961D01*
X153033Y205851D01*
X153035Y205740D01*
X153035Y200660D01*
X153033Y200549D01*
X153027Y200439D01*
X153018Y200328D01*
X153004Y200218D01*
X152987Y200109D01*
X152966Y200000D01*
X152941Y199892D01*
X152912Y199785D01*
X152880Y199679D01*
X152844Y199574D01*
X152804Y199471D01*
X152761Y199369D01*
X152714Y199268D01*
X152663Y199169D01*
X152610Y199072D01*
X152553Y198978D01*
X152492Y198885D01*
X152429Y198794D01*
X152362Y198705D01*
X152292Y198619D01*
X152219Y198536D01*
X152144Y198454D01*
X152066Y198376D01*
X151984Y198301D01*
X151901Y198228D01*
X151815Y198158D01*
X151726Y198091D01*
X151635Y198028D01*
X151542Y197967D01*
X151447Y197910D01*
X151351Y197857D01*
X151252Y197806D01*
X151151Y197759D01*
X151049Y197716D01*
X150946Y197676D01*
X150841Y197640D01*
X150735Y197608D01*
X150628Y197579D01*
X150520Y197554D01*
X150411Y197533D01*
X150302Y197516D01*
X150192Y197502D01*
X150081Y197493D01*
X149971Y197487D01*
X149860Y197485D01*
X149749Y197487D01*
X149639Y197493D01*
X149528Y197502D01*
X149418Y197516D01*
X149309Y197533D01*
X149200Y197554D01*
X149092Y197579D01*
X148985Y197608D01*
X148879Y197640D01*
X148774Y197676D01*
X148671Y197716D01*
X148569Y197759D01*
X148468Y197806D01*
X148369Y197857D01*
X148273Y197910D01*
X148178Y197967D01*
X148085Y198028D01*
X147994Y198091D01*
X147905Y198158D01*
X147819Y198228D01*
X147736Y198301D01*
X147654Y198376D01*
X147576Y198454D01*
X147501Y198536D01*
X147428Y198619D01*
X147358Y198705D01*
X147291Y198794D01*
X147228Y198885D01*
X147167Y198978D01*
X147110Y199073D01*
X147057Y199169D01*
X147006Y199268D01*
X146959Y199369D01*
X146916Y199471D01*
X146876Y199574D01*
X146840Y199679D01*
X146808Y199785D01*
X146779Y199892D01*
X146754Y200000D01*
X146733Y200109D01*
X146716Y200218D01*
X146702Y200328D01*
X146693Y200439D01*
X146687Y200549D01*
X146685Y200660D01*
X151765Y200025D02*
X154305Y197485D01*
X157746Y206375D02*
X160921Y208915D01*
X160921Y197485D01*
X157746Y197485D02*
X164096Y197485D01*
D13*
X182637Y203285D02*
X182022Y203087D01*
X181411Y202874D01*
X180806Y202646D01*
X180207Y202404D01*
X179614Y202147D01*
X179027Y201876D01*
X178447Y201591D01*
X177874Y201292D01*
X177308Y200979D01*
X176750Y200652D01*
X176201Y200313D01*
X175659Y199959D01*
X175126Y199593D01*
X174603Y199214D01*
X174088Y198823D01*
X173584Y198419D01*
X173089Y198003D01*
X172605Y197575D01*
X172131Y197135D01*
X171667Y196684D01*
X171215Y196222D01*
X170774Y195750D01*
X170345Y195266D01*
X169928Y194773D01*
X169522Y194269D01*
X169129Y193756D01*
X168749Y193233D01*
X168381Y192702D01*
X168027Y192161D01*
X167685Y191612D01*
X167357Y191055D01*
X167043Y190490D01*
X166742Y189918D01*
X166455Y189339D01*
X166183Y188753D01*
X165925Y188160D01*
X165681Y187562D01*
X165451Y186957D01*
X165237Y186347D01*
X165037Y185733D01*
X164852Y185113D01*
X164683Y184489D01*
X164528Y183862D01*
X164389Y183231D01*
X164265Y182596D01*
X164156Y181959D01*
X164063Y181319D01*
X163986Y180677D01*
X163924Y180034D01*
X163877Y179389D01*
X163847Y178744D01*
X163832Y178097D01*
X163832Y177451D01*
X163849Y176805D01*
X163881Y176159D01*
X163928Y175514D01*
X163991Y174871D01*
X164070Y174230D01*
X164164Y173590D01*
X164274Y172953D01*
X164399Y172319D01*
X164540Y171688D01*
X164696Y171061D01*
X164866Y170437D01*
X165052Y169818D01*
X165253Y169204D01*
X165469Y168594D01*
X165700Y167990D01*
X165945Y167392D01*
X166204Y166800D01*
X166478Y166215D01*
X166766Y165636D01*
X167067Y165064D01*
X167383Y164500D01*
X167712Y163944D01*
X168055Y163395D01*
X168410Y162856D01*
X168779Y162325D01*
X169160Y161803D01*
X169554Y161290D01*
X211450Y161290D02*
X211844Y161802D01*
X212226Y162324D01*
X212594Y162855D01*
X212950Y163395D01*
X213293Y163943D01*
X213622Y164499D01*
X213937Y165064D01*
X214239Y165635D01*
X214527Y166214D01*
X214801Y166800D01*
X215060Y167392D01*
X215305Y167990D01*
X215536Y168594D01*
X215751Y169203D01*
X215952Y169818D01*
X216138Y170437D01*
X216309Y171060D01*
X216465Y171687D01*
X216606Y172318D01*
X216731Y172953D01*
X216841Y173590D01*
X216935Y174229D01*
X217014Y174871D01*
X217077Y175514D01*
X217124Y176159D01*
X217156Y176804D01*
X217173Y177451D01*
X217173Y178097D01*
X217158Y178743D01*
X217128Y179389D01*
X217081Y180034D01*
X217019Y180677D01*
X216942Y181319D01*
X216849Y181958D01*
X216740Y182596D01*
X216616Y183230D01*
X216477Y183861D01*
X216323Y184489D01*
X216153Y185113D01*
X215968Y185732D01*
X215768Y186347D01*
X215554Y186957D01*
X215324Y187561D01*
X215081Y188160D01*
X214822Y188752D01*
X214550Y189339D01*
X214263Y189918D01*
X213962Y190490D01*
X213648Y191055D01*
X213320Y191612D01*
X212978Y192161D01*
X212624Y192701D01*
X212256Y193233D01*
X211876Y193756D01*
X211483Y194269D01*
X211077Y194772D01*
X210660Y195266D01*
X210231Y195749D01*
X209790Y196222D01*
X209338Y196684D01*
X208875Y197135D01*
X208401Y197575D01*
X207916Y198002D01*
X207421Y198419D01*
X206917Y198822D01*
X206402Y199214D01*
X205879Y199593D01*
X205346Y199959D01*
X204805Y200312D01*
X204255Y200652D01*
X203697Y200979D01*
X203131Y201292D01*
X202558Y201591D01*
X201978Y201876D01*
X201391Y202147D01*
X200798Y202404D01*
X200199Y202646D01*
X199594Y202874D01*
X198983Y203086D01*
X198368Y203285D01*
X211450Y161290D02*
X169550Y161290D01*
X167960Y175260D02*
X163950Y175260D01*
X187640Y175260D02*
X193360Y175260D01*
X213040Y175260D02*
X217050Y175260D01*
D11*
X210185Y200660D02*
X210185Y205740D01*
X210187Y205851D01*
X210193Y205961D01*
X210202Y206072D01*
X210216Y206182D01*
X210233Y206291D01*
X210254Y206400D01*
X210279Y206508D01*
X210308Y206615D01*
X210340Y206721D01*
X210376Y206826D01*
X210416Y206929D01*
X210459Y207031D01*
X210506Y207132D01*
X210557Y207231D01*
X210610Y207328D01*
X210667Y207422D01*
X210728Y207515D01*
X210791Y207606D01*
X210858Y207695D01*
X210928Y207781D01*
X211001Y207864D01*
X211076Y207946D01*
X211154Y208024D01*
X211236Y208099D01*
X211319Y208172D01*
X211405Y208242D01*
X211494Y208309D01*
X211585Y208372D01*
X211678Y208433D01*
X211773Y208490D01*
X211869Y208543D01*
X211968Y208594D01*
X212069Y208641D01*
X212171Y208684D01*
X212274Y208724D01*
X212379Y208760D01*
X212485Y208792D01*
X212592Y208821D01*
X212700Y208846D01*
X212809Y208867D01*
X212918Y208884D01*
X213028Y208898D01*
X213139Y208907D01*
X213249Y208913D01*
X213360Y208915D01*
X213471Y208913D01*
X213581Y208907D01*
X213692Y208898D01*
X213802Y208884D01*
X213911Y208867D01*
X214020Y208846D01*
X214128Y208821D01*
X214235Y208792D01*
X214341Y208760D01*
X214446Y208724D01*
X214549Y208684D01*
X214651Y208641D01*
X214752Y208594D01*
X214851Y208543D01*
X214948Y208490D01*
X215042Y208433D01*
X215135Y208372D01*
X215226Y208309D01*
X215315Y208242D01*
X215401Y208172D01*
X215484Y208099D01*
X215566Y208024D01*
X215644Y207946D01*
X215719Y207864D01*
X215792Y207781D01*
X215862Y207695D01*
X215929Y207606D01*
X215992Y207515D01*
X216053Y207422D01*
X216110Y207328D01*
X216163Y207231D01*
X216214Y207132D01*
X216261Y207031D01*
X216304Y206929D01*
X216344Y206826D01*
X216380Y206721D01*
X216412Y206615D01*
X216441Y206508D01*
X216466Y206400D01*
X216487Y206291D01*
X216504Y206182D01*
X216518Y206072D01*
X216527Y205961D01*
X216533Y205851D01*
X216535Y205740D01*
X216535Y200660D01*
X216533Y200549D01*
X216527Y200439D01*
X216518Y200328D01*
X216504Y200218D01*
X216487Y200109D01*
X216466Y200000D01*
X216441Y199892D01*
X216412Y199785D01*
X216380Y199679D01*
X216344Y199574D01*
X216304Y199471D01*
X216261Y199369D01*
X216214Y199268D01*
X216163Y199169D01*
X216110Y199072D01*
X216053Y198978D01*
X215992Y198885D01*
X215929Y198794D01*
X215862Y198705D01*
X215792Y198619D01*
X215719Y198536D01*
X215644Y198454D01*
X215566Y198376D01*
X215484Y198301D01*
X215401Y198228D01*
X215315Y198158D01*
X215226Y198091D01*
X215135Y198028D01*
X215042Y197967D01*
X214947Y197910D01*
X214851Y197857D01*
X214752Y197806D01*
X214651Y197759D01*
X214549Y197716D01*
X214446Y197676D01*
X214341Y197640D01*
X214235Y197608D01*
X214128Y197579D01*
X214020Y197554D01*
X213911Y197533D01*
X213802Y197516D01*
X213692Y197502D01*
X213581Y197493D01*
X213471Y197487D01*
X213360Y197485D01*
X213249Y197487D01*
X213139Y197493D01*
X213028Y197502D01*
X212918Y197516D01*
X212809Y197533D01*
X212700Y197554D01*
X212592Y197579D01*
X212485Y197608D01*
X212379Y197640D01*
X212274Y197676D01*
X212171Y197716D01*
X212069Y197759D01*
X211968Y197806D01*
X211869Y197857D01*
X211773Y197910D01*
X211678Y197967D01*
X211585Y198028D01*
X211494Y198091D01*
X211405Y198158D01*
X211319Y198228D01*
X211236Y198301D01*
X211154Y198376D01*
X211076Y198454D01*
X211001Y198536D01*
X210928Y198619D01*
X210858Y198705D01*
X210791Y198794D01*
X210728Y198885D01*
X210667Y198978D01*
X210610Y199073D01*
X210557Y199169D01*
X210506Y199268D01*
X210459Y199369D01*
X210416Y199471D01*
X210376Y199574D01*
X210340Y199679D01*
X210308Y199785D01*
X210279Y199892D01*
X210254Y200000D01*
X210233Y200109D01*
X210216Y200218D01*
X210202Y200328D01*
X210193Y200439D01*
X210187Y200549D01*
X210185Y200660D01*
X215265Y200025D02*
X217805Y197485D01*
X227596Y206058D02*
X227594Y206162D01*
X227588Y206267D01*
X227579Y206371D01*
X227566Y206474D01*
X227548Y206577D01*
X227528Y206679D01*
X227503Y206781D01*
X227475Y206881D01*
X227443Y206981D01*
X227407Y207079D01*
X227368Y207176D01*
X227326Y207271D01*
X227280Y207365D01*
X227230Y207457D01*
X227178Y207547D01*
X227122Y207635D01*
X227062Y207721D01*
X227000Y207805D01*
X226935Y207886D01*
X226867Y207965D01*
X226795Y208042D01*
X226722Y208115D01*
X226645Y208187D01*
X226566Y208255D01*
X226485Y208320D01*
X226401Y208382D01*
X226315Y208442D01*
X226227Y208498D01*
X226137Y208550D01*
X226045Y208600D01*
X225951Y208646D01*
X225856Y208688D01*
X225759Y208727D01*
X225661Y208763D01*
X225561Y208795D01*
X225461Y208823D01*
X225359Y208848D01*
X225257Y208868D01*
X225154Y208886D01*
X225051Y208899D01*
X224947Y208908D01*
X224842Y208914D01*
X224738Y208916D01*
X224738Y208915D02*
X224620Y208913D01*
X224501Y208907D01*
X224383Y208898D01*
X224266Y208885D01*
X224149Y208867D01*
X224032Y208847D01*
X223916Y208822D01*
X223801Y208794D01*
X223688Y208761D01*
X223575Y208726D01*
X223463Y208686D01*
X223353Y208644D01*
X223244Y208597D01*
X223136Y208547D01*
X223031Y208494D01*
X222927Y208437D01*
X222825Y208377D01*
X222725Y208314D01*
X222627Y208247D01*
X222531Y208178D01*
X222438Y208105D01*
X222347Y208029D01*
X222258Y207951D01*
X222172Y207869D01*
X222089Y207785D01*
X222008Y207699D01*
X221931Y207609D01*
X221856Y207518D01*
X221784Y207424D01*
X221715Y207327D01*
X221650Y207229D01*
X221587Y207128D01*
X221528Y207025D01*
X221472Y206921D01*
X221420Y206815D01*
X221371Y206707D01*
X221326Y206598D01*
X221284Y206487D01*
X221246Y206375D01*
X226643Y203836D02*
X226719Y203911D01*
X226794Y203990D01*
X226865Y204071D01*
X226934Y204155D01*
X226999Y204241D01*
X227061Y204329D01*
X227121Y204419D01*
X227177Y204511D01*
X227230Y204606D01*
X227279Y204702D01*
X227325Y204800D01*
X227368Y204899D01*
X227407Y205000D01*
X227442Y205102D01*
X227474Y205205D01*
X227502Y205309D01*
X227527Y205414D01*
X227548Y205521D01*
X227565Y205627D01*
X227578Y205734D01*
X227587Y205842D01*
X227593Y205950D01*
X227595Y206058D01*
X226643Y203835D02*
X221246Y197485D01*
X227596Y197485D01*
D13*
X246137Y203285D02*
X245522Y203087D01*
X244911Y202874D01*
X244306Y202646D01*
X243707Y202404D01*
X243114Y202147D01*
X242527Y201876D01*
X241947Y201591D01*
X241374Y201292D01*
X240808Y200979D01*
X240250Y200652D01*
X239701Y200313D01*
X239159Y199959D01*
X238626Y199593D01*
X238103Y199214D01*
X237588Y198823D01*
X237084Y198419D01*
X236589Y198003D01*
X236105Y197575D01*
X235631Y197135D01*
X235167Y196684D01*
X234715Y196222D01*
X234274Y195750D01*
X233845Y195266D01*
X233428Y194773D01*
X233022Y194269D01*
X232629Y193756D01*
X232249Y193233D01*
X231881Y192702D01*
X231527Y192161D01*
X231185Y191612D01*
X230857Y191055D01*
X230543Y190490D01*
X230242Y189918D01*
X229955Y189339D01*
X229683Y188753D01*
X229425Y188160D01*
X229181Y187562D01*
X228951Y186957D01*
X228737Y186347D01*
X228537Y185733D01*
X228352Y185113D01*
X228183Y184489D01*
X228028Y183862D01*
X227889Y183231D01*
X227765Y182596D01*
X227656Y181959D01*
X227563Y181319D01*
X227486Y180677D01*
X227424Y180034D01*
X227377Y179389D01*
X227347Y178744D01*
X227332Y178097D01*
X227332Y177451D01*
X227349Y176805D01*
X227381Y176159D01*
X227428Y175514D01*
X227491Y174871D01*
X227570Y174230D01*
X227664Y173590D01*
X227774Y172953D01*
X227899Y172319D01*
X228040Y171688D01*
X228196Y171061D01*
X228366Y170437D01*
X228552Y169818D01*
X228753Y169204D01*
X228969Y168594D01*
X229200Y167990D01*
X229445Y167392D01*
X229704Y166800D01*
X229978Y166215D01*
X230266Y165636D01*
X230567Y165064D01*
X230883Y164500D01*
X231212Y163944D01*
X231555Y163395D01*
X231910Y162856D01*
X232279Y162325D01*
X232660Y161803D01*
X233054Y161290D01*
X274950Y161290D02*
X275344Y161802D01*
X275726Y162324D01*
X276094Y162855D01*
X276450Y163395D01*
X276793Y163943D01*
X277122Y164499D01*
X277437Y165064D01*
X277739Y165635D01*
X278027Y166214D01*
X278301Y166800D01*
X278560Y167392D01*
X278805Y167990D01*
X279036Y168594D01*
X279251Y169203D01*
X279452Y169818D01*
X279638Y170437D01*
X279809Y171060D01*
X279965Y171687D01*
X280106Y172318D01*
X280231Y172953D01*
X280341Y173590D01*
X280435Y174229D01*
X280514Y174871D01*
X280577Y175514D01*
X280624Y176159D01*
X280656Y176804D01*
X280673Y177451D01*
X280673Y178097D01*
X280658Y178743D01*
X280628Y179389D01*
X280581Y180034D01*
X280519Y180677D01*
X280442Y181319D01*
X280349Y181958D01*
X280240Y182596D01*
X280116Y183230D01*
X279977Y183861D01*
X279823Y184489D01*
X279653Y185113D01*
X279468Y185732D01*
X279268Y186347D01*
X279054Y186957D01*
X278824Y187561D01*
X278581Y188160D01*
X278322Y188752D01*
X278050Y189339D01*
X277763Y189918D01*
X277462Y190490D01*
X277148Y191055D01*
X276820Y191612D01*
X276478Y192161D01*
X276124Y192701D01*
X275756Y193233D01*
X275376Y193756D01*
X274983Y194269D01*
X274577Y194772D01*
X274160Y195266D01*
X273731Y195749D01*
X273290Y196222D01*
X272838Y196684D01*
X272375Y197135D01*
X271901Y197575D01*
X271416Y198002D01*
X270921Y198419D01*
X270417Y198822D01*
X269902Y199214D01*
X269379Y199593D01*
X268846Y199959D01*
X268305Y200312D01*
X267755Y200652D01*
X267197Y200979D01*
X266631Y201292D01*
X266058Y201591D01*
X265478Y201876D01*
X264891Y202147D01*
X264298Y202404D01*
X263699Y202646D01*
X263094Y202874D01*
X262483Y203086D01*
X261868Y203285D01*
X274950Y161290D02*
X233050Y161290D01*
X231460Y175260D02*
X227450Y175260D01*
X251140Y175260D02*
X256860Y175260D01*
X276540Y175260D02*
X280550Y175260D01*
D11*
X273685Y200660D02*
X273685Y205740D01*
X273687Y205851D01*
X273693Y205961D01*
X273702Y206072D01*
X273716Y206182D01*
X273733Y206291D01*
X273754Y206400D01*
X273779Y206508D01*
X273808Y206615D01*
X273840Y206721D01*
X273876Y206826D01*
X273916Y206929D01*
X273959Y207031D01*
X274006Y207132D01*
X274057Y207231D01*
X274110Y207328D01*
X274167Y207422D01*
X274228Y207515D01*
X274291Y207606D01*
X274358Y207695D01*
X274428Y207781D01*
X274501Y207864D01*
X274576Y207946D01*
X274654Y208024D01*
X274736Y208099D01*
X274819Y208172D01*
X274905Y208242D01*
X274994Y208309D01*
X275085Y208372D01*
X275178Y208433D01*
X275273Y208490D01*
X275369Y208543D01*
X275468Y208594D01*
X275569Y208641D01*
X275671Y208684D01*
X275774Y208724D01*
X275879Y208760D01*
X275985Y208792D01*
X276092Y208821D01*
X276200Y208846D01*
X276309Y208867D01*
X276418Y208884D01*
X276528Y208898D01*
X276639Y208907D01*
X276749Y208913D01*
X276860Y208915D01*
X276971Y208913D01*
X277081Y208907D01*
X277192Y208898D01*
X277302Y208884D01*
X277411Y208867D01*
X277520Y208846D01*
X277628Y208821D01*
X277735Y208792D01*
X277841Y208760D01*
X277946Y208724D01*
X278049Y208684D01*
X278151Y208641D01*
X278252Y208594D01*
X278351Y208543D01*
X278448Y208490D01*
X278542Y208433D01*
X278635Y208372D01*
X278726Y208309D01*
X278815Y208242D01*
X278901Y208172D01*
X278984Y208099D01*
X279066Y208024D01*
X279144Y207946D01*
X279219Y207864D01*
X279292Y207781D01*
X279362Y207695D01*
X279429Y207606D01*
X279492Y207515D01*
X279553Y207422D01*
X279610Y207328D01*
X279663Y207231D01*
X279714Y207132D01*
X279761Y207031D01*
X279804Y206929D01*
X279844Y206826D01*
X279880Y206721D01*
X279912Y206615D01*
X279941Y206508D01*
X279966Y206400D01*
X279987Y206291D01*
X280004Y206182D01*
X280018Y206072D01*
X280027Y205961D01*
X280033Y205851D01*
X280035Y205740D01*
X280035Y200660D01*
X280033Y200549D01*
X280027Y200439D01*
X280018Y200328D01*
X280004Y200218D01*
X279987Y200109D01*
X279966Y200000D01*
X279941Y199892D01*
X279912Y199785D01*
X279880Y199679D01*
X279844Y199574D01*
X279804Y199471D01*
X279761Y199369D01*
X279714Y199268D01*
X279663Y199169D01*
X279610Y199072D01*
X279553Y198978D01*
X279492Y198885D01*
X279429Y198794D01*
X279362Y198705D01*
X279292Y198619D01*
X279219Y198536D01*
X279144Y198454D01*
X279066Y198376D01*
X278984Y198301D01*
X278901Y198228D01*
X278815Y198158D01*
X278726Y198091D01*
X278635Y198028D01*
X278542Y197967D01*
X278447Y197910D01*
X278351Y197857D01*
X278252Y197806D01*
X278151Y197759D01*
X278049Y197716D01*
X277946Y197676D01*
X277841Y197640D01*
X277735Y197608D01*
X277628Y197579D01*
X277520Y197554D01*
X277411Y197533D01*
X277302Y197516D01*
X277192Y197502D01*
X277081Y197493D01*
X276971Y197487D01*
X276860Y197485D01*
X276749Y197487D01*
X276639Y197493D01*
X276528Y197502D01*
X276418Y197516D01*
X276309Y197533D01*
X276200Y197554D01*
X276092Y197579D01*
X275985Y197608D01*
X275879Y197640D01*
X275774Y197676D01*
X275671Y197716D01*
X275569Y197759D01*
X275468Y197806D01*
X275369Y197857D01*
X275273Y197910D01*
X275178Y197967D01*
X275085Y198028D01*
X274994Y198091D01*
X274905Y198158D01*
X274819Y198228D01*
X274736Y198301D01*
X274654Y198376D01*
X274576Y198454D01*
X274501Y198536D01*
X274428Y198619D01*
X274358Y198705D01*
X274291Y198794D01*
X274228Y198885D01*
X274167Y198978D01*
X274110Y199073D01*
X274057Y199169D01*
X274006Y199268D01*
X273959Y199369D01*
X273916Y199471D01*
X273876Y199574D01*
X273840Y199679D01*
X273808Y199785D01*
X273779Y199892D01*
X273754Y200000D01*
X273733Y200109D01*
X273716Y200218D01*
X273702Y200328D01*
X273693Y200439D01*
X273687Y200549D01*
X273685Y200660D01*
X278765Y200025D02*
X281305Y197485D01*
X284746Y197485D02*
X287921Y197485D01*
X288032Y197487D01*
X288142Y197493D01*
X288253Y197502D01*
X288363Y197516D01*
X288472Y197533D01*
X288581Y197554D01*
X288689Y197579D01*
X288796Y197608D01*
X288902Y197640D01*
X289007Y197676D01*
X289110Y197716D01*
X289212Y197759D01*
X289313Y197806D01*
X289412Y197857D01*
X289509Y197910D01*
X289603Y197967D01*
X289696Y198028D01*
X289787Y198091D01*
X289876Y198158D01*
X289962Y198228D01*
X290045Y198301D01*
X290127Y198376D01*
X290205Y198454D01*
X290280Y198536D01*
X290353Y198619D01*
X290423Y198705D01*
X290490Y198794D01*
X290553Y198885D01*
X290614Y198978D01*
X290671Y199072D01*
X290724Y199169D01*
X290775Y199268D01*
X290822Y199369D01*
X290865Y199471D01*
X290905Y199574D01*
X290941Y199679D01*
X290973Y199785D01*
X291002Y199892D01*
X291027Y200000D01*
X291048Y200109D01*
X291065Y200218D01*
X291079Y200328D01*
X291088Y200439D01*
X291094Y200549D01*
X291096Y200660D01*
X291094Y200771D01*
X291088Y200881D01*
X291079Y200992D01*
X291065Y201102D01*
X291048Y201211D01*
X291027Y201320D01*
X291002Y201428D01*
X290973Y201535D01*
X290941Y201641D01*
X290905Y201746D01*
X290865Y201849D01*
X290822Y201951D01*
X290775Y202052D01*
X290724Y202151D01*
X290671Y202247D01*
X290614Y202342D01*
X290553Y202435D01*
X290490Y202526D01*
X290423Y202615D01*
X290353Y202701D01*
X290280Y202784D01*
X290205Y202866D01*
X290127Y202944D01*
X290045Y203019D01*
X289962Y203092D01*
X289876Y203162D01*
X289787Y203229D01*
X289696Y203292D01*
X289603Y203353D01*
X289509Y203410D01*
X289412Y203463D01*
X289313Y203514D01*
X289212Y203561D01*
X289110Y203604D01*
X289007Y203644D01*
X288902Y203680D01*
X288796Y203712D01*
X288689Y203741D01*
X288581Y203766D01*
X288472Y203787D01*
X288363Y203804D01*
X288253Y203818D01*
X288142Y203827D01*
X288032Y203833D01*
X287921Y203835D01*
X288556Y208915D02*
X284746Y208915D01*
X288556Y208915D02*
X288656Y208913D01*
X288755Y208907D01*
X288855Y208897D01*
X288953Y208884D01*
X289052Y208866D01*
X289149Y208845D01*
X289245Y208820D01*
X289341Y208791D01*
X289435Y208758D01*
X289528Y208722D01*
X289619Y208682D01*
X289709Y208638D01*
X289797Y208591D01*
X289883Y208541D01*
X289967Y208487D01*
X290049Y208430D01*
X290128Y208370D01*
X290206Y208306D01*
X290280Y208240D01*
X290352Y208171D01*
X290421Y208099D01*
X290487Y208025D01*
X290551Y207947D01*
X290611Y207868D01*
X290668Y207786D01*
X290722Y207702D01*
X290772Y207616D01*
X290819Y207528D01*
X290863Y207438D01*
X290903Y207347D01*
X290939Y207254D01*
X290972Y207160D01*
X291001Y207064D01*
X291026Y206968D01*
X291047Y206871D01*
X291065Y206772D01*
X291078Y206674D01*
X291088Y206574D01*
X291094Y206475D01*
X291096Y206375D01*
X291094Y206275D01*
X291088Y206176D01*
X291078Y206076D01*
X291065Y205978D01*
X291047Y205879D01*
X291026Y205782D01*
X291001Y205686D01*
X290972Y205590D01*
X290939Y205496D01*
X290903Y205403D01*
X290863Y205312D01*
X290819Y205222D01*
X290772Y205134D01*
X290722Y205048D01*
X290668Y204964D01*
X290611Y204882D01*
X290551Y204803D01*
X290487Y204725D01*
X290421Y204651D01*
X290352Y204579D01*
X290280Y204510D01*
X290206Y204444D01*
X290128Y204380D01*
X290049Y204320D01*
X289967Y204263D01*
X289883Y204209D01*
X289797Y204159D01*
X289709Y204112D01*
X289619Y204068D01*
X289528Y204028D01*
X289435Y203992D01*
X289341Y203959D01*
X289245Y203930D01*
X289149Y203905D01*
X289052Y203884D01*
X288953Y203866D01*
X288855Y203853D01*
X288755Y203843D01*
X288656Y203837D01*
X288556Y203835D01*
X286016Y203835D01*
D10*
X152400Y147320D02*
X101600Y147320D01*
X152400Y147320D02*
X152400Y139700D01*
X152400Y132080D01*
X101600Y132080D01*
X101600Y139700D01*
X101600Y147320D01*
X152400Y139700D02*
X154940Y139700D01*
X101600Y139700D02*
X99060Y139700D01*
D11*
X122948Y137795D02*
X122948Y142621D01*
X124289Y142621D01*
X124360Y142619D01*
X124432Y142613D01*
X124502Y142604D01*
X124572Y142591D01*
X124642Y142574D01*
X124710Y142553D01*
X124777Y142529D01*
X124843Y142501D01*
X124907Y142470D01*
X124970Y142435D01*
X125030Y142397D01*
X125089Y142356D01*
X125145Y142312D01*
X125199Y142265D01*
X125250Y142216D01*
X125298Y142163D01*
X125344Y142108D01*
X125386Y142051D01*
X125426Y141991D01*
X125462Y141930D01*
X125495Y141866D01*
X125524Y141801D01*
X125550Y141735D01*
X125573Y141667D01*
X125592Y141598D01*
X125607Y141528D01*
X125618Y141458D01*
X125626Y141387D01*
X125630Y141316D01*
X125630Y141244D01*
X125626Y141173D01*
X125618Y141102D01*
X125607Y141032D01*
X125592Y140962D01*
X125573Y140893D01*
X125550Y140825D01*
X125524Y140759D01*
X125495Y140694D01*
X125462Y140630D01*
X125426Y140569D01*
X125386Y140509D01*
X125344Y140452D01*
X125298Y140397D01*
X125250Y140344D01*
X125199Y140295D01*
X125145Y140248D01*
X125089Y140204D01*
X125030Y140163D01*
X124970Y140125D01*
X124907Y140090D01*
X124843Y140059D01*
X124777Y140031D01*
X124710Y140007D01*
X124642Y139986D01*
X124572Y139969D01*
X124502Y139956D01*
X124432Y139947D01*
X124360Y139941D01*
X124289Y139939D01*
X124289Y139940D02*
X122948Y139940D01*
X124557Y139940D02*
X125629Y137795D01*
X128371Y141549D02*
X129711Y142621D01*
X129711Y137795D01*
X128371Y137795D02*
X131052Y137795D01*
D10*
X203200Y325120D02*
X254000Y325120D01*
X254000Y317500D01*
X254000Y309880D01*
X203200Y309880D01*
X203200Y317500D01*
X203200Y325120D01*
X254000Y317500D02*
X256540Y317500D01*
X203200Y317500D02*
X200660Y317500D01*
D11*
X224548Y315595D02*
X224548Y320421D01*
X225889Y320421D01*
X225960Y320419D01*
X226032Y320413D01*
X226102Y320404D01*
X226172Y320391D01*
X226242Y320374D01*
X226310Y320353D01*
X226377Y320329D01*
X226443Y320301D01*
X226507Y320270D01*
X226570Y320235D01*
X226630Y320197D01*
X226689Y320156D01*
X226745Y320112D01*
X226799Y320065D01*
X226850Y320016D01*
X226898Y319963D01*
X226944Y319908D01*
X226986Y319851D01*
X227026Y319791D01*
X227062Y319730D01*
X227095Y319666D01*
X227124Y319601D01*
X227150Y319535D01*
X227173Y319467D01*
X227192Y319398D01*
X227207Y319328D01*
X227218Y319258D01*
X227226Y319187D01*
X227230Y319116D01*
X227230Y319044D01*
X227226Y318973D01*
X227218Y318902D01*
X227207Y318832D01*
X227192Y318762D01*
X227173Y318693D01*
X227150Y318625D01*
X227124Y318559D01*
X227095Y318494D01*
X227062Y318430D01*
X227026Y318369D01*
X226986Y318309D01*
X226944Y318252D01*
X226898Y318197D01*
X226850Y318144D01*
X226799Y318095D01*
X226745Y318048D01*
X226689Y318004D01*
X226630Y317963D01*
X226570Y317925D01*
X226507Y317890D01*
X226443Y317859D01*
X226377Y317831D01*
X226310Y317807D01*
X226242Y317786D01*
X226172Y317769D01*
X226102Y317756D01*
X226032Y317747D01*
X225960Y317741D01*
X225889Y317739D01*
X225889Y317740D02*
X224548Y317740D01*
X226157Y317740D02*
X227229Y315595D01*
X231445Y320421D02*
X231513Y320419D01*
X231580Y320413D01*
X231647Y320404D01*
X231714Y320391D01*
X231779Y320374D01*
X231844Y320353D01*
X231907Y320329D01*
X231969Y320301D01*
X232029Y320270D01*
X232087Y320236D01*
X232143Y320198D01*
X232198Y320158D01*
X232249Y320114D01*
X232298Y320067D01*
X232345Y320018D01*
X232389Y319967D01*
X232429Y319912D01*
X232467Y319856D01*
X232501Y319798D01*
X232532Y319738D01*
X232560Y319676D01*
X232584Y319613D01*
X232605Y319548D01*
X232622Y319483D01*
X232635Y319416D01*
X232644Y319349D01*
X232650Y319282D01*
X232652Y319214D01*
X231445Y320421D02*
X231367Y320419D01*
X231289Y320413D01*
X231212Y320403D01*
X231135Y320390D01*
X231059Y320372D01*
X230984Y320351D01*
X230910Y320326D01*
X230838Y320297D01*
X230767Y320265D01*
X230698Y320229D01*
X230630Y320190D01*
X230565Y320147D01*
X230502Y320101D01*
X230441Y320052D01*
X230383Y320000D01*
X230328Y319945D01*
X230275Y319888D01*
X230226Y319828D01*
X230179Y319765D01*
X230136Y319701D01*
X230096Y319634D01*
X230059Y319565D01*
X230026Y319494D01*
X229996Y319422D01*
X229970Y319349D01*
X232250Y318276D02*
X232299Y318325D01*
X232346Y318377D01*
X232389Y318432D01*
X232430Y318489D01*
X232468Y318548D01*
X232502Y318609D01*
X232533Y318672D01*
X232561Y318736D01*
X232585Y318802D01*
X232605Y318868D01*
X232622Y318936D01*
X232635Y319005D01*
X232644Y319074D01*
X232650Y319144D01*
X232652Y319214D01*
X232250Y318276D02*
X229971Y315595D01*
X232652Y315595D01*
D10*
X254000Y335280D02*
X203200Y335280D01*
X203200Y342900D01*
X203200Y350520D01*
X254000Y350520D01*
X254000Y342900D01*
X254000Y335280D01*
X203200Y342900D02*
X200660Y342900D01*
X254000Y342900D02*
X256540Y342900D01*
D11*
X224548Y344805D02*
X224548Y339979D01*
X224548Y344805D02*
X225889Y344805D01*
X225960Y344803D01*
X226032Y344797D01*
X226102Y344788D01*
X226172Y344775D01*
X226242Y344758D01*
X226310Y344737D01*
X226377Y344713D01*
X226443Y344685D01*
X226507Y344654D01*
X226570Y344619D01*
X226630Y344581D01*
X226689Y344540D01*
X226745Y344496D01*
X226799Y344449D01*
X226850Y344400D01*
X226898Y344347D01*
X226944Y344292D01*
X226986Y344235D01*
X227026Y344175D01*
X227062Y344114D01*
X227095Y344050D01*
X227124Y343985D01*
X227150Y343919D01*
X227173Y343851D01*
X227192Y343782D01*
X227207Y343712D01*
X227218Y343642D01*
X227226Y343571D01*
X227230Y343500D01*
X227230Y343428D01*
X227226Y343357D01*
X227218Y343286D01*
X227207Y343216D01*
X227192Y343146D01*
X227173Y343077D01*
X227150Y343009D01*
X227124Y342943D01*
X227095Y342878D01*
X227062Y342814D01*
X227026Y342753D01*
X226986Y342693D01*
X226944Y342636D01*
X226898Y342581D01*
X226850Y342528D01*
X226799Y342479D01*
X226745Y342432D01*
X226689Y342388D01*
X226630Y342347D01*
X226570Y342309D01*
X226507Y342274D01*
X226443Y342243D01*
X226377Y342215D01*
X226310Y342191D01*
X226242Y342170D01*
X226172Y342153D01*
X226102Y342140D01*
X226032Y342131D01*
X225960Y342125D01*
X225889Y342123D01*
X225889Y342124D02*
X224548Y342124D01*
X226157Y342124D02*
X227229Y339979D01*
X229971Y339979D02*
X231311Y339979D01*
X231382Y339981D01*
X231454Y339987D01*
X231524Y339996D01*
X231594Y340009D01*
X231664Y340026D01*
X231732Y340047D01*
X231799Y340071D01*
X231865Y340099D01*
X231929Y340130D01*
X231992Y340165D01*
X232052Y340203D01*
X232111Y340244D01*
X232167Y340288D01*
X232221Y340335D01*
X232272Y340384D01*
X232320Y340437D01*
X232366Y340492D01*
X232408Y340549D01*
X232448Y340609D01*
X232484Y340670D01*
X232517Y340734D01*
X232546Y340799D01*
X232572Y340865D01*
X232595Y340933D01*
X232614Y341002D01*
X232629Y341072D01*
X232640Y341142D01*
X232648Y341213D01*
X232652Y341284D01*
X232652Y341356D01*
X232648Y341427D01*
X232640Y341498D01*
X232629Y341568D01*
X232614Y341638D01*
X232595Y341707D01*
X232572Y341775D01*
X232546Y341841D01*
X232517Y341906D01*
X232484Y341970D01*
X232448Y342031D01*
X232408Y342091D01*
X232366Y342148D01*
X232320Y342203D01*
X232272Y342256D01*
X232221Y342305D01*
X232167Y342352D01*
X232111Y342396D01*
X232052Y342437D01*
X231992Y342475D01*
X231929Y342510D01*
X231865Y342541D01*
X231799Y342569D01*
X231732Y342593D01*
X231664Y342614D01*
X231594Y342631D01*
X231524Y342644D01*
X231454Y342653D01*
X231382Y342659D01*
X231311Y342661D01*
X231579Y344805D02*
X229971Y344805D01*
X231579Y344805D02*
X231644Y344803D01*
X231708Y344797D01*
X231772Y344787D01*
X231836Y344774D01*
X231898Y344756D01*
X231959Y344735D01*
X232019Y344711D01*
X232077Y344682D01*
X232134Y344650D01*
X232188Y344615D01*
X232240Y344577D01*
X232290Y344535D01*
X232337Y344491D01*
X232381Y344444D01*
X232423Y344394D01*
X232461Y344342D01*
X232496Y344288D01*
X232528Y344231D01*
X232557Y344173D01*
X232581Y344113D01*
X232602Y344052D01*
X232620Y343990D01*
X232633Y343926D01*
X232643Y343862D01*
X232649Y343798D01*
X232651Y343733D01*
X232649Y343668D01*
X232643Y343604D01*
X232633Y343540D01*
X232620Y343476D01*
X232602Y343414D01*
X232581Y343353D01*
X232557Y343293D01*
X232528Y343235D01*
X232496Y343178D01*
X232461Y343124D01*
X232423Y343072D01*
X232381Y343022D01*
X232337Y342975D01*
X232290Y342931D01*
X232240Y342889D01*
X232188Y342851D01*
X232134Y342816D01*
X232077Y342784D01*
X232019Y342755D01*
X231959Y342731D01*
X231898Y342710D01*
X231836Y342692D01*
X231772Y342679D01*
X231708Y342669D01*
X231644Y342663D01*
X231579Y342661D01*
X231579Y342660D02*
X230507Y342660D01*
D10*
X254000Y147320D02*
X203200Y147320D01*
X254000Y147320D02*
X254000Y139700D01*
X254000Y132080D01*
X203200Y132080D01*
X203200Y139700D01*
X203200Y147320D01*
X254000Y139700D02*
X256540Y139700D01*
X203200Y139700D02*
X200660Y139700D01*
D11*
X224548Y137795D02*
X224548Y142621D01*
X225889Y142621D01*
X225960Y142619D01*
X226032Y142613D01*
X226102Y142604D01*
X226172Y142591D01*
X226242Y142574D01*
X226310Y142553D01*
X226377Y142529D01*
X226443Y142501D01*
X226507Y142470D01*
X226570Y142435D01*
X226630Y142397D01*
X226689Y142356D01*
X226745Y142312D01*
X226799Y142265D01*
X226850Y142216D01*
X226898Y142163D01*
X226944Y142108D01*
X226986Y142051D01*
X227026Y141991D01*
X227062Y141930D01*
X227095Y141866D01*
X227124Y141801D01*
X227150Y141735D01*
X227173Y141667D01*
X227192Y141598D01*
X227207Y141528D01*
X227218Y141458D01*
X227226Y141387D01*
X227230Y141316D01*
X227230Y141244D01*
X227226Y141173D01*
X227218Y141102D01*
X227207Y141032D01*
X227192Y140962D01*
X227173Y140893D01*
X227150Y140825D01*
X227124Y140759D01*
X227095Y140694D01*
X227062Y140630D01*
X227026Y140569D01*
X226986Y140509D01*
X226944Y140452D01*
X226898Y140397D01*
X226850Y140344D01*
X226799Y140295D01*
X226745Y140248D01*
X226689Y140204D01*
X226630Y140163D01*
X226570Y140125D01*
X226507Y140090D01*
X226443Y140059D01*
X226377Y140031D01*
X226310Y140007D01*
X226242Y139986D01*
X226172Y139969D01*
X226102Y139956D01*
X226032Y139947D01*
X225960Y139941D01*
X225889Y139939D01*
X225889Y139940D02*
X224548Y139940D01*
X226157Y139940D02*
X227229Y137795D01*
X229971Y138867D02*
X231043Y142621D01*
X229971Y138867D02*
X232652Y138867D01*
X231848Y139940D02*
X231848Y137795D01*
D10*
X254000Y274320D02*
X203200Y274320D01*
X254000Y274320D02*
X254000Y266700D01*
X254000Y259080D01*
X203200Y259080D01*
X203200Y266700D01*
X203200Y274320D01*
X254000Y266700D02*
X256540Y266700D01*
X203200Y266700D02*
X200660Y266700D01*
D11*
X224548Y264795D02*
X224548Y269621D01*
X225889Y269621D01*
X225960Y269619D01*
X226032Y269613D01*
X226102Y269604D01*
X226172Y269591D01*
X226242Y269574D01*
X226310Y269553D01*
X226377Y269529D01*
X226443Y269501D01*
X226507Y269470D01*
X226570Y269435D01*
X226630Y269397D01*
X226689Y269356D01*
X226745Y269312D01*
X226799Y269265D01*
X226850Y269216D01*
X226898Y269163D01*
X226944Y269108D01*
X226986Y269051D01*
X227026Y268991D01*
X227062Y268930D01*
X227095Y268866D01*
X227124Y268801D01*
X227150Y268735D01*
X227173Y268667D01*
X227192Y268598D01*
X227207Y268528D01*
X227218Y268458D01*
X227226Y268387D01*
X227230Y268316D01*
X227230Y268244D01*
X227226Y268173D01*
X227218Y268102D01*
X227207Y268032D01*
X227192Y267962D01*
X227173Y267893D01*
X227150Y267825D01*
X227124Y267759D01*
X227095Y267694D01*
X227062Y267630D01*
X227026Y267569D01*
X226986Y267509D01*
X226944Y267452D01*
X226898Y267397D01*
X226850Y267344D01*
X226799Y267295D01*
X226745Y267248D01*
X226689Y267204D01*
X226630Y267163D01*
X226570Y267125D01*
X226507Y267090D01*
X226443Y267059D01*
X226377Y267031D01*
X226310Y267007D01*
X226242Y266986D01*
X226172Y266969D01*
X226102Y266956D01*
X226032Y266947D01*
X225960Y266941D01*
X225889Y266939D01*
X225889Y266940D02*
X224548Y266940D01*
X226157Y266940D02*
X227229Y264795D01*
X229971Y264795D02*
X231579Y264795D01*
X231644Y264797D01*
X231708Y264803D01*
X231772Y264813D01*
X231836Y264826D01*
X231898Y264844D01*
X231959Y264865D01*
X232019Y264889D01*
X232077Y264918D01*
X232134Y264950D01*
X232188Y264985D01*
X232240Y265023D01*
X232290Y265065D01*
X232337Y265109D01*
X232381Y265156D01*
X232423Y265206D01*
X232461Y265258D01*
X232496Y265312D01*
X232528Y265369D01*
X232557Y265427D01*
X232581Y265487D01*
X232602Y265548D01*
X232620Y265610D01*
X232633Y265674D01*
X232643Y265738D01*
X232649Y265802D01*
X232651Y265867D01*
X232652Y265867D02*
X232652Y266404D01*
X232651Y266404D02*
X232649Y266469D01*
X232643Y266533D01*
X232633Y266597D01*
X232620Y266661D01*
X232602Y266723D01*
X232581Y266784D01*
X232557Y266844D01*
X232528Y266902D01*
X232496Y266959D01*
X232461Y267013D01*
X232423Y267065D01*
X232381Y267115D01*
X232337Y267162D01*
X232290Y267206D01*
X232240Y267248D01*
X232188Y267286D01*
X232134Y267321D01*
X232077Y267353D01*
X232019Y267382D01*
X231959Y267406D01*
X231898Y267427D01*
X231836Y267445D01*
X231772Y267458D01*
X231708Y267468D01*
X231644Y267474D01*
X231579Y267476D01*
X229971Y267476D01*
X229971Y269621D01*
X232652Y269621D01*
D10*
X254000Y284480D02*
X203200Y284480D01*
X203200Y292100D01*
X203200Y299720D01*
X254000Y299720D01*
X254000Y292100D01*
X254000Y284480D01*
X203200Y292100D02*
X200660Y292100D01*
X254000Y292100D02*
X256540Y292100D01*
D11*
X224548Y294005D02*
X224548Y289179D01*
X224548Y294005D02*
X225889Y294005D01*
X225960Y294003D01*
X226032Y293997D01*
X226102Y293988D01*
X226172Y293975D01*
X226242Y293958D01*
X226310Y293937D01*
X226377Y293913D01*
X226443Y293885D01*
X226507Y293854D01*
X226570Y293819D01*
X226630Y293781D01*
X226689Y293740D01*
X226745Y293696D01*
X226799Y293649D01*
X226850Y293600D01*
X226898Y293547D01*
X226944Y293492D01*
X226986Y293435D01*
X227026Y293375D01*
X227062Y293314D01*
X227095Y293250D01*
X227124Y293185D01*
X227150Y293119D01*
X227173Y293051D01*
X227192Y292982D01*
X227207Y292912D01*
X227218Y292842D01*
X227226Y292771D01*
X227230Y292700D01*
X227230Y292628D01*
X227226Y292557D01*
X227218Y292486D01*
X227207Y292416D01*
X227192Y292346D01*
X227173Y292277D01*
X227150Y292209D01*
X227124Y292143D01*
X227095Y292078D01*
X227062Y292014D01*
X227026Y291953D01*
X226986Y291893D01*
X226944Y291836D01*
X226898Y291781D01*
X226850Y291728D01*
X226799Y291679D01*
X226745Y291632D01*
X226689Y291588D01*
X226630Y291547D01*
X226570Y291509D01*
X226507Y291474D01*
X226443Y291443D01*
X226377Y291415D01*
X226310Y291391D01*
X226242Y291370D01*
X226172Y291353D01*
X226102Y291340D01*
X226032Y291331D01*
X225960Y291325D01*
X225889Y291323D01*
X225889Y291324D02*
X224548Y291324D01*
X226157Y291324D02*
X227229Y289179D01*
X229971Y291860D02*
X231579Y291860D01*
X231644Y291858D01*
X231708Y291852D01*
X231772Y291842D01*
X231836Y291829D01*
X231898Y291811D01*
X231959Y291790D01*
X232019Y291766D01*
X232077Y291737D01*
X232134Y291705D01*
X232188Y291670D01*
X232240Y291632D01*
X232290Y291590D01*
X232337Y291546D01*
X232381Y291499D01*
X232423Y291449D01*
X232461Y291397D01*
X232496Y291343D01*
X232528Y291286D01*
X232557Y291228D01*
X232581Y291168D01*
X232602Y291107D01*
X232620Y291045D01*
X232633Y290981D01*
X232643Y290917D01*
X232649Y290853D01*
X232651Y290788D01*
X232652Y290788D02*
X232652Y290520D01*
X232650Y290449D01*
X232644Y290377D01*
X232635Y290307D01*
X232622Y290237D01*
X232605Y290167D01*
X232584Y290099D01*
X232560Y290032D01*
X232532Y289966D01*
X232501Y289902D01*
X232466Y289839D01*
X232428Y289779D01*
X232387Y289720D01*
X232343Y289664D01*
X232296Y289610D01*
X232247Y289559D01*
X232194Y289511D01*
X232139Y289465D01*
X232082Y289423D01*
X232022Y289383D01*
X231961Y289347D01*
X231897Y289314D01*
X231832Y289285D01*
X231766Y289259D01*
X231698Y289236D01*
X231629Y289217D01*
X231559Y289202D01*
X231489Y289191D01*
X231418Y289183D01*
X231347Y289179D01*
X231275Y289179D01*
X231204Y289183D01*
X231133Y289191D01*
X231063Y289202D01*
X230993Y289217D01*
X230924Y289236D01*
X230856Y289259D01*
X230790Y289285D01*
X230725Y289314D01*
X230661Y289347D01*
X230600Y289383D01*
X230540Y289423D01*
X230483Y289465D01*
X230428Y289511D01*
X230375Y289559D01*
X230326Y289610D01*
X230279Y289664D01*
X230235Y289720D01*
X230194Y289779D01*
X230156Y289839D01*
X230121Y289902D01*
X230090Y289966D01*
X230062Y290032D01*
X230038Y290099D01*
X230017Y290167D01*
X230000Y290237D01*
X229987Y290307D01*
X229978Y290377D01*
X229972Y290449D01*
X229970Y290520D01*
X229971Y290520D02*
X229971Y291860D01*
X229973Y291951D01*
X229979Y292042D01*
X229988Y292132D01*
X230002Y292223D01*
X230019Y292312D01*
X230040Y292400D01*
X230065Y292488D01*
X230094Y292575D01*
X230126Y292660D01*
X230161Y292744D01*
X230201Y292826D01*
X230243Y292906D01*
X230289Y292985D01*
X230339Y293061D01*
X230391Y293135D01*
X230447Y293208D01*
X230506Y293277D01*
X230567Y293344D01*
X230632Y293409D01*
X230699Y293470D01*
X230768Y293529D01*
X230840Y293585D01*
X230915Y293637D01*
X230991Y293687D01*
X231070Y293733D01*
X231150Y293775D01*
X231232Y293815D01*
X231316Y293850D01*
X231401Y293882D01*
X231488Y293911D01*
X231575Y293936D01*
X231664Y293957D01*
X231753Y293974D01*
X231844Y293988D01*
X231934Y293997D01*
X232025Y294003D01*
X232116Y294005D01*
D10*
X304800Y147320D02*
X355600Y147320D01*
X355600Y139700D01*
X355600Y132080D01*
X304800Y132080D01*
X304800Y139700D01*
X304800Y147320D01*
X355600Y139700D02*
X358140Y139700D01*
X304800Y139700D02*
X302260Y139700D01*
D11*
X326148Y137795D02*
X326148Y142621D01*
X327489Y142621D01*
X327560Y142619D01*
X327632Y142613D01*
X327702Y142604D01*
X327772Y142591D01*
X327842Y142574D01*
X327910Y142553D01*
X327977Y142529D01*
X328043Y142501D01*
X328107Y142470D01*
X328170Y142435D01*
X328230Y142397D01*
X328289Y142356D01*
X328345Y142312D01*
X328399Y142265D01*
X328450Y142216D01*
X328498Y142163D01*
X328544Y142108D01*
X328586Y142051D01*
X328626Y141991D01*
X328662Y141930D01*
X328695Y141866D01*
X328724Y141801D01*
X328750Y141735D01*
X328773Y141667D01*
X328792Y141598D01*
X328807Y141528D01*
X328818Y141458D01*
X328826Y141387D01*
X328830Y141316D01*
X328830Y141244D01*
X328826Y141173D01*
X328818Y141102D01*
X328807Y141032D01*
X328792Y140962D01*
X328773Y140893D01*
X328750Y140825D01*
X328724Y140759D01*
X328695Y140694D01*
X328662Y140630D01*
X328626Y140569D01*
X328586Y140509D01*
X328544Y140452D01*
X328498Y140397D01*
X328450Y140344D01*
X328399Y140295D01*
X328345Y140248D01*
X328289Y140204D01*
X328230Y140163D01*
X328170Y140125D01*
X328107Y140090D01*
X328043Y140059D01*
X327977Y140031D01*
X327910Y140007D01*
X327842Y139986D01*
X327772Y139969D01*
X327702Y139956D01*
X327632Y139947D01*
X327560Y139941D01*
X327489Y139939D01*
X327489Y139940D02*
X326148Y139940D01*
X327757Y139940D02*
X328829Y137795D01*
X331571Y142085D02*
X331571Y142621D01*
X334252Y142621D01*
X332911Y137795D01*
D10*
X254000Y223520D02*
X203200Y223520D01*
X254000Y223520D02*
X254000Y215900D01*
X254000Y208280D01*
X203200Y208280D01*
X203200Y215900D01*
X203200Y223520D01*
X254000Y215900D02*
X256540Y215900D01*
X203200Y215900D02*
X200660Y215900D01*
D11*
X224548Y213995D02*
X224548Y218821D01*
X225889Y218821D01*
X225960Y218819D01*
X226032Y218813D01*
X226102Y218804D01*
X226172Y218791D01*
X226242Y218774D01*
X226310Y218753D01*
X226377Y218729D01*
X226443Y218701D01*
X226507Y218670D01*
X226570Y218635D01*
X226630Y218597D01*
X226689Y218556D01*
X226745Y218512D01*
X226799Y218465D01*
X226850Y218416D01*
X226898Y218363D01*
X226944Y218308D01*
X226986Y218251D01*
X227026Y218191D01*
X227062Y218130D01*
X227095Y218066D01*
X227124Y218001D01*
X227150Y217935D01*
X227173Y217867D01*
X227192Y217798D01*
X227207Y217728D01*
X227218Y217658D01*
X227226Y217587D01*
X227230Y217516D01*
X227230Y217444D01*
X227226Y217373D01*
X227218Y217302D01*
X227207Y217232D01*
X227192Y217162D01*
X227173Y217093D01*
X227150Y217025D01*
X227124Y216959D01*
X227095Y216894D01*
X227062Y216830D01*
X227026Y216769D01*
X226986Y216709D01*
X226944Y216652D01*
X226898Y216597D01*
X226850Y216544D01*
X226799Y216495D01*
X226745Y216448D01*
X226689Y216404D01*
X226630Y216363D01*
X226570Y216325D01*
X226507Y216290D01*
X226443Y216259D01*
X226377Y216231D01*
X226310Y216207D01*
X226242Y216186D01*
X226172Y216169D01*
X226102Y216156D01*
X226032Y216147D01*
X225960Y216141D01*
X225889Y216139D01*
X225889Y216140D02*
X224548Y216140D01*
X226157Y216140D02*
X227229Y213995D01*
X229970Y215336D02*
X229972Y215407D01*
X229978Y215479D01*
X229987Y215549D01*
X230000Y215619D01*
X230017Y215689D01*
X230038Y215757D01*
X230062Y215824D01*
X230090Y215890D01*
X230121Y215954D01*
X230156Y216017D01*
X230194Y216077D01*
X230235Y216136D01*
X230279Y216192D01*
X230326Y216246D01*
X230375Y216297D01*
X230428Y216345D01*
X230483Y216391D01*
X230540Y216433D01*
X230600Y216473D01*
X230661Y216509D01*
X230725Y216542D01*
X230790Y216571D01*
X230856Y216597D01*
X230924Y216620D01*
X230993Y216639D01*
X231063Y216654D01*
X231133Y216665D01*
X231204Y216673D01*
X231275Y216677D01*
X231347Y216677D01*
X231418Y216673D01*
X231489Y216665D01*
X231559Y216654D01*
X231629Y216639D01*
X231698Y216620D01*
X231766Y216597D01*
X231832Y216571D01*
X231897Y216542D01*
X231961Y216509D01*
X232022Y216473D01*
X232082Y216433D01*
X232139Y216391D01*
X232194Y216345D01*
X232247Y216297D01*
X232296Y216246D01*
X232343Y216192D01*
X232387Y216136D01*
X232428Y216077D01*
X232466Y216017D01*
X232501Y215954D01*
X232532Y215890D01*
X232560Y215824D01*
X232584Y215757D01*
X232605Y215689D01*
X232622Y215619D01*
X232635Y215549D01*
X232644Y215479D01*
X232650Y215407D01*
X232652Y215336D01*
X232650Y215265D01*
X232644Y215193D01*
X232635Y215123D01*
X232622Y215053D01*
X232605Y214983D01*
X232584Y214915D01*
X232560Y214848D01*
X232532Y214782D01*
X232501Y214718D01*
X232466Y214655D01*
X232428Y214595D01*
X232387Y214536D01*
X232343Y214480D01*
X232296Y214426D01*
X232247Y214375D01*
X232194Y214327D01*
X232139Y214281D01*
X232082Y214239D01*
X232022Y214199D01*
X231961Y214163D01*
X231897Y214130D01*
X231832Y214101D01*
X231766Y214075D01*
X231698Y214052D01*
X231629Y214033D01*
X231559Y214018D01*
X231489Y214007D01*
X231418Y213999D01*
X231347Y213995D01*
X231275Y213995D01*
X231204Y213999D01*
X231133Y214007D01*
X231063Y214018D01*
X230993Y214033D01*
X230924Y214052D01*
X230856Y214075D01*
X230790Y214101D01*
X230725Y214130D01*
X230661Y214163D01*
X230600Y214199D01*
X230540Y214239D01*
X230483Y214281D01*
X230428Y214327D01*
X230375Y214375D01*
X230326Y214426D01*
X230279Y214480D01*
X230235Y214536D01*
X230194Y214595D01*
X230156Y214655D01*
X230121Y214718D01*
X230090Y214782D01*
X230062Y214848D01*
X230038Y214915D01*
X230017Y214983D01*
X230000Y215053D01*
X229987Y215123D01*
X229978Y215193D01*
X229972Y215265D01*
X229970Y215336D01*
X230239Y217749D02*
X230241Y217814D01*
X230247Y217878D01*
X230257Y217942D01*
X230270Y218006D01*
X230288Y218068D01*
X230309Y218129D01*
X230333Y218189D01*
X230362Y218247D01*
X230394Y218304D01*
X230429Y218358D01*
X230467Y218410D01*
X230509Y218460D01*
X230553Y218507D01*
X230600Y218551D01*
X230650Y218593D01*
X230702Y218631D01*
X230756Y218666D01*
X230813Y218698D01*
X230871Y218727D01*
X230931Y218751D01*
X230992Y218772D01*
X231054Y218790D01*
X231118Y218803D01*
X231182Y218813D01*
X231246Y218819D01*
X231311Y218821D01*
X231376Y218819D01*
X231440Y218813D01*
X231504Y218803D01*
X231568Y218790D01*
X231630Y218772D01*
X231691Y218751D01*
X231751Y218727D01*
X231809Y218698D01*
X231866Y218666D01*
X231920Y218631D01*
X231972Y218593D01*
X232022Y218551D01*
X232069Y218507D01*
X232113Y218460D01*
X232155Y218410D01*
X232193Y218358D01*
X232228Y218304D01*
X232260Y218247D01*
X232289Y218189D01*
X232313Y218129D01*
X232334Y218068D01*
X232352Y218006D01*
X232365Y217942D01*
X232375Y217878D01*
X232381Y217814D01*
X232383Y217749D01*
X232381Y217684D01*
X232375Y217620D01*
X232365Y217556D01*
X232352Y217492D01*
X232334Y217430D01*
X232313Y217369D01*
X232289Y217309D01*
X232260Y217251D01*
X232228Y217194D01*
X232193Y217140D01*
X232155Y217088D01*
X232113Y217038D01*
X232069Y216991D01*
X232022Y216947D01*
X231972Y216905D01*
X231920Y216867D01*
X231866Y216832D01*
X231809Y216800D01*
X231751Y216771D01*
X231691Y216747D01*
X231630Y216726D01*
X231568Y216708D01*
X231504Y216695D01*
X231440Y216685D01*
X231376Y216679D01*
X231311Y216677D01*
X231246Y216679D01*
X231182Y216685D01*
X231118Y216695D01*
X231054Y216708D01*
X230992Y216726D01*
X230931Y216747D01*
X230871Y216771D01*
X230813Y216800D01*
X230756Y216832D01*
X230702Y216867D01*
X230650Y216905D01*
X230600Y216947D01*
X230553Y216991D01*
X230509Y217038D01*
X230467Y217088D01*
X230429Y217140D01*
X230394Y217194D01*
X230362Y217251D01*
X230333Y217309D01*
X230309Y217369D01*
X230288Y217430D01*
X230270Y217492D01*
X230257Y217556D01*
X230247Y217620D01*
X230241Y217684D01*
X230239Y217749D01*
D10*
X254000Y233680D02*
X203200Y233680D01*
X203200Y241300D01*
X203200Y248920D01*
X254000Y248920D01*
X254000Y241300D01*
X254000Y233680D01*
X203200Y241300D02*
X200660Y241300D01*
X254000Y241300D02*
X256540Y241300D01*
D11*
X224548Y243205D02*
X224548Y238379D01*
X224548Y243205D02*
X225889Y243205D01*
X225960Y243203D01*
X226032Y243197D01*
X226102Y243188D01*
X226172Y243175D01*
X226242Y243158D01*
X226310Y243137D01*
X226377Y243113D01*
X226443Y243085D01*
X226507Y243054D01*
X226570Y243019D01*
X226630Y242981D01*
X226689Y242940D01*
X226745Y242896D01*
X226799Y242849D01*
X226850Y242800D01*
X226898Y242747D01*
X226944Y242692D01*
X226986Y242635D01*
X227026Y242575D01*
X227062Y242514D01*
X227095Y242450D01*
X227124Y242385D01*
X227150Y242319D01*
X227173Y242251D01*
X227192Y242182D01*
X227207Y242112D01*
X227218Y242042D01*
X227226Y241971D01*
X227230Y241900D01*
X227230Y241828D01*
X227226Y241757D01*
X227218Y241686D01*
X227207Y241616D01*
X227192Y241546D01*
X227173Y241477D01*
X227150Y241409D01*
X227124Y241343D01*
X227095Y241278D01*
X227062Y241214D01*
X227026Y241153D01*
X226986Y241093D01*
X226944Y241036D01*
X226898Y240981D01*
X226850Y240928D01*
X226799Y240879D01*
X226745Y240832D01*
X226689Y240788D01*
X226630Y240747D01*
X226570Y240709D01*
X226507Y240674D01*
X226443Y240643D01*
X226377Y240615D01*
X226310Y240591D01*
X226242Y240570D01*
X226172Y240553D01*
X226102Y240540D01*
X226032Y240531D01*
X225960Y240525D01*
X225889Y240523D01*
X225889Y240524D02*
X224548Y240524D01*
X226157Y240524D02*
X227229Y238379D01*
X231043Y240524D02*
X232652Y240524D01*
X231043Y240524D02*
X230978Y240526D01*
X230914Y240532D01*
X230850Y240542D01*
X230786Y240555D01*
X230724Y240573D01*
X230663Y240594D01*
X230603Y240618D01*
X230545Y240647D01*
X230488Y240679D01*
X230434Y240714D01*
X230382Y240752D01*
X230332Y240794D01*
X230285Y240838D01*
X230241Y240885D01*
X230199Y240935D01*
X230161Y240987D01*
X230126Y241041D01*
X230094Y241098D01*
X230065Y241156D01*
X230041Y241216D01*
X230020Y241277D01*
X230002Y241339D01*
X229989Y241403D01*
X229979Y241467D01*
X229973Y241531D01*
X229971Y241596D01*
X229971Y241864D01*
X229970Y241864D02*
X229972Y241935D01*
X229978Y242007D01*
X229987Y242077D01*
X230000Y242147D01*
X230017Y242217D01*
X230038Y242285D01*
X230062Y242352D01*
X230090Y242418D01*
X230121Y242482D01*
X230156Y242545D01*
X230194Y242605D01*
X230235Y242664D01*
X230279Y242720D01*
X230326Y242774D01*
X230375Y242825D01*
X230428Y242873D01*
X230483Y242919D01*
X230540Y242961D01*
X230600Y243001D01*
X230661Y243037D01*
X230725Y243070D01*
X230790Y243099D01*
X230856Y243125D01*
X230924Y243148D01*
X230993Y243167D01*
X231063Y243182D01*
X231133Y243193D01*
X231204Y243201D01*
X231275Y243205D01*
X231347Y243205D01*
X231418Y243201D01*
X231489Y243193D01*
X231559Y243182D01*
X231629Y243167D01*
X231698Y243148D01*
X231766Y243125D01*
X231832Y243099D01*
X231897Y243070D01*
X231961Y243037D01*
X232022Y243001D01*
X232082Y242961D01*
X232139Y242919D01*
X232194Y242873D01*
X232247Y242825D01*
X232296Y242774D01*
X232343Y242720D01*
X232387Y242664D01*
X232428Y242605D01*
X232466Y242545D01*
X232501Y242482D01*
X232532Y242418D01*
X232560Y242352D01*
X232584Y242285D01*
X232605Y242217D01*
X232622Y242147D01*
X232635Y242077D01*
X232644Y242007D01*
X232650Y241935D01*
X232652Y241864D01*
X232652Y240524D01*
X232650Y240433D01*
X232644Y240342D01*
X232635Y240252D01*
X232621Y240161D01*
X232604Y240072D01*
X232583Y239984D01*
X232558Y239896D01*
X232529Y239809D01*
X232497Y239724D01*
X232462Y239640D01*
X232422Y239558D01*
X232380Y239478D01*
X232334Y239399D01*
X232284Y239323D01*
X232232Y239249D01*
X232176Y239176D01*
X232117Y239107D01*
X232056Y239040D01*
X231991Y238975D01*
X231924Y238914D01*
X231855Y238855D01*
X231782Y238799D01*
X231708Y238747D01*
X231632Y238697D01*
X231553Y238651D01*
X231473Y238609D01*
X231391Y238569D01*
X231307Y238534D01*
X231222Y238502D01*
X231135Y238473D01*
X231047Y238448D01*
X230959Y238427D01*
X230870Y238410D01*
X230779Y238396D01*
X230689Y238387D01*
X230598Y238381D01*
X230507Y238379D01*
X180200Y209400D02*
X104000Y209400D01*
X180200Y209400D02*
X351650Y209400D01*
X351650Y352275D01*
X180200Y352275D01*
X104000Y352275D01*
X104000Y209400D01*
X180200Y209400D02*
X180200Y352275D01*
D10*
X153784Y233502D02*
X153784Y223116D01*
X130416Y223116D01*
X130416Y233502D01*
X140802Y230905D02*
X140802Y223116D01*
X153784Y247584D02*
X153782Y247727D01*
X153776Y247870D01*
X153766Y248013D01*
X153752Y248155D01*
X153735Y248297D01*
X153713Y248439D01*
X153688Y248580D01*
X153658Y248720D01*
X153625Y248859D01*
X153588Y248997D01*
X153547Y249134D01*
X153503Y249270D01*
X153454Y249405D01*
X153402Y249538D01*
X153347Y249670D01*
X153287Y249800D01*
X153224Y249929D01*
X153158Y250056D01*
X153088Y250181D01*
X153015Y250303D01*
X152938Y250424D01*
X152858Y250543D01*
X152775Y250659D01*
X152689Y250774D01*
X152600Y250885D01*
X152507Y250995D01*
X152412Y251101D01*
X152313Y251205D01*
X152212Y251306D01*
X152108Y251405D01*
X152002Y251500D01*
X151892Y251593D01*
X151781Y251682D01*
X151666Y251768D01*
X151550Y251851D01*
X151431Y251931D01*
X151310Y252008D01*
X151188Y252081D01*
X151063Y252151D01*
X150936Y252217D01*
X150807Y252280D01*
X150677Y252340D01*
X150545Y252395D01*
X150412Y252447D01*
X150277Y252496D01*
X150141Y252540D01*
X150004Y252581D01*
X149866Y252618D01*
X149727Y252651D01*
X149587Y252681D01*
X149446Y252706D01*
X149304Y252728D01*
X149162Y252745D01*
X149020Y252759D01*
X148877Y252769D01*
X148734Y252775D01*
X148591Y252777D01*
X153784Y247584D02*
X153781Y247322D01*
X153771Y247059D01*
X153756Y246797D01*
X153734Y246536D01*
X153706Y246275D01*
X153671Y246015D01*
X153630Y245755D01*
X153584Y245497D01*
X153531Y245240D01*
X153471Y244984D01*
X153406Y244730D01*
X153335Y244477D01*
X153258Y244227D01*
X153174Y243978D01*
X153085Y243731D01*
X152990Y243486D01*
X152889Y243244D01*
X152782Y243004D01*
X152670Y242767D01*
X152552Y242533D01*
X152428Y242301D01*
X152299Y242073D01*
X152164Y241847D01*
X152024Y241625D01*
X151879Y241406D01*
X151729Y241191D01*
X151573Y240980D01*
X151413Y240772D01*
X151247Y240568D01*
X151077Y240369D01*
X150902Y240173D01*
X150723Y239982D01*
X150538Y239795D01*
X135609Y240444D02*
X135466Y240446D01*
X135323Y240452D01*
X135180Y240462D01*
X135038Y240476D01*
X134896Y240493D01*
X134754Y240515D01*
X134613Y240540D01*
X134473Y240570D01*
X134334Y240603D01*
X134196Y240640D01*
X134059Y240681D01*
X133923Y240725D01*
X133788Y240774D01*
X133655Y240826D01*
X133523Y240881D01*
X133393Y240941D01*
X133264Y241004D01*
X133137Y241070D01*
X133012Y241140D01*
X132890Y241213D01*
X132769Y241290D01*
X132650Y241370D01*
X132534Y241453D01*
X132419Y241539D01*
X132308Y241628D01*
X132198Y241721D01*
X132092Y241816D01*
X131988Y241915D01*
X131887Y242016D01*
X131788Y242120D01*
X131693Y242226D01*
X131600Y242336D01*
X131511Y242447D01*
X131425Y242562D01*
X131342Y242678D01*
X131262Y242797D01*
X131185Y242918D01*
X131112Y243041D01*
X131042Y243165D01*
X130976Y243292D01*
X130913Y243421D01*
X130853Y243551D01*
X130798Y243683D01*
X130746Y243816D01*
X130697Y243951D01*
X130653Y244087D01*
X130612Y244224D01*
X130575Y244362D01*
X130542Y244501D01*
X130512Y244641D01*
X130487Y244782D01*
X130465Y244924D01*
X130448Y245066D01*
X130434Y245208D01*
X130424Y245351D01*
X130418Y245494D01*
X130416Y245637D01*
X130419Y245869D01*
X130427Y246101D01*
X130441Y246333D01*
X130460Y246564D01*
X130485Y246795D01*
X130515Y247025D01*
X130551Y247254D01*
X130592Y247482D01*
X130639Y247710D01*
X130691Y247936D01*
X130749Y248161D01*
X130812Y248384D01*
X130880Y248606D01*
X130953Y248826D01*
X131032Y249044D01*
X131115Y249261D01*
X131204Y249475D01*
X131298Y249687D01*
X131397Y249897D01*
X131501Y250105D01*
X131610Y250309D01*
X131724Y250512D01*
X131843Y250711D01*
X131966Y250908D01*
X132094Y251101D01*
X132226Y251292D01*
X132363Y251479D01*
X140153Y243040D02*
X140078Y242917D01*
X140000Y242796D01*
X139918Y242677D01*
X139834Y242561D01*
X139746Y242447D01*
X139655Y242335D01*
X139561Y242226D01*
X139464Y242119D01*
X139364Y242015D01*
X139262Y241914D01*
X139156Y241815D01*
X139048Y241720D01*
X138938Y241627D01*
X138825Y241538D01*
X138710Y241452D01*
X138592Y241369D01*
X138472Y241289D01*
X138350Y241212D01*
X138226Y241139D01*
X138100Y241069D01*
X137972Y241003D01*
X137842Y240940D01*
X137711Y240881D01*
X137578Y240825D01*
X137443Y240773D01*
X137307Y240725D01*
X137170Y240680D01*
X137032Y240640D01*
X136893Y240603D01*
X136753Y240569D01*
X136612Y240540D01*
X136470Y240515D01*
X136327Y240493D01*
X136184Y240475D01*
X136041Y240462D01*
X135897Y240452D01*
X135753Y240446D01*
X135609Y240444D01*
X144047Y250181D02*
X144122Y250304D01*
X144200Y250425D01*
X144282Y250544D01*
X144366Y250660D01*
X144454Y250774D01*
X144545Y250886D01*
X144639Y250996D01*
X144736Y251102D01*
X144836Y251206D01*
X144938Y251307D01*
X145044Y251406D01*
X145152Y251501D01*
X145262Y251594D01*
X145375Y251683D01*
X145491Y251769D01*
X145608Y251852D01*
X145728Y251932D01*
X145850Y252009D01*
X145974Y252082D01*
X146100Y252152D01*
X146228Y252218D01*
X146358Y252281D01*
X146489Y252340D01*
X146622Y252396D01*
X146757Y252448D01*
X146893Y252496D01*
X147030Y252541D01*
X147168Y252581D01*
X147307Y252618D01*
X147447Y252652D01*
X147588Y252681D01*
X147730Y252706D01*
X147873Y252728D01*
X148016Y252746D01*
X148159Y252759D01*
X148303Y252769D01*
X148447Y252775D01*
X148591Y252777D01*
X144047Y250180D02*
X140153Y243040D01*
X130416Y260821D02*
X153784Y260821D01*
X130416Y260821D02*
X130416Y267312D01*
X130418Y267471D01*
X130424Y267630D01*
X130434Y267790D01*
X130447Y267948D01*
X130465Y268107D01*
X130486Y268264D01*
X130512Y268422D01*
X130541Y268578D01*
X130574Y268734D01*
X130611Y268889D01*
X130651Y269043D01*
X130696Y269196D01*
X130744Y269348D01*
X130795Y269499D01*
X130851Y269648D01*
X130910Y269796D01*
X130973Y269942D01*
X131039Y270087D01*
X131109Y270230D01*
X131182Y270372D01*
X131259Y270511D01*
X131339Y270649D01*
X131423Y270785D01*
X131510Y270918D01*
X131600Y271050D01*
X131693Y271179D01*
X131790Y271305D01*
X131889Y271430D01*
X131992Y271552D01*
X132097Y271671D01*
X132206Y271788D01*
X132317Y271902D01*
X132431Y272013D01*
X132548Y272122D01*
X132667Y272227D01*
X132789Y272330D01*
X132914Y272429D01*
X133040Y272526D01*
X133169Y272619D01*
X133301Y272709D01*
X133434Y272796D01*
X133570Y272880D01*
X133708Y272960D01*
X133847Y273037D01*
X133989Y273110D01*
X134132Y273180D01*
X134277Y273246D01*
X134423Y273309D01*
X134571Y273368D01*
X134720Y273424D01*
X134871Y273475D01*
X135023Y273523D01*
X135176Y273568D01*
X135330Y273608D01*
X135485Y273645D01*
X135641Y273678D01*
X135797Y273707D01*
X135955Y273733D01*
X136112Y273754D01*
X136271Y273772D01*
X136429Y273785D01*
X136589Y273795D01*
X136748Y273801D01*
X136907Y273803D01*
X137066Y273801D01*
X137225Y273795D01*
X137385Y273785D01*
X137543Y273772D01*
X137702Y273754D01*
X137859Y273733D01*
X138017Y273707D01*
X138173Y273678D01*
X138329Y273645D01*
X138484Y273608D01*
X138638Y273568D01*
X138791Y273523D01*
X138943Y273475D01*
X139094Y273424D01*
X139243Y273368D01*
X139391Y273309D01*
X139537Y273246D01*
X139682Y273180D01*
X139825Y273110D01*
X139967Y273037D01*
X140106Y272960D01*
X140244Y272880D01*
X140380Y272796D01*
X140513Y272709D01*
X140645Y272619D01*
X140774Y272526D01*
X140900Y272429D01*
X141025Y272330D01*
X141147Y272227D01*
X141266Y272122D01*
X141383Y272013D01*
X141497Y271902D01*
X141608Y271788D01*
X141717Y271671D01*
X141822Y271552D01*
X141925Y271430D01*
X142024Y271305D01*
X142121Y271179D01*
X142214Y271050D01*
X142304Y270918D01*
X142391Y270785D01*
X142475Y270649D01*
X142555Y270511D01*
X142632Y270372D01*
X142705Y270230D01*
X142775Y270087D01*
X142841Y269942D01*
X142904Y269796D01*
X142963Y269648D01*
X143019Y269499D01*
X143070Y269348D01*
X143118Y269196D01*
X143163Y269043D01*
X143203Y268889D01*
X143240Y268734D01*
X143273Y268578D01*
X143302Y268422D01*
X143328Y268264D01*
X143349Y268107D01*
X143367Y267948D01*
X143380Y267790D01*
X143390Y267630D01*
X143396Y267471D01*
X143398Y267312D01*
X143398Y260821D01*
X144696Y280950D02*
X144696Y296529D01*
X142100Y304519D02*
X141640Y304524D01*
X141181Y304541D01*
X140722Y304568D01*
X140264Y304607D01*
X139807Y304656D01*
X139351Y304716D01*
X138897Y304787D01*
X138444Y304869D01*
X137994Y304962D01*
X137546Y305065D01*
X137101Y305179D01*
X136658Y305304D01*
X136219Y305439D01*
X135783Y305585D01*
X135351Y305741D01*
X134922Y305907D01*
X134497Y306083D01*
X134077Y306270D01*
X133662Y306466D01*
X133661Y306467D02*
X133534Y306512D01*
X133408Y306562D01*
X133283Y306614D01*
X133160Y306671D01*
X133038Y306731D01*
X132919Y306794D01*
X132801Y306860D01*
X132685Y306930D01*
X132571Y307003D01*
X132459Y307079D01*
X132349Y307159D01*
X132242Y307241D01*
X132137Y307327D01*
X132034Y307415D01*
X131934Y307506D01*
X131836Y307600D01*
X131742Y307697D01*
X131650Y307796D01*
X131560Y307898D01*
X131474Y308002D01*
X131391Y308109D01*
X131311Y308218D01*
X131233Y308330D01*
X131160Y308443D01*
X131089Y308558D01*
X131021Y308676D01*
X130957Y308795D01*
X130896Y308916D01*
X130839Y309039D01*
X130785Y309163D01*
X130735Y309289D01*
X130688Y309416D01*
X130645Y309544D01*
X130606Y309674D01*
X130570Y309804D01*
X130538Y309936D01*
X130509Y310068D01*
X130485Y310201D01*
X130464Y310335D01*
X130447Y310470D01*
X130433Y310604D01*
X130424Y310739D01*
X130418Y310875D01*
X130416Y311010D01*
X130418Y311145D01*
X130424Y311281D01*
X130433Y311416D01*
X130447Y311551D01*
X130464Y311685D01*
X130485Y311819D01*
X130509Y311952D01*
X130538Y312084D01*
X130570Y312216D01*
X130606Y312346D01*
X130645Y312476D01*
X130688Y312604D01*
X130735Y312731D01*
X130785Y312857D01*
X130839Y312981D01*
X130896Y313104D01*
X130957Y313225D01*
X131021Y313344D01*
X131089Y313462D01*
X131160Y313577D01*
X131234Y313690D01*
X131311Y313802D01*
X131391Y313911D01*
X131474Y314018D01*
X131560Y314122D01*
X131650Y314224D01*
X131742Y314323D01*
X131836Y314420D01*
X131934Y314514D01*
X132034Y314605D01*
X132137Y314693D01*
X132242Y314779D01*
X132349Y314861D01*
X132459Y314941D01*
X132571Y315017D01*
X132685Y315090D01*
X132801Y315160D01*
X132919Y315226D01*
X133038Y315289D01*
X133160Y315349D01*
X133283Y315406D01*
X133408Y315458D01*
X133534Y315508D01*
X133661Y315553D01*
X133661Y315554D02*
X134077Y315750D01*
X134497Y315937D01*
X134922Y316113D01*
X135350Y316279D01*
X135783Y316435D01*
X136219Y316581D01*
X136658Y316716D01*
X137101Y316841D01*
X137546Y316955D01*
X137994Y317058D01*
X138444Y317151D01*
X138897Y317233D01*
X139351Y317304D01*
X139807Y317364D01*
X140264Y317413D01*
X140722Y317452D01*
X141181Y317479D01*
X141640Y317496D01*
X142100Y317501D01*
X142100Y304519D02*
X142560Y304524D01*
X143019Y304541D01*
X143478Y304568D01*
X143936Y304607D01*
X144393Y304656D01*
X144849Y304716D01*
X145303Y304787D01*
X145756Y304869D01*
X146206Y304962D01*
X146654Y305065D01*
X147099Y305179D01*
X147542Y305304D01*
X147981Y305439D01*
X148417Y305585D01*
X148849Y305741D01*
X149278Y305907D01*
X149703Y306083D01*
X150123Y306270D01*
X150538Y306466D01*
X150539Y306467D02*
X150666Y306512D01*
X150792Y306562D01*
X150917Y306614D01*
X151040Y306671D01*
X151162Y306731D01*
X151281Y306794D01*
X151399Y306860D01*
X151515Y306930D01*
X151629Y307003D01*
X151741Y307079D01*
X151851Y307159D01*
X151958Y307241D01*
X152063Y307327D01*
X152166Y307415D01*
X152266Y307506D01*
X152364Y307600D01*
X152458Y307697D01*
X152550Y307796D01*
X152640Y307898D01*
X152726Y308003D01*
X152809Y308109D01*
X152889Y308218D01*
X152967Y308330D01*
X153040Y308443D01*
X153111Y308558D01*
X153179Y308676D01*
X153243Y308795D01*
X153304Y308916D01*
X153361Y309039D01*
X153415Y309163D01*
X153465Y309289D01*
X153512Y309416D01*
X153555Y309544D01*
X153594Y309674D01*
X153630Y309804D01*
X153662Y309936D01*
X153691Y310068D01*
X153715Y310201D01*
X153736Y310335D01*
X153753Y310470D01*
X153767Y310604D01*
X153776Y310739D01*
X153782Y310875D01*
X153784Y311010D01*
X150538Y315554D02*
X150123Y315750D01*
X149703Y315937D01*
X149278Y316113D01*
X148850Y316279D01*
X148417Y316435D01*
X147981Y316581D01*
X147542Y316716D01*
X147099Y316841D01*
X146654Y316955D01*
X146206Y317058D01*
X145756Y317151D01*
X145303Y317233D01*
X144849Y317304D01*
X144393Y317364D01*
X143936Y317413D01*
X143478Y317452D01*
X143019Y317479D01*
X142560Y317496D01*
X142100Y317501D01*
X150539Y315553D02*
X150666Y315508D01*
X150792Y315458D01*
X150917Y315406D01*
X151040Y315349D01*
X151162Y315289D01*
X151281Y315226D01*
X151399Y315160D01*
X151515Y315090D01*
X151629Y315017D01*
X151741Y314941D01*
X151851Y314861D01*
X151958Y314779D01*
X152063Y314693D01*
X152166Y314605D01*
X152266Y314514D01*
X152364Y314420D01*
X152458Y314323D01*
X152550Y314224D01*
X152640Y314122D01*
X152726Y314017D01*
X152809Y313911D01*
X152889Y313802D01*
X152967Y313690D01*
X153040Y313577D01*
X153111Y313462D01*
X153179Y313344D01*
X153243Y313225D01*
X153304Y313104D01*
X153361Y312981D01*
X153415Y312857D01*
X153465Y312731D01*
X153512Y312604D01*
X153555Y312476D01*
X153594Y312346D01*
X153630Y312216D01*
X153662Y312084D01*
X153691Y311952D01*
X153715Y311819D01*
X153736Y311685D01*
X153753Y311550D01*
X153767Y311416D01*
X153776Y311281D01*
X153782Y311145D01*
X153784Y311010D01*
X148591Y305817D02*
X135609Y316203D01*
X135609Y325398D02*
X130416Y331889D01*
X153784Y331889D01*
X153784Y325398D02*
X153784Y338380D01*
D15*
X90246Y209908D02*
X81808Y209908D01*
X90246Y209908D02*
X90359Y209910D01*
X90472Y209916D01*
X90585Y209926D01*
X90698Y209940D01*
X90810Y209957D01*
X90921Y209979D01*
X91031Y210004D01*
X91141Y210034D01*
X91249Y210067D01*
X91356Y210104D01*
X91462Y210144D01*
X91566Y210189D01*
X91669Y210237D01*
X91770Y210288D01*
X91869Y210343D01*
X91966Y210401D01*
X92061Y210463D01*
X92154Y210528D01*
X92244Y210596D01*
X92332Y210667D01*
X92418Y210742D01*
X92501Y210819D01*
X92581Y210899D01*
X92658Y210982D01*
X92733Y211068D01*
X92804Y211156D01*
X92872Y211246D01*
X92937Y211339D01*
X92999Y211434D01*
X93057Y211531D01*
X93112Y211630D01*
X93163Y211731D01*
X93211Y211834D01*
X93256Y211938D01*
X93296Y212044D01*
X93333Y212151D01*
X93366Y212259D01*
X93396Y212369D01*
X93421Y212479D01*
X93443Y212590D01*
X93460Y212702D01*
X93474Y212815D01*
X93484Y212928D01*
X93490Y213041D01*
X93492Y213154D01*
X93490Y213267D01*
X93484Y213380D01*
X93474Y213493D01*
X93460Y213606D01*
X93443Y213718D01*
X93421Y213829D01*
X93396Y213939D01*
X93366Y214049D01*
X93333Y214157D01*
X93296Y214264D01*
X93256Y214370D01*
X93211Y214474D01*
X93163Y214577D01*
X93112Y214678D01*
X93057Y214777D01*
X92999Y214874D01*
X92937Y214969D01*
X92872Y215062D01*
X92804Y215152D01*
X92733Y215240D01*
X92658Y215326D01*
X92581Y215409D01*
X92501Y215489D01*
X92418Y215566D01*
X92332Y215641D01*
X92244Y215712D01*
X92154Y215780D01*
X92061Y215845D01*
X91966Y215907D01*
X91869Y215965D01*
X91770Y216020D01*
X91669Y216071D01*
X91566Y216119D01*
X91462Y216164D01*
X91356Y216204D01*
X91249Y216241D01*
X91141Y216274D01*
X91031Y216304D01*
X90921Y216329D01*
X90810Y216351D01*
X90698Y216368D01*
X90585Y216382D01*
X90472Y216392D01*
X90359Y216398D01*
X90246Y216400D01*
X90246Y216399D02*
X81808Y216399D01*
X81808Y224203D02*
X93492Y224203D01*
X87650Y224203D02*
X86676Y222580D01*
X86677Y222579D02*
X86630Y222506D01*
X86581Y222435D01*
X86528Y222366D01*
X86472Y222299D01*
X86413Y222235D01*
X86352Y222173D01*
X86288Y222115D01*
X86221Y222059D01*
X86152Y222007D01*
X86080Y221957D01*
X86006Y221911D01*
X85931Y221868D01*
X85853Y221829D01*
X85774Y221793D01*
X85693Y221761D01*
X85611Y221732D01*
X85528Y221707D01*
X85444Y221686D01*
X85359Y221669D01*
X85273Y221655D01*
X85187Y221646D01*
X85100Y221640D01*
X85013Y221638D01*
X84926Y221640D01*
X84839Y221646D01*
X84753Y221656D01*
X84667Y221669D01*
X84582Y221687D01*
X84498Y221708D01*
X84415Y221733D01*
X84332Y221762D01*
X84252Y221794D01*
X84173Y221830D01*
X84095Y221869D01*
X84020Y221912D01*
X83946Y221959D01*
X83875Y222008D01*
X83805Y222061D01*
X83739Y222116D01*
X83675Y222175D01*
X83613Y222236D01*
X83554Y222300D01*
X83499Y222367D01*
X83446Y222436D01*
X83396Y222508D01*
X83350Y222581D01*
X83307Y222657D01*
X83268Y222734D01*
X83232Y222813D01*
X83199Y222894D01*
X83171Y222976D01*
X83145Y223059D01*
X83124Y223143D01*
X83107Y223228D01*
X83106Y223229D02*
X83082Y223369D01*
X83062Y223511D01*
X83046Y223652D01*
X83035Y223794D01*
X83027Y223937D01*
X83023Y224079D01*
X83022Y224222D01*
X83026Y224365D01*
X83034Y224507D01*
X83046Y224649D01*
X83062Y224791D01*
X83081Y224932D01*
X83105Y225073D01*
X83132Y225213D01*
X83164Y225352D01*
X83199Y225490D01*
X83238Y225628D01*
X83281Y225764D01*
X83327Y225898D01*
X83378Y226032D01*
X83431Y226164D01*
X83489Y226294D01*
X83550Y226423D01*
X83615Y226550D01*
X83683Y226676D01*
X83755Y226799D01*
X87650Y224203D02*
X88624Y225825D01*
X88623Y225826D02*
X88670Y225899D01*
X88719Y225970D01*
X88772Y226040D01*
X88828Y226106D01*
X88887Y226170D01*
X88948Y226232D01*
X89012Y226290D01*
X89079Y226346D01*
X89148Y226398D01*
X89220Y226448D01*
X89294Y226494D01*
X89369Y226537D01*
X89447Y226576D01*
X89526Y226612D01*
X89607Y226644D01*
X89689Y226673D01*
X89772Y226698D01*
X89856Y226719D01*
X89941Y226736D01*
X90027Y226750D01*
X90114Y226759D01*
X90200Y226765D01*
X90287Y226767D01*
X90374Y226765D01*
X90461Y226759D01*
X90547Y226749D01*
X90633Y226736D01*
X90718Y226718D01*
X90802Y226697D01*
X90885Y226672D01*
X90968Y226643D01*
X91048Y226611D01*
X91127Y226575D01*
X91205Y226536D01*
X91280Y226493D01*
X91354Y226446D01*
X91425Y226397D01*
X91495Y226344D01*
X91561Y226289D01*
X91625Y226230D01*
X91687Y226169D01*
X91746Y226104D01*
X91801Y226038D01*
X91854Y225969D01*
X91904Y225897D01*
X91950Y225824D01*
X91993Y225748D01*
X92032Y225671D01*
X92068Y225592D01*
X92101Y225511D01*
X92129Y225429D01*
X92155Y225346D01*
X92176Y225262D01*
X92193Y225176D01*
X92194Y225176D02*
X92218Y225036D01*
X92238Y224894D01*
X92254Y224753D01*
X92265Y224611D01*
X92273Y224468D01*
X92277Y224326D01*
X92278Y224183D01*
X92274Y224040D01*
X92266Y223898D01*
X92254Y223756D01*
X92238Y223614D01*
X92219Y223473D01*
X92195Y223332D01*
X92168Y223192D01*
X92136Y223053D01*
X92101Y222915D01*
X92062Y222777D01*
X92019Y222641D01*
X91973Y222507D01*
X91922Y222373D01*
X91869Y222241D01*
X91811Y222111D01*
X91750Y221982D01*
X91685Y221855D01*
X91617Y221729D01*
X91545Y221606D01*
X84404Y231625D02*
X81808Y234871D01*
X93492Y234871D01*
X93492Y238116D02*
X93492Y231625D01*
D10*
X135890Y426466D02*
X168910Y426466D01*
X168910Y360934D01*
X135890Y360934D01*
X135890Y426466D01*
D15*
X103561Y373253D02*
X95123Y373253D01*
X103561Y373253D02*
X103674Y373255D01*
X103787Y373261D01*
X103900Y373271D01*
X104013Y373285D01*
X104125Y373302D01*
X104236Y373324D01*
X104346Y373349D01*
X104456Y373379D01*
X104564Y373412D01*
X104671Y373449D01*
X104777Y373489D01*
X104881Y373534D01*
X104984Y373582D01*
X105085Y373633D01*
X105184Y373688D01*
X105281Y373746D01*
X105376Y373808D01*
X105469Y373873D01*
X105559Y373941D01*
X105647Y374012D01*
X105733Y374087D01*
X105816Y374164D01*
X105896Y374244D01*
X105973Y374327D01*
X106048Y374413D01*
X106119Y374501D01*
X106187Y374591D01*
X106252Y374684D01*
X106314Y374779D01*
X106372Y374876D01*
X106427Y374975D01*
X106478Y375076D01*
X106526Y375179D01*
X106571Y375283D01*
X106611Y375389D01*
X106648Y375496D01*
X106681Y375604D01*
X106711Y375714D01*
X106736Y375824D01*
X106758Y375935D01*
X106775Y376047D01*
X106789Y376160D01*
X106799Y376273D01*
X106805Y376386D01*
X106807Y376499D01*
X106805Y376612D01*
X106799Y376725D01*
X106789Y376838D01*
X106775Y376951D01*
X106758Y377063D01*
X106736Y377174D01*
X106711Y377284D01*
X106681Y377394D01*
X106648Y377502D01*
X106611Y377609D01*
X106571Y377715D01*
X106526Y377819D01*
X106478Y377922D01*
X106427Y378023D01*
X106372Y378122D01*
X106314Y378219D01*
X106252Y378314D01*
X106187Y378407D01*
X106119Y378497D01*
X106048Y378585D01*
X105973Y378671D01*
X105896Y378754D01*
X105816Y378834D01*
X105733Y378911D01*
X105647Y378986D01*
X105559Y379057D01*
X105469Y379125D01*
X105376Y379190D01*
X105281Y379252D01*
X105184Y379310D01*
X105085Y379365D01*
X104984Y379416D01*
X104881Y379464D01*
X104777Y379509D01*
X104671Y379549D01*
X104564Y379586D01*
X104456Y379619D01*
X104346Y379649D01*
X104236Y379674D01*
X104125Y379696D01*
X104013Y379713D01*
X103900Y379727D01*
X103787Y379737D01*
X103674Y379743D01*
X103561Y379745D01*
X103561Y379744D02*
X95123Y379744D01*
X95123Y387548D02*
X106807Y387548D01*
X100965Y387548D02*
X99991Y385925D01*
X99992Y385924D02*
X99945Y385851D01*
X99896Y385780D01*
X99843Y385711D01*
X99787Y385644D01*
X99728Y385580D01*
X99667Y385518D01*
X99603Y385460D01*
X99536Y385404D01*
X99467Y385352D01*
X99395Y385302D01*
X99321Y385256D01*
X99246Y385213D01*
X99168Y385174D01*
X99089Y385138D01*
X99008Y385106D01*
X98926Y385077D01*
X98843Y385052D01*
X98759Y385031D01*
X98674Y385014D01*
X98588Y385000D01*
X98502Y384991D01*
X98415Y384985D01*
X98328Y384983D01*
X98241Y384985D01*
X98154Y384991D01*
X98068Y385001D01*
X97982Y385014D01*
X97897Y385032D01*
X97813Y385053D01*
X97730Y385078D01*
X97647Y385107D01*
X97567Y385139D01*
X97488Y385175D01*
X97410Y385214D01*
X97335Y385257D01*
X97261Y385304D01*
X97190Y385353D01*
X97120Y385406D01*
X97054Y385461D01*
X96990Y385520D01*
X96928Y385581D01*
X96869Y385645D01*
X96814Y385712D01*
X96761Y385781D01*
X96711Y385853D01*
X96665Y385926D01*
X96622Y386002D01*
X96583Y386079D01*
X96547Y386158D01*
X96514Y386239D01*
X96486Y386321D01*
X96460Y386404D01*
X96439Y386488D01*
X96422Y386573D01*
X96421Y386574D02*
X96397Y386714D01*
X96377Y386856D01*
X96361Y386997D01*
X96350Y387139D01*
X96342Y387282D01*
X96338Y387424D01*
X96337Y387567D01*
X96341Y387710D01*
X96349Y387852D01*
X96361Y387994D01*
X96377Y388136D01*
X96396Y388277D01*
X96420Y388418D01*
X96447Y388558D01*
X96479Y388697D01*
X96514Y388835D01*
X96553Y388973D01*
X96596Y389109D01*
X96642Y389243D01*
X96693Y389377D01*
X96746Y389509D01*
X96804Y389639D01*
X96865Y389768D01*
X96930Y389895D01*
X96998Y390021D01*
X97070Y390144D01*
X100965Y387548D02*
X101939Y389170D01*
X101938Y389171D02*
X101985Y389244D01*
X102034Y389315D01*
X102087Y389385D01*
X102143Y389451D01*
X102202Y389515D01*
X102263Y389577D01*
X102327Y389635D01*
X102394Y389691D01*
X102463Y389743D01*
X102535Y389793D01*
X102609Y389839D01*
X102684Y389882D01*
X102762Y389921D01*
X102841Y389957D01*
X102922Y389989D01*
X103004Y390018D01*
X103087Y390043D01*
X103171Y390064D01*
X103256Y390081D01*
X103342Y390095D01*
X103429Y390104D01*
X103515Y390110D01*
X103602Y390112D01*
X103689Y390110D01*
X103776Y390104D01*
X103862Y390094D01*
X103948Y390081D01*
X104033Y390063D01*
X104117Y390042D01*
X104200Y390017D01*
X104283Y389988D01*
X104363Y389956D01*
X104442Y389920D01*
X104520Y389881D01*
X104595Y389838D01*
X104669Y389791D01*
X104740Y389742D01*
X104810Y389689D01*
X104876Y389634D01*
X104940Y389575D01*
X105002Y389514D01*
X105061Y389449D01*
X105116Y389383D01*
X105169Y389314D01*
X105219Y389242D01*
X105265Y389169D01*
X105308Y389093D01*
X105347Y389016D01*
X105383Y388937D01*
X105416Y388856D01*
X105444Y388774D01*
X105470Y388691D01*
X105491Y388607D01*
X105508Y388521D01*
X105509Y388521D02*
X105533Y388381D01*
X105553Y388239D01*
X105569Y388098D01*
X105580Y387956D01*
X105588Y387813D01*
X105592Y387671D01*
X105593Y387528D01*
X105589Y387385D01*
X105581Y387243D01*
X105569Y387101D01*
X105553Y386959D01*
X105534Y386818D01*
X105510Y386677D01*
X105483Y386537D01*
X105451Y386398D01*
X105416Y386260D01*
X105377Y386122D01*
X105334Y385986D01*
X105288Y385852D01*
X105237Y385718D01*
X105184Y385586D01*
X105126Y385456D01*
X105065Y385327D01*
X105000Y385200D01*
X104932Y385074D01*
X104860Y384951D01*
X95123Y398540D02*
X95125Y398647D01*
X95131Y398753D01*
X95141Y398859D01*
X95154Y398965D01*
X95172Y399071D01*
X95193Y399175D01*
X95218Y399279D01*
X95247Y399382D01*
X95279Y399483D01*
X95316Y399583D01*
X95356Y399682D01*
X95399Y399780D01*
X95446Y399876D01*
X95497Y399970D01*
X95551Y400062D01*
X95608Y400152D01*
X95668Y400240D01*
X95732Y400325D01*
X95799Y400408D01*
X95869Y400489D01*
X95941Y400567D01*
X96017Y400643D01*
X96095Y400715D01*
X96176Y400785D01*
X96259Y400852D01*
X96344Y400916D01*
X96432Y400976D01*
X96522Y401033D01*
X96614Y401087D01*
X96708Y401138D01*
X96804Y401185D01*
X96902Y401228D01*
X97001Y401268D01*
X97101Y401305D01*
X97202Y401337D01*
X97305Y401366D01*
X97409Y401391D01*
X97513Y401412D01*
X97619Y401430D01*
X97725Y401443D01*
X97831Y401453D01*
X97937Y401459D01*
X98044Y401461D01*
X95123Y398540D02*
X95125Y398419D01*
X95131Y398298D01*
X95141Y398178D01*
X95154Y398057D01*
X95172Y397938D01*
X95193Y397818D01*
X95218Y397700D01*
X95247Y397583D01*
X95280Y397466D01*
X95316Y397351D01*
X95357Y397237D01*
X95400Y397124D01*
X95448Y397012D01*
X95499Y396903D01*
X95554Y396795D01*
X95612Y396688D01*
X95673Y396584D01*
X95738Y396482D01*
X95806Y396382D01*
X95877Y396284D01*
X95951Y396188D01*
X96028Y396095D01*
X96109Y396005D01*
X96192Y395917D01*
X96278Y395832D01*
X96367Y395749D01*
X96458Y395670D01*
X96552Y395593D01*
X96648Y395520D01*
X96746Y395450D01*
X96847Y395383D01*
X96950Y395319D01*
X97055Y395259D01*
X97162Y395201D01*
X97270Y395148D01*
X97380Y395098D01*
X97492Y395052D01*
X97605Y395009D01*
X97720Y394970D01*
X100316Y400487D02*
X100238Y400566D01*
X100158Y400642D01*
X100075Y400715D01*
X99989Y400785D01*
X99902Y400852D01*
X99811Y400916D01*
X99719Y400976D01*
X99625Y401034D01*
X99528Y401088D01*
X99430Y401138D01*
X99330Y401185D01*
X99229Y401229D01*
X99126Y401269D01*
X99021Y401305D01*
X98916Y401337D01*
X98809Y401366D01*
X98702Y401391D01*
X98593Y401413D01*
X98484Y401430D01*
X98375Y401444D01*
X98265Y401453D01*
X98154Y401459D01*
X98044Y401461D01*
X100316Y400487D02*
X106807Y394970D01*
X106807Y401461D01*
M02*
